<?xml version="1.0" encoding="UTF-8"?>
<svg width="1169px" height="368px" viewBox="0 0 1169 368" version="1.1" xmlns="http://www.w3.org/2000/svg" xmlns:xlink="http://www.w3.org/1999/xlink">
    <title>bookingBg</title>
    <defs>
        <path d="M20.5110816,-8.28672246e-16 L1148.48892,8.28672246e-16 C1155.62107,-4.81482439e-16 1158.20736,0.742604889 1160.81477,2.13706163 C1163.42217,3.53151837 1165.46848,5.57782696 1166.86294,8.18523437 C1168.2574,10.7926418 1169,13.3789317 1169,20.5110816 L1169,347.488918 C1169,354.621068 1168.2574,357.207358 1166.86294,359.814766 C1165.46848,362.422173 1163.42217,364.468482 1160.81477,365.862938 C1158.20736,367.257395 1155.62107,368 1148.48892,368 L20.5110816,368 C13.3789317,368 10.7926418,367.257395 8.18523437,365.862938 C5.57782696,364.468482 3.53151837,362.422173 2.13706163,359.814766 C0.742604889,357.207358 3.20988293e-16,354.621068 -5.52448164e-16,347.488918 L5.52448164e-16,20.5110816 C-3.20988293e-16,13.3789317 0.742604889,10.7926418 2.13706163,8.18523437 C3.53151837,5.57782696 5.57782696,3.53151837 8.18523437,2.13706163 C10.7926418,0.742604889 13.3789317,4.81482439e-16 20.5110816,-8.28672246e-16 Z" id="path-1"></path>
        <linearGradient x1="50%" y1="0%" x2="50%" y2="100%" id="linearGradient-3">
            <stop stop-color="#2F3043" offset="0%"></stop>
            <stop stop-color="#464761" offset="100%"></stop>
        </linearGradient>
        <circle id="path-4" cx="874.5" cy="91.5" r="134.5"></circle>
        <linearGradient x1="0%" y1="0%" x2="100%" y2="100%" id="linearGradient-5">
            <stop stop-color="#FFB7DC" offset="0%"></stop>
            <stop stop-color="#85AEFF" offset="100%"></stop>
        </linearGradient>
    </defs>
    <g id="Design" stroke="none" stroke-width="1" fill="none" fill-rule="evenodd">
        <g id="02_about" transform="translate(-135.000000, -1823.000000)">
            <g id="block" transform="translate(135.000000, 1823.000000)">
                <mask id="mask-2" fill="white">
                    <use xlink:href="#path-1"></use>
                </mask>
                <use id="Mask" fill="#2F3043" fill-rule="nonzero" xlink:href="#path-1"></use>
                <g id="Oval" fill-rule="nonzero" mask="url(#mask-2)">
                    <use fill="#464761" xlink:href="#path-4"></use>
                    <use fill="url(#linearGradient-3)" xlink:href="#path-4"></use>
                </g>
                <circle id="Oval" fill="url(#linearGradient-5)" fill-rule="nonzero" mask="url(#mask-2)" cx="812" cy="389" r="74"></circle>
                <path d="M1114,263 C1114,289.509668 1092.50967,311 1066,311 C1039.49033,311 1018,289.509668 1018,263 L1018,263 Z" id="Combined-Shape" fill="#464761" fill-rule="nonzero" mask="url(#mask-2)"></path>
                <path d="M1065.06932,109.489289 L1060.18238,112.058504 C1059.20469,112.572505 1057.99544,112.196612 1057.48144,111.218923 C1057.27676,110.829602 1057.20613,110.383666 1057.28048,109.950151 L1058.2138,104.508466 C1058.32508,103.859678 1058.10998,103.197677 1057.63861,102.738203 L1053.68499,98.8843804 C1052.89403,98.113378 1052.87784,96.8471515 1053.64885,96.0561843 C1053.95586,95.741217 1054.35815,95.5362427 1054.79342,95.4729937 L1060.25718,94.6790625 C1060.9086,94.5844056 1061.47174,94.1752669 1061.76306,93.5849799 L1064.20653,88.6339715 C1064.69537,87.6434642 1065.89462,87.2367862 1066.88513,87.7256308 C1067.27956,87.9202912 1067.59881,88.2395463 1067.79347,88.6339715 L1070.23694,93.5849799 C1070.52826,94.1752669 1071.0914,94.5844056 1071.74282,94.6790625 L1077.20658,95.4729937 C1078.29967,95.6318289 1079.05703,96.6467146 1078.8982,97.7398043 C1078.83495,98.1750784 1078.62997,98.5773632 1078.31501,98.8843804 L1074.36139,102.738203 C1073.89002,103.197677 1073.67492,103.859678 1073.7862,104.508466 L1074.71952,109.950151 C1074.90624,111.038824 1074.17506,112.072735 1073.08639,112.259457 C1072.65288,112.333811 1072.20694,112.263182 1071.81762,112.058504 L1066.93068,109.489289 C1066.34803,109.182972 1065.65197,109.182972 1065.06932,109.489289 Z" id="Star" fill="#DC70B9" fill-rule="nonzero" mask="url(#mask-2)"></path>
                <path d="M717.526712,183.562306 L733.298645,195.021286 C735.401569,196.54915 736.281518,199.257354 735.478272,201.72949 L729.45393,220.27051 C728.650684,222.742646 726.346948,224.416408 723.747591,224.416408 L704.252409,224.416408 C701.653052,224.416408 699.349316,222.742646 698.54607,220.27051 L692.521728,201.72949 C691.718482,199.257354 692.598431,196.54915 694.701355,195.021286 L710.473288,183.562306 C712.576213,182.034442 715.423787,182.034442 717.526712,183.562306 Z" id="Polygon" fill="#6177EE" fill-rule="nonzero" mask="url(#mask-2)"></path>
            </g>
        </g>
    </g>
</svg>