<svg id="圖層_1" data-name="圖層 1" xmlns="http://www.w3.org/2000/svg" viewBox="0 0 240 136.38"><defs><style>.cls-1{fill:#fff;}</style></defs><title>f-logo</title><path class="cls-1" d="M85,96.23h7.67V94.34H84.29V90.26l.52-.05a44,44,0,0,0,6.13-.8l-.29-1.87a86.9,86.9,0,0,1-15.46,1.22l.23,1.89q2.81,0,6.89-.24v3.93H73.8v1.89h8a28.34,28.34,0,0,1-9,7l1.35,1.65a28.64,28.64,0,0,0,8.12-6.47v9.51h2V98.16a32.86,32.86,0,0,0,7.79,6.63l1.54-1.48A25.12,25.12,0,0,1,85,96.23Z"/><path class="cls-1" d="M96.93,102.58a50.33,50.33,0,0,0,2.37-5V108h1.88V95.73c.93,1.26,1.73,2.43,2.41,3.5l1.5-1.15q-1.84-2.56-3.91-5v-.35h3V90.87h-3V87.43H99.3v3.44H95.6v1.88h3.52a27.84,27.84,0,0,1-4,9.28Z"/><path class="cls-1" d="M110.71,92.75h4.37V90.87h-4.69V87.43h-1.88v3.44h-3.26v1.88h2.88a30.76,30.76,0,0,1-5.27,11.52l1.88.62A33.45,33.45,0,0,0,108.51,97v11h1.88V96.42a53.49,53.49,0,0,0,3.85,8.3l1.63-.93A63.33,63.33,0,0,1,110.71,92.75Z"/><path class="cls-1" d="M135.46,89l-1.07-1.47A13.85,13.85,0,0,1,128.7,90l.7,1.72A15.32,15.32,0,0,0,135.46,89Z"/><path class="cls-1" d="M129.83,94.88a17.5,17.5,0,0,0,6.91-3.06l-1.05-1.47a15.3,15.3,0,0,1-6.56,2.82Z"/><path class="cls-1" d="M129.05,96.47l.5,1.74a17,17,0,0,0,8.53-3.74L137,93a13.86,13.86,0,0,1-5.79,3.08C130.47,96.26,129.76,96.38,129.05,96.47Z"/><path class="cls-1" d="M134.78,100.29l.59-1.65a13,13,0,0,0-2.8-.89l-.5,1.65A13.74,13.74,0,0,1,134.78,100.29Z"/><path class="cls-1" d="M137.67,107.91l.17-1.88a20.3,20.3,0,0,1-7-.13l.15-.09a21.05,21.05,0,0,0,3-1.9l-1-1.49a24.17,24.17,0,0,1-4.56,2.63,11.18,11.18,0,0,1-3.54-2.82h13v-1.72H125.75c.14-.39.3-.79.47-1.2l-1.2-.45,1.85-.15c.24.32.46.63.66,1L129,98.8a28.79,28.79,0,0,0-2-2.66h1.63V94.6H121v-.89h6.51V92.52H121v-.89h6.51v-1.2H121v-.78c0-.13,0-.19.18-.19h6.59V87.91h-8.12a.32.32,0,0,0-.36.39v6.3H117.5v1.54h1.78c-.19.53-.4,1-.61,1.54l-1.31.09c.18.61.33,1.17.46,1.67l6.62-.52c-.26.57-.49,1.1-.71,1.59h-6.14v1.72h5.18a16.26,16.26,0,0,1-5.41,4.14l1.26,1.46a18.3,18.3,0,0,0,5.29-4.13,17.45,17.45,0,0,0,2.53,2,25.29,25.29,0,0,1-4.26.57l.42,1.84a25.65,25.65,0,0,0,6-1.28A17.4,17.4,0,0,0,137.67,107.91Zm-17-10.35c.19-.54.36-1,.5-1.42h4.43l-.46.33c.11.13.31.38.64.74Z"/><path class="cls-1" d="M142.84,90.54a.2.2,0,0,1,.22-.22h16.72V88.61h-8.56V87.35h-1.89v1.26h-7.82a.43.43,0,0,0-.48.48v9.68a30.8,30.8,0,0,1-.28,4.26,16.09,16.09,0,0,1-1.19,4l1.74.61a20.26,20.26,0,0,0,1.54-8.28Z"/><path class="cls-1" d="M155.17,104.11l.11,2a4.86,4.86,0,0,0,3.68-.19,2.44,2.44,0,0,0,.93-1.2,5.21,5.21,0,0,0-.17-4.13,11,11,0,0,0-1.83-2.52c-.13-.1-.17-.2-.11-.3l2.13-5.49-1.15-1h-5.69c-.19,0-.29.1-.31.3V108h1.81V93.26q0-.23.24-.24h3l-.11.17-1.81,4.67c0,.14,0,.35.24.61a9.38,9.38,0,0,1,2.37,3.69c.13,1.17-.09,1.92-.67,2.24A4.39,4.39,0,0,1,155.17,104.11Z"/><path class="cls-1" d="M147.07,90.91v1.52h-2.53a.45.45,0,0,0-.5.5v13l-1.59.34L143,108l6.91-1.48c.1.41.2.81.32,1.22l1.65-.37a38.5,38.5,0,0,0-1.56-4.86l-1.63.49c.1.28.32.88.65,1.81l-3.56.76v-3.84H151a.48.48,0,0,0,.54-.55V92.93c0-.32-.18-.48-.52-.5H149V90.91Zm2.79,8.8a.26.26,0,0,1-.29.28h-3.82V98h4.11Zm-.44-5.57a.4.4,0,0,1,.44.42v1.69h-4.11V94.56a.37.37,0,0,1,.41-.42Z"/><polygon class="cls-1" points="78.56 118.34 75.23 118.34 75.23 112.81 73.57 112.81 73.57 124 75.23 124 75.23 119.03 78.56 119.03 78.56 124 80.22 124 80.22 112.81 78.56 112.81 78.56 118.34"/><path class="cls-1" d="M84.7,123.13a2.26,2.26,0,0,1-.81-.43,2.31,2.31,0,0,1-.57-.8,2.93,2.93,0,0,1-.23-1.23v-7.85H81.44v7.3A3.78,3.78,0,0,0,82.5,123,4.28,4.28,0,0,0,85.59,124h3v-.77h-3A3.82,3.82,0,0,1,84.7,123.13Z"/><polygon class="cls-1" points="99.71 118.34 96.38 118.34 96.38 112.81 94.73 112.81 94.73 124 96.38 124 96.38 119.03 99.71 119.03 99.71 124 101.37 124 101.37 112.81 99.71 112.81 99.71 118.34"/><path class="cls-1" d="M109,117.56a3,3,0,0,0-1.14-.75,5,5,0,0,0-1.7-.26,4.49,4.49,0,0,0-1.61.26,3,3,0,0,0-1.1.75,3.17,3.17,0,0,0-.65,1.17,5.6,5.6,0,0,0-.24,1.55,5.54,5.54,0,0,0,.24,1.55,3.17,3.17,0,0,0,.65,1.17,3,3,0,0,0,1.1.74,4.5,4.5,0,0,0,1.61.25,2.48,2.48,0,0,0,.61-.07,1.69,1.69,0,0,0,.52-.23,3,3,0,0,0,.48-.47,5,5,0,0,0,.48-.76V124H110v-3.71a6,6,0,0,0-.24-1.55A3.07,3.07,0,0,0,109,117.56Zm-.75,2.48a4.13,4.13,0,0,1-.55,2.3,1.66,1.66,0,0,1-1.47.77,2.61,2.61,0,0,1-.81-.1,1.5,1.5,0,0,1-.65-.42,2.2,2.2,0,0,1-.41-.81,4.44,4.44,0,0,1-.14-1.25V120a4.53,4.53,0,0,1,.14-1.25,2.15,2.15,0,0,1,.41-.8,1.41,1.41,0,0,1,.65-.42,2.34,2.34,0,0,1,.81-.1,2.23,2.23,0,0,1,.83.11,1.49,1.49,0,0,1,.64.42,2,2,0,0,1,.41.8,4.41,4.41,0,0,1,.14,1.24Z"/><path class="cls-1" d="M112.26,112.83a1,1,0,0,0-.76.33,1.16,1.16,0,0,0,0,1.58,1,1,0,0,0,.76.33.92.92,0,0,0,.38-.09,1.19,1.19,0,0,0,.35-.25,1.07,1.07,0,0,0,.25-.35.94.94,0,0,0,.1-.43,1.1,1.1,0,0,0-.32-.79A1,1,0,0,0,112.26,112.83Z"/><rect class="cls-1" x="111.46" y="116.5" width="1.66" height="7.47"/><path class="cls-1" d="M118.8,116.54a4.34,4.34,0,0,0-3.15,1,3.79,3.79,0,0,0-1.09,2.87V124h1.66v-4.13a3.16,3.16,0,0,1,.22-1.24,2.35,2.35,0,0,1,.59-.8,2.09,2.09,0,0,1,.81-.42,2.69,2.69,0,0,1,.89-.11h.36l.36,0v-.78h-.65Z"/><path class="cls-1" d="M132.24,119.44a3.15,3.15,0,0,0-.59-.74,2.87,2.87,0,0,0-.89-.56l-2.13-.93a5.81,5.81,0,0,1-.75-.37,4.41,4.41,0,0,1-.63-.45,2.48,2.48,0,0,1-.43-.51.88.88,0,0,1-.17-.5,1.24,1.24,0,0,1,.17-.7,1.43,1.43,0,0,1,.46-.52,2.17,2.17,0,0,1,.69-.31,4.29,4.29,0,0,1,.81-.14l1.22.23a7.37,7.37,0,0,1,.89.26,4.6,4.6,0,0,1,.7.3,4.86,4.86,0,0,1,.65.39c.07-.49.13-.92.21-1.3a10.5,10.5,0,0,0-1.95-.57,11.68,11.68,0,0,0-2-.17,4.54,4.54,0,0,0-2.46.75,2.56,2.56,0,0,0-.88,2.12,2.47,2.47,0,0,0,.54,1.59,3.77,3.77,0,0,0,1.71,1.17l2.29.85a1.57,1.57,0,0,1,.63.41,2.32,2.32,0,0,1,.41.55,2.83,2.83,0,0,1,.22.59,2,2,0,0,1,.07.5,1.89,1.89,0,0,1-.14.84,1.29,1.29,0,0,1-.44.51,2.18,2.18,0,0,1-.66.27,4.3,4.3,0,0,1-.82.08c-.34,0-.68,0-1-.07a6,6,0,0,1-.9-.19,4.44,4.44,0,0,1-.82-.34,3.47,3.47,0,0,1-.76-.53c0,.24-.07.47-.1.7s-.06.43-.1.61c.64.21,1.29.39,1.92.53a9.19,9.19,0,0,0,2,.21,4.24,4.24,0,0,0,1.35-.2,3.25,3.25,0,0,0,1.09-.58,2.58,2.58,0,0,0,.75-.92,2.78,2.78,0,0,0,.31-1.22,2.93,2.93,0,0,0-.08-.82A2.4,2.4,0,0,0,132.24,119.44Z"/><path class="cls-1" d="M140.18,117.56a3.11,3.11,0,0,0-1.15-.75,5,5,0,0,0-1.69-.26,4.51,4.51,0,0,0-1.62.26,3,3,0,0,0-1.1.75,3.15,3.15,0,0,0-.64,1.17,6,6,0,0,0-.25,1.55,5.91,5.91,0,0,0,.25,1.55,3.15,3.15,0,0,0,.64,1.17,3,3,0,0,0,1.1.74,4.52,4.52,0,0,0,1.62.25,2.27,2.27,0,0,0,.59-.07,1.48,1.48,0,0,0,.53-.23,3,3,0,0,0,.48-.47,5.93,5.93,0,0,0,.49-.76l0,1.49v0h1.67v-3.71a5.25,5.25,0,0,0-.24-1.55A3.19,3.19,0,0,0,140.18,117.56Zm-.75,2.48a4,4,0,0,1-.56,2.3,1.65,1.65,0,0,1-1.47.77,2.75,2.75,0,0,1-.82-.1,1.59,1.59,0,0,1-.64-.42,2.2,2.2,0,0,1-.41-.81,4.84,4.84,0,0,1-.14-1.25V120a5,5,0,0,1,.14-1.25,2.15,2.15,0,0,1,.41-.8,1.49,1.49,0,0,1,.64-.42,2.46,2.46,0,0,1,.82-.1,2.23,2.23,0,0,1,.83.11,1.43,1.43,0,0,1,.64.42,2,2,0,0,1,.41.8,4.38,4.38,0,0,1,.15,1.24Z"/><path class="cls-1" d="M144.79,122.49a2.38,2.38,0,0,1-.53-.78,3.09,3.09,0,0,1-.21-1.21v-7.69H142.4V120a3.87,3.87,0,0,0,1,2.83,4.05,4.05,0,0,0,2.89,1.09v-.88a2.82,2.82,0,0,1-.79-.15A2,2,0,0,1,144.79,122.49Z"/><path class="cls-1" d="M153.07,117.7a3.21,3.21,0,0,0-1.11-.83,3.73,3.73,0,0,0-1.61-.32,4.16,4.16,0,0,0-1.7.32,3.1,3.1,0,0,0-1.15.83,3.19,3.19,0,0,0-.66,1.18,4.67,4.67,0,0,0-.24,1.4,5.09,5.09,0,0,0,.25,1.42,3.27,3.27,0,0,0,.66,1.18,3.1,3.1,0,0,0,1.14.81,4.34,4.34,0,0,0,1.7.3,4,4,0,0,0,1.62-.3,2.95,2.95,0,0,0,1.74-2,4.88,4.88,0,0,0,.24-1.44,5,5,0,0,0-.24-1.4A3.45,3.45,0,0,0,153.07,117.7Zm-.77,2.83a4.84,4.84,0,0,1-.14,1.25,2.2,2.2,0,0,1-.42.81,1.52,1.52,0,0,1-.64.42,2.74,2.74,0,0,1-.83.1,2.34,2.34,0,0,1-.81-.11,1.4,1.4,0,0,1-.65-.43,2,2,0,0,1-.4-.79,4.4,4.4,0,0,1-.15-1.25V120a4.38,4.38,0,0,1,.15-1.24,2.07,2.07,0,0,1,.4-.8,1.46,1.46,0,0,1,.65-.42,2.12,2.12,0,0,1,.81-.11,2.46,2.46,0,0,1,.83.1,1.43,1.43,0,0,1,.64.42,2.15,2.15,0,0,1,.42.8,5,5,0,0,1,.14,1.25Z"/><path class="cls-1" d="M162.15,118.89a3.24,3.24,0,0,0-.62-1.23,2.76,2.76,0,0,0-1.1-.78,4.28,4.28,0,0,0-1.65-.28,3.36,3.36,0,0,0-2.67,1.05,4.18,4.18,0,0,0-.93,2.87V124h1.66v-3.91a4.44,4.44,0,0,1,.14-1.25,1.93,1.93,0,0,1,.41-.81,1.43,1.43,0,0,1,.64-.42,2.67,2.67,0,0,1,.82-.1,2.21,2.21,0,0,1,.8.11,1.36,1.36,0,0,1,.58.43,2.14,2.14,0,0,1,.34.79,6.16,6.16,0,0,1,.11,1.25V124h1.66v-3.45A6.24,6.24,0,0,0,162.15,118.89Z"/><path class="cls-1" d="M71.87,78.32c-.37.19-.72.42-1.09.62-.94.51-1.87,1-2.78,1.62a6.85,6.85,0,0,1-1,.56c-.7.31-1.27.85-2,1.13a2.34,2.34,0,0,0-1,.61c-.29.38-.75.34-1.06.67a3.9,3.9,0,0,1-1.1.61l-1.41.77a4.23,4.23,0,0,0-.41.33c-.24.18-.55.18-.8.42a4.71,4.71,0,0,1-1.13.61,1.82,1.82,0,0,0-.23.15,13.34,13.34,0,0,1-1.39.86c-.6.28-1.15.64-1.72,1l-1.18.64a1.09,1.09,0,0,0-.17,0L51.4,90.08c-.31.18-.63.35-.93.54s-.8.53-1.21.77-.83.45-1.24.68-.65.36-1,.54l-.11-.08c.11-.41.21-.81.31-1.22a.94.94,0,0,0,.07-.22,1.31,1.31,0,0,0,.17-.36c.14-.6.25-1.22.39-1.83.07-.34.18-.67.27-1s.17-.55.23-.83,0-.49.12-.73c.14-.54.33-1.08.47-1.62s.18-.94.29-1.4.32-1.18.49-1.76c.06-.2.24-.4.23-.59a1.87,1.87,0,0,1,.07-.67c.14-.54.3-1.08.44-1.62a9.11,9.11,0,0,1,.33-1.27c.11-.28,0-.48,0-.72,0,0-.13-.13-.21-.17-.32-.13-.67,0-1-.27s-.62-.13-.94-.2l-1.51-.35c-.3-.07-.61-.09-.91-.17s-.77-.28-1.17-.39S44.31,75,44,74.91L42,74.53a7.72,7.72,0,0,1-.83-.2c-.31-.09-.61-.23-.92-.3-.49-.11-1-.2-1.48-.28-.2,0-.49-.1-.54.19-.08.54-.11,1.1-.16,1.65,0,.11,0,.21,0,.32a5.25,5.25,0,0,0-.18.65c-.08.51-.14,1-.21,1.53,0,.31-.07.62-.07.93,0,.09.13.22.23.25.39.12.79.22,1.19.32.23.07.47.12.69.2s.47.32.67.29c.53-.09.35.24.31.46s-.2.59-.24.9c-.08.58-.1,1.17-.16,1.76a2,2,0,0,1-.05.24c-.1.57-.19,1.13-.3,1.74l-1.24-.25c-.28-.05-.56-.07-.85-.12s-.73-.13-1-.2c-.14.67-.28,1.25-.37,1.84s-.16,1.4-.25,2.09c0,.34-.13.68-.19,1a5.76,5.76,0,0,0-.15.81c0,.07.14.18.23.21a4.6,4.6,0,0,0,.5.13,3,3,0,0,0,1,.28c.51,0,.86.26,1.36.39-.15.92-.29,1.81-.44,2.71-.08.49-.15,1-.22,1.49s-.09.48-.58.45l-1.61-.09c-.26,0-.51-.1-.86-.16,0,.15-.06.35-.11.55s-.22.68-.28,1c-.18,1-.34,2-.5,3a.56.56,0,0,1-.32.42l-.74.47c-.27.17-.54.37-.82.53-.51.28-1,.55-1.55.82a3.13,3.13,0,0,1-1.5.57,6.61,6.61,0,0,0-1.08.12c-.46.08-.91.2-1.38.26a6.81,6.81,0,0,1-2.84-.17,6.27,6.27,0,0,1-1.45-.46,7.81,7.81,0,0,0-1.52-.53A8.71,8.71,0,0,1,18.9,101a5.64,5.64,0,0,0-1.58-.95c-.83-.23-1.65-.53-2.5-.69a8.55,8.55,0,0,0-1.68,0H13c-.44.12-.9.22-1.33.36a15.41,15.41,0,0,0-1.87.67,12.43,12.43,0,0,0-1.26.83c-.11.08-.28.09-.38.18-.46.42-.91.85-1.35,1.28-.18.17-.33.36-.5.54-.32.33-.65.64-1,1a11.84,11.84,0,0,0-.78,1.08,3,3,0,0,0-.41.79c-.16.55-.26,1.12-.39,1.69,0,.08,0,.15-.07.24s0,.2,0,.3a1.16,1.16,0,0,0,0,.32c0,.13.11.25.11.38a3.88,3.88,0,0,0,.42,1.7,5.51,5.51,0,0,0,.36.78,5.73,5.73,0,0,0,.76.8,10.34,10.34,0,0,0,1.3,1.18,4.52,4.52,0,0,0,1.3.54,17.61,17.61,0,0,0,1.88.43c.49.08,1,.08,1.46.12A8.26,8.26,0,0,0,10,115c-.46.28-.86.66-1.3,1a7.23,7.23,0,0,0-1.28,1.54,5.52,5.52,0,0,0-.72,1.22,4.31,4.31,0,0,0-.19.88c-.06.36-.11.71-.18,1.06a4.38,4.38,0,0,0-.15.57c0,.48,0,1,0,1.42S6,123.76,6,124.29a3.5,3.5,0,0,1-.57,1.58c-.19.33-.54.52-.78.83s-.59.41-.86.68c-.11.12-.36.09-.49.2a4.89,4.89,0,0,1-2,.91,1.8,1.8,0,0,0-1.07.79.89.89,0,0,0-.14.55A11.18,11.18,0,0,0,.34,131c.1.07.29.13.32.23a5.94,5.94,0,0,0,.85,1.44,2.38,2.38,0,0,0,.49.56.37.37,0,0,0,.34,0,1.91,1.91,0,0,0,.4-.49c.15-.24.25-.5.4-.73s.44-.61.66-.91.42-.62.65-.91a6,6,0,0,1,.66-.77,7.51,7.51,0,0,0,.81-.66c.35-.46.89-.48,1.29-.71.06.09.08.17.14.21.36.27.74.53,1.09.81a6.6,6.6,0,0,0,.83.69,5.7,5.7,0,0,0,1.32.56,9.65,9.65,0,0,0,2.15.52,6,6,0,0,0,2.53-.23.59.59,0,0,1,.14,0,9.89,9.89,0,0,0,1.1-.3c.55-.23,1.07-.52,1.6-.78a3.26,3.26,0,0,0,.55-.31,11.14,11.14,0,0,0,.93-.89,1.54,1.54,0,0,0,.54-1c0-.4-.2-.83-.1-1.17.16-.51,0-1,.17-1.51s0-.75.12-1.11.27-.89.41-1.34.33-1,.51-1.47a5.12,5.12,0,0,1,.27-.52,5.27,5.27,0,0,1,.49-.91,10.34,10.34,0,0,1,1.53-1.71,1.83,1.83,0,0,1,1.09-.52c.05,0,.1-.11.16-.17l0-.12c.62.08,1.25.1,1.85.24a1.37,1.37,0,0,0,1.78-1c.09-.3.15-.6.22-.9s.25-.87.33-1.31a4.16,4.16,0,0,1,1.1-2.2,6.25,6.25,0,0,1,1.05-.86,6.62,6.62,0,0,1,1.25-.68c.54-.22,1.15-.3,1.7-.53a9.3,9.3,0,0,0,1.31-.79c.25-.16.48-.36.72-.55l.09.07a5.81,5.81,0,0,0-.24.78c-.11.74-.18,1.49-.29,2.22s-.25,1.32-.38,2-.25,1.36-.36,2-.15,1.12-.22,1.69-.09.86-.16,1.29-.2.87-.28,1.32c-.13.74-.25,1.48-.37,2.23-.08.51-.15,1-.22,1.55,0,.11,0,.22,0,.33-.12.45-.26.89-.35,1.34a10,10,0,0,0-.21,1.35,8.67,8.67,0,0,0,0,1.25c0,.34.29.32.51.26a5.5,5.5,0,0,1,1.71-.42c.39,0,.78-.11,1.18-.12s.88,0,1.33,0,.83-.06,1.25,0c.64,0,1.28.12,1.92.19a5.26,5.26,0,0,0,.53.15c.41,0,.82,0,1.22,0,.88.07,1.76.18,2.64.26.19,0,.4,0,.59,0,.89.09,1.78.24,2.67.29s2.06,0,3.1,0a1.93,1.93,0,0,0,.84,0,3.58,3.58,0,0,1,1.09-.25c.44-.09.89-.17,1.33-.29a6,6,0,0,0,1.07-.39,5.37,5.37,0,0,0,1-.64,9.1,9.1,0,0,0,1-.91,3.94,3.94,0,0,0,.65-.71,5.81,5.81,0,0,0,.45-1.16,17.43,17.43,0,0,0,.48-1.89,11.39,11.39,0,0,0,.11-1.54c0-.6,0-1.2,0-1.8,0-.29-.06-.57,0-.88a6.11,6.11,0,0,0-.25-1.36c0-.29-.06-.59-.11-.89-.13-.64-.28-1.28-.41-1.92-.06-.31-.41-.59-.62-.48l-.64.4a8.54,8.54,0,0,1-1,.6c-.3.13-.42.27-.31.61a5.55,5.55,0,0,1,.22,1.06,14.79,14.79,0,0,1,.14,2c0,.67-.19,1.33-.27,2A3.58,3.58,0,0,1,55.11,122a3.79,3.79,0,0,1-1.68,1,7.72,7.72,0,0,1-1.65.23A13.43,13.43,0,0,1,50,123c-.76-.11-1.51-.24-2.26-.37a8.85,8.85,0,0,1-1.16-.25c-.55-.16-1.1-.24-1.65-.44a25.82,25.82,0,0,0-3.07-.7c-.19,0-.37-.11-.56-.14-.49-.09-1-.16-1.48-.24a8.42,8.42,0,0,1,.15-1c.08-.28.25-.53.33-.81.17-.69.3-1.39.47-2.08s.34-1.47.53-2.2c.13-.47.3-.94.41-1.42.18-.77.31-1.55.5-2.32.14-.53.37-1,.52-1.58a17,17,0,0,1,.5-2,13.63,13.63,0,0,0,.54-2.33c.07-.3.1-.61.19-.9a8.45,8.45,0,0,0,.48-1.79.89.89,0,0,1,.24-.56c.42-.4.89-.74,1.33-1.11l1.19-1,1.24-1c.35-.28.71-.53,1-.82s.59-.6.91-.87.74-.59,1.1-.89c.2-.17.36-.37.56-.53.54-.45,1.1-.87,1.65-1.31.23-.18.46-.36.67-.55s.41-.44.64-.64c.42-.35.86-.68,1.29-1l1.29-1c.36-.29.72-.57,1.07-.87s.57-.55.87-.82.54-.42.8-.64.64-.56,1-.83c.51-.42,1.05-.82,1.55-1.25.7-.6,1.38-1.22,2.08-1.81.41-.36.86-.68,1.27-1s.66-.62,1-.91.56-.44.85-.66.62-.45.91-.7.61-.59.93-.87.54-.45.81-.67.82-.66,1.19-1c.22-.2.66-.3.44-.82A1.81,1.81,0,0,0,71.87,78.32ZM11,112.22A5.17,5.17,0,0,1,9,112.06a3.07,3.07,0,0,1-.8-.42c-.46-.26-.92-.5-1.36-.79a2.2,2.2,0,0,1-.51-.5,4.94,4.94,0,0,1-.64-.88,2.28,2.28,0,0,1-.23-1,5.94,5.94,0,0,1,.22-1.63,6.08,6.08,0,0,1,.66-1.16,2.29,2.29,0,0,0,.1-.23l.33-.42h0c.06-.12.13-.24.18-.36a2.23,2.23,0,0,1,.76-1c.31-.26.55-.6.85-.85s.67-.46,1-.7c.14-.09.25-.21.39-.29a6.15,6.15,0,0,1,2.36-.82,5.26,5.26,0,0,1,3.29.46,5.33,5.33,0,0,1,1.59,1.17,2.66,2.66,0,0,1,.65,2.44,6.19,6.19,0,0,1-.18,1,18.13,18.13,0,0,1-1,1.88c-.26.41-.61.76-.91,1.15a9.64,9.64,0,0,1-.63.9,13.89,13.89,0,0,1-1.41,1.24,3.94,3.94,0,0,1-.81.34c-.23.1-.44.23-.68.31A11.1,11.1,0,0,1,11,112.22Zm8.17,10.53a8.36,8.36,0,0,1-.09.86,5.21,5.21,0,0,1-.2.5,3.12,3.12,0,0,1-.25.85c-.24.34-.25.82-.66,1.07-.12.08-.13.31-.22.45A6.15,6.15,0,0,1,16.25,128a5.2,5.2,0,0,1-1.26.74,4.58,4.58,0,0,1-2.24.19,10.77,10.77,0,0,1-1.81-.64,3.5,3.5,0,0,1-.82-.64c-.19-.16-.38-.31-.56-.48a6.29,6.29,0,0,1-.74-.72,4.34,4.34,0,0,1-.42-.8,5.15,5.15,0,0,1-.36-.7c-.08-.22-.1-.46-.16-.69a3.82,3.82,0,0,1-.14-.56c0-.55,0-1.11,0-1.66a1.65,1.65,0,0,1,.15-.51h0c.07-.23.12-.46.2-.68.18-.47.36-1,.57-1.41a4.19,4.19,0,0,1,.45-.59c.24-.32.47-.64.72-1,.09-.1.24-.13.36-.21a9.46,9.46,0,0,1,1.09-.79,2.47,2.47,0,0,1,.92-.17c.53-.07,1.07-.12,1.6-.15a6.36,6.36,0,0,1,2.3.24,4.88,4.88,0,0,1,1.15.69,3.09,3.09,0,0,1,.88.71,9.6,9.6,0,0,1,.72,1.52,8.51,8.51,0,0,1,.43,2.29A5,5,0,0,1,19.19,122.75Zm10-16.08c0,.22-.06.44-.08.67-.05.64-.14,1.28-.13,1.92a3,3,0,0,1-.56,1.66,10.24,10.24,0,0,1-1.51,2,15.88,15.88,0,0,1-1.52,1.31,21.49,21.49,0,0,1-1.81,1.17,5.59,5.59,0,0,1-.91.37,5.31,5.31,0,0,1-1.14.34,12.2,12.2,0,0,1-1.6,0,3,3,0,0,1-.9-.11c-.49-.17-1-.41-1.45-.61-.32-.13-.63-.26-1-.38l-1-.35c-.34-.11-.7-.34-1-.29s-.5-.23-.78-.1l.22-.1a6.2,6.2,0,0,0,1.12-.57c.19-.15.24-.49.37-.73a8.75,8.75,0,0,1,.86-1.6c.34-.42.65-.88,1-1.27s.8-.68,1.19-1,.49-.54.78-.77.76-.53,1.14-.8c.19-.13.36-.29.56-.41l2-1.15a7.35,7.35,0,0,1,2.11-.63,11.68,11.68,0,0,1,2.89-.1,5.28,5.28,0,0,1,1.23.31C29.35,105.81,29.3,106.24,29.24,106.67Zm9.88-2.62a1.3,1.3,0,0,1-.76-.06,1.73,1.73,0,0,1-1-1.15,6.1,6.1,0,0,1-.22-1.24,2.19,2.19,0,0,1,.65-1.74,1.67,1.67,0,0,1,1.56-.24,2.13,2.13,0,0,1,1.14,1.87,2.16,2.16,0,0,1,0,.36A2.31,2.31,0,0,1,39.12,104.05Z"/><path class="cls-1" d="M38.33,100.63a1.26,1.26,0,0,0-.52,1.09,2.59,2.59,0,0,0,.2.75c.2.32.41.69.9.59s.56-.37.72-.73a1.64,1.64,0,0,0-.17-1.39A.75.75,0,0,0,38.33,100.63Z"/><path class="cls-1" d="M2.4,46.71a3.32,3.32,0,0,1,.56-.3A2.24,2.24,0,0,0,2.4,46.71Z"/><path class="cls-1" d="M1.85,47.17a4.19,4.19,0,0,1,.55-.46A3.93,3.93,0,0,0,1.85,47.17Z"/><path class="cls-1" d="M13.71,31.55a20.81,20.81,0,0,0,11.16-5.24A7.56,7.56,0,0,0,27.51,21a3.53,3.53,0,0,0-2.64-3.31,2.56,2.56,0,0,0-3.44,2.23c.66-1.2,1.63-2.17,2.63-1.91a4.28,4.28,0,0,1,.81.26c3,1.29,2.32,4.46,0,7.13a12.58,12.58,0,0,1-4.19,3.11,22.75,22.75,0,0,1-4.07,1.71,18.94,18.94,0,0,1-4.85.72c0,.21-.06.42-.07.63A13.74,13.74,0,0,0,13.71,31.55Z"/><path class="cls-1" d="M83.5,23.63c6.59-2.68,8-6.15,7.14-8.87,2.38-.82,4.17-2.18,4.17-3.56,0-1.09-.75-2.24-2.55-3.22a5.77,5.77,0,0,0,2.63-1.7C97.88.61,92.1-.25,84.13.05s-13.7,2.39-14,3c0,.05,0,.07.11.08h0c-.18.15.32.09,1.2-.08s1.86-.32,3.13-.55c1.92-.35,4.27-.75,6.65-1a3.68,3.68,0,0,1,.57-.06c1.35-.14,2.69-.23,4-.27h1c8.36.14,6.82,3.2,6.82,3.2C92.28,6.87,86.4,6.13,82.09,6.13l-.38,0c-1.75-.22-3.72-.6-5.8-1-6-1.39-15.13-3.78-25.7-4.76A33.93,33.93,0,0,0,32.38,3.45h0a12.92,12.92,0,0,0-3.87-1.18,16.66,16.66,0,0,0-3.64-.17A23.92,23.92,0,0,0,14.23,5.83C4.08,12,.23,22.52,4.68,28.55a8.46,8.46,0,0,0,6.56,3c0-.08,0-.18,0-.27s0-.25.05-.37A8.27,8.27,0,0,1,7,29.63c-5-3.35-3.5-12.7,2.44-18.5C14.35,6.29,19,3.27,24.87,3a19.51,19.51,0,0,1,2.95.06l.18,0c.37,0,.71.09,1.08.15a9.31,9.31,0,0,1,2.41.66L31.26,4c-1,.52-1.87,1-2.61,1.51l-.26.16a23.35,23.35,0,0,0-2.78,2.12C26.29,7.33,27,7,27.68,6.55A30.11,30.11,0,0,1,32.5,4.39a12.91,12.91,0,0,1,3.38,3.36l-1,.26c-.12,0-.25.05-.37.09a31.26,31.26,0,0,0-9.64,4l-1.07.66C21.12,14.44,12.24,23.09,11.3,31h.46a12.27,12.27,0,0,1,.38-2.15c1.26-4.59,7.28-12,12.73-15.8a15.76,15.76,0,0,1,1.46-.91,30,30,0,0,1,8.26-3.28c.59-.14,1.16-.25,1.72-.33-.05-.09-.08-.18-.12-.27a1.12,1.12,0,0,1,.14.26h0A14.62,14.62,0,0,1,37.62,12a19.3,19.3,0,0,0-2,.46l-.66.2c-.41.14-.78.28-1.14.44s-.62.26-.92.41a11.4,11.4,0,0,0-3.23,2.3,14.76,14.76,0,0,1,8.19-2.45,22.32,22.32,0,0,1-.16,7.18,27.22,27.22,0,0,1-5.39,11.62A22.13,22.13,0,0,1,27,37.37a23.8,23.8,0,0,1-2.12,1.3C16,43.43,11.38,38,11.69,31.58c-.14,0-.31,0-.45,0C11,35,12.42,40.12,16.75,40.93a15.39,15.39,0,0,0,8.12-.6C30.92,38.18,35.42,32.41,37.72,26A25.63,25.63,0,0,0,39,13.37c6.89.23,13.63,3.71,15.86,5a43.56,43.56,0,0,0-5.16,5.25c-.77.94-1.52,2-2.24,3-2.69,3.93-5.68,9-9.77,14.86-1.9,2.72-4,5.62-6.48,8.69a25.65,25.65,0,0,1-6.37,5.73,20.64,20.64,0,0,1-17,2.5C-.86,55.79-.4,49.76,1.44,47.59a4.14,4.14,0,0,1,.41-.42C-1.95,50.08.5,56.54,5.57,58.54c5.68,2.23,12.79,2.15,19.3.11a31.84,31.84,0,0,0,11.15-6,20.83,20.83,0,0,0,1.7-1.55c6.65-6.57,8.6-14.34,12-21.28.06-.11.12-.19.18-.31,1.93-3.9,3.52-7.27,6.38-10.39C63,22.67,76.84,26.34,83.5,23.63Zm5.34-9.88a29.52,29.52,0,0,1-7.08-.15c-2.45-.32-4.91-.83-7.19-1.28a30.84,30.84,0,0,1,8.71-.9C85.43,11.56,87.76,12.4,88.84,13.75ZM74.36,16.24l.18,0a43.64,43.64,0,0,0,7.22.54,19.76,19.76,0,0,0,7.68-1.5c0,1.12-.64,2.44-2.52,3.92a8.41,8.41,0,0,1-4,1.52c-.39,0-.78.09-1.15.11-1,.07-2,.07-3,.05a57.3,57.3,0,0,1-15.51-3.38c-.36-.2-1.58-.83-3.4-1.62.32-.25.65-.48,1-.73.78-.52,1.6-1,2.47-1.53,4.67,1.5,5.1,1.7,8.08,2.16C72.19,15.92,73.13,16,74.36,16.24Zm18-3.44a7.38,7.38,0,0,1-2.33.77,6.9,6.9,0,0,0-5.75-3.19c-5.39.15-8.1.8-9.39,1.34l-.39.11c-.38.11-.69.19-1,.28-.72-.15-1.44-.28-2.18-.46s-1.75-.4-2.64-.63c.86-.34,1.76-.69,2.64-1,1-.34,2.1-.66,3.13-.95A4.5,4.5,0,0,1,75,8.93a42,42,0,0,0,15.41-.41C94.06,9.65,94.45,11.61,92.4,12.8ZM33.46,4.07a38.46,38.46,0,0,1,13-1.7A113.14,113.14,0,0,1,65.09,5.85L70,7.3c1.59.52,2.71.93,3.22,1.14.12.05.28.09.43.14-.73.21-1.47.43-2.24.69-1.26.41-2.55.89-3.93,1.44-2.09-.52-4.33-1.09-6.62-1.75L57.42,8A36.38,36.38,0,0,0,49.73,6.6a47.18,47.18,0,0,0-11.16.61l-.82.17h0l-.87.17A9.83,9.83,0,0,0,33.46,4.07Zm4.89,6.49A14.32,14.32,0,0,0,37.72,9l-.09-.14h0l-.32-.58.38,0c.28,0,.6-.07.92-.09a32.79,32.79,0,0,1,11.09,1.2c2.84.75,5.33,1.7,7.43,2.33,1.41.43,2.64.8,3.7,1.15.46.14.88.28,1.29.39L60.86,14c-.73.42-1.44.91-2.15,1.41a49.58,49.58,0,0,0-16.32-3.8,22.25,22.25,0,0,0-3.66.18C38.62,11.39,38.49,11,38.35,10.56Z"/><path class="cls-1" d="M61.91,48.56H66v-2H61.45v-2H59.32v2h-5v2h4.37a20.33,20.33,0,0,1-5,6.22l1.85,1.35a19.76,19.76,0,0,0,3.78-4.81v7.47h2.13V50.86q1.92,2.1,3.32,3.92l1.64-1.51C65,51.62,63.46,50,61.91,48.56Z"/><path class="cls-1" d="M66.77,38.73,64.88,38a31.22,31.22,0,0,1-2.56,5.94l1.84.87A28.72,28.72,0,0,0,66.77,38.73Z"/><path class="cls-1" d="M65.16,56.8l1.15,2.05a28.43,28.43,0,0,0,11.74-8.91l.24-.28-1.74-1.38A23.77,23.77,0,0,1,65.16,56.8Z"/><path class="cls-1" d="M68.41,49.07q4.09-1.24,8.83-5.76l-1.59-1.58a21.94,21.94,0,0,1-8.44,5.4Z"/><path class="cls-1" d="M55.84,44.54l1.95-.66a23.94,23.94,0,0,0-1.84-5l-1.9.74A31.67,31.67,0,0,1,55.84,44.54Z"/><path class="cls-1" d="M59.45,43.06l2,0c0-.82-.18-2.34-.49-4.55l-2,.18A37.2,37.2,0,0,1,59.45,43.06Z"/><path class="cls-1" d="M66.13,34.59a63.7,63.7,0,0,1-11.62,1.15l.34,2.1a55,55,0,0,0,11.66-1.15Z"/><path class="cls-1" d="M75,34.66a20.73,20.73,0,0,1-7.83,5l1.2,1.94a22.48,22.48,0,0,0,8.21-5.35Z"/><path class="cls-1" d="M103,38.15l-1.59-1.41a37.64,37.64,0,0,1-2.86,3.5l-1.62-1.15c.79-.76,1.68-1.71,2.66-2.83l-1.48-1.49a39,39,0,0,1-2.76,3c-.63-.62-1.24-1.27-1.82-2a.79.79,0,0,0-.61-.43H84.79v2h5.07a25.5,25.5,0,0,1-3.38,2.44c-1.33-1-2.52-1.86-3.56-2.51L81.67,39c.63.4,1.57,1,2.81,1.89a30.1,30.1,0,0,1-4.25,1.68l1.15,2q5.25-1.55,11.32-7a22.77,22.77,0,0,0,10.67,6.89l1.07-2a17.38,17.38,0,0,1-4-1.28C101.08,40.5,101.94,39.48,103,38.15Z"/><rect class="cls-1" x="87.58" y="41.73" width="9.65" height="2.02"/><path class="cls-1" d="M98.27,52.45h2.64a.49.49,0,0,0,.56-.56v-6c0-.36-.18-.53-.56-.53H83.71a.47.47,0,0,0-.54.53v6c0,.38.18.56.54.56h2.18l1.28,3.92H81.23v2h21.93v-2H97Zm-12.9-2-.07-.13V47.44l.07-.1H99.25l.1.1V50.3l-.1.13Zm9.4,5.94H89.4l-1.29-3.92h7.94Z"/><path class="cls-1" d="M111.56,43a21.38,21.38,0,0,0-4.28-2.53l-1.1,2a24.07,24.07,0,0,1,4.15,2.45Z"/><path class="cls-1" d="M112.17,37.66a21.92,21.92,0,0,0-4.27-2.54l-1.1,2a23.93,23.93,0,0,1,4.14,2.46Z"/><path class="cls-1" d="M114.32,55.93a4.32,4.32,0,0,1-1.64-1.13,3.2,3.2,0,0,1-.92-1.46V47.2a.5.5,0,0,0-.56-.56h-4.45v2.23h2.5c.17,0,.27.1.29.3v4.56a4.39,4.39,0,0,1-.67,1.61A6.3,6.3,0,0,1,106.18,57l1.08,2a7.3,7.3,0,0,0,2.22-1.33,5.6,5.6,0,0,0,1.44-1.77c1.19,1.8,4,2.7,8.36,2.72q4.95,0,10.45.05l.53-2.51Q116.88,56.78,114.32,55.93Z"/><path class="cls-1" d="M114.4,46.79v7.35a.28.28,0,0,0,.31.31H128.6a.28.28,0,0,0,.31-.31V46.79a.27.27,0,0,0-.31-.3H114.71C114.5,46.49,114.4,46.59,114.4,46.79Zm2.12,1.9.07-.08h10.09l.1.08v3.53l-.1.1H116.59l-.07-.1Z"/><path class="cls-1" d="M113.22,42.06a12.83,12.83,0,0,0,2.23-2.66h4.93v3.1h-7.21v2.12H130V42.5h-7.37V39.4h6.76V37.27h-6.76V34.82h-2.23v2.45H116.5c.22-.62.42-1.3.61-2l-2.18-.48a12.78,12.78,0,0,1-1.28,3.3,12.58,12.58,0,0,1-2.12,2.48Z"/><rect class="cls-1" x="148.33" y="36.45" width="2.22" height="9.34"/><polygon class="cls-1" points="145.54 53.63 154.14 53.63 154.14 51.5 145.54 51.5 145.54 49.66 143.32 49.66 143.32 51.5 135.18 51.5 135.18 53.63 143.32 53.63 143.32 56.06 132.93 56.06 132.93 58.28 156.19 58.28 156.19 56.06 145.54 56.06 145.54 53.63"/><path class="cls-1" d="M132.33,48.71l1.82,1.59a9.87,9.87,0,0,0,4-6.4h3.45v5.38h2.23V43.9h3.28V41.78H143.8v-4h2.87V35.63H133.44v2.13h2.81v3.12c0,.31,0,.61-.05.9h-3.38V43.9h3.05A8.17,8.17,0,0,1,132.33,48.71Zm6.15-7.83V37.76h3.09v4h-3.14C138.45,41.47,138.46,41.18,138.48,40.88Z"/><path class="cls-1" d="M148.87,49.86c2.73.62,4.6.59,5.63-.07a2.6,2.6,0,0,0,1.18-2.26V34.92h-2.23V47a1,1,0,0,1-.23.74,1.43,1.43,0,0,1-.92.41,9.75,9.75,0,0,1-1.38-.1c-.43-.07-1.14-.22-2.13-.47Z"/><polygon class="cls-1" points="166.8 52.4 162.91 52.4 162.91 46.14 160.97 46.14 160.97 58.8 162.91 58.8 162.91 53.18 166.8 53.18 166.8 58.8 168.74 58.8 168.74 46.14 166.8 46.14 166.8 52.4"/><path class="cls-1" d="M177.7,51.52a3.3,3.3,0,0,0-1.34-.84,5.73,5.73,0,0,0-2-.3,5.18,5.18,0,0,0-1.88.3,3.21,3.21,0,0,0-1.28.84,3.44,3.44,0,0,0-.76,1.32,5.46,5.46,0,0,0,0,3.51,3.52,3.52,0,0,0,.76,1.32,3.2,3.2,0,0,0,1.28.83,5.42,5.42,0,0,0,1.88.29,3.29,3.29,0,0,0,.71-.08,1.84,1.84,0,0,0,.61-.27,2.5,2.5,0,0,0,.56-.53,4.93,4.93,0,0,0,.56-.86v1.74h1.95v-4.2a6.23,6.23,0,0,0-.28-1.75A3.36,3.36,0,0,0,177.7,51.52Zm-.88,2.8a4.46,4.46,0,0,1-.64,2.6,1.93,1.93,0,0,1-1.72.87,3.22,3.22,0,0,1-1-.11,1.77,1.77,0,0,1-.75-.47,2.39,2.39,0,0,1-.49-.91,5.73,5.73,0,0,1-.16-1.42v-.59a5.73,5.73,0,0,1,.16-1.42,2.34,2.34,0,0,1,.49-.9,1.62,1.62,0,0,1,.75-.48,2.92,2.92,0,0,1,1-.11,2.75,2.75,0,0,1,1,.12,1.86,1.86,0,0,1,.75.48,2.52,2.52,0,0,1,.48.91,5,5,0,0,1,.16,1.4Z"/><rect class="cls-1" x="180.53" y="50.32" width="1.94" height="8.45"/><path class="cls-1" d="M181.46,46.17a1.19,1.19,0,0,0-.89.37,1.25,1.25,0,0,0-.36.9,1.21,1.21,0,0,0,.36.88,1.19,1.19,0,0,0,.89.38l.44-.11.42-.27.29-.41.11-.47a1.22,1.22,0,0,0-.37-.9A1.19,1.19,0,0,0,181.46,46.17Z"/><path class="cls-1" d="M189.1,50.37a5.13,5.13,0,0,0-3.67,1.19,4.2,4.2,0,0,0-1.28,3.24v4h1.94V54.12a3.21,3.21,0,0,1,.26-1.4,2.56,2.56,0,0,1,.68-.91,2.64,2.64,0,0,1,.95-.47,3.1,3.1,0,0,1,1-.13h.42l.42,0v-.88h-.76Z"/><path class="cls-1" d="M204.82,53.64a3.59,3.59,0,0,0-.7-.83,3.53,3.53,0,0,0-1-.64l-2.49-1.05a6.47,6.47,0,0,1-.88-.42,3.76,3.76,0,0,1-.73-.51,3.27,3.27,0,0,1-.51-.57l-.19-.57a1.48,1.48,0,0,1,.18-.8,1.9,1.9,0,0,1,.55-.58,2.32,2.32,0,0,1,.8-.35,5,5,0,0,1,.94-.15c.57.09,1,.17,1.43.26a8.7,8.7,0,0,1,1.05.28,7.27,7.27,0,0,1,.82.34,6,6,0,0,1,.76.45q.1-.82.24-1.47a12.4,12.4,0,0,0-2.28-.65,13.62,13.62,0,0,0-2.39-.19,5.34,5.34,0,0,0-2.87.85,2.82,2.82,0,0,0-1,2.4,2.69,2.69,0,0,0,.63,1.79,4.31,4.31,0,0,0,2,1.33l2.66.95a2.18,2.18,0,0,1,.75.47,2.26,2.26,0,0,1,.47.62,2.9,2.9,0,0,1,.26.67,2.22,2.22,0,0,1,.09.57,2,2,0,0,1-.17.94,1.33,1.33,0,0,1-.52.58,2,2,0,0,1-.77.31,4.86,4.86,0,0,1-1,.09c-.4,0-.79,0-1.16-.08a6.84,6.84,0,0,1-1-.22,5.6,5.6,0,0,1-1-.37,4.21,4.21,0,0,1-.88-.61c0,.27-.09.53-.12.79s-.08.49-.12.69q1.13.36,2.25.6a10.9,10.9,0,0,0,2.28.24,5.39,5.39,0,0,0,1.58-.22,3.88,3.88,0,0,0,1.28-.66,3.62,3.62,0,0,0,.88-1,3.44,3.44,0,0,0,.36-1.39,5,5,0,0,0-.09-.93A3.41,3.41,0,0,0,204.82,53.64Z"/><path class="cls-1" d="M214.09,51.52a3.37,3.37,0,0,0-1.34-.84,5.77,5.77,0,0,0-2-.3,5.28,5.28,0,0,0-1.89.3,3.36,3.36,0,0,0-1.28.84,3.56,3.56,0,0,0-.75,1.32,5.46,5.46,0,0,0,0,3.51,3.64,3.64,0,0,0,.75,1.32,3.34,3.34,0,0,0,1.28.83,5.52,5.52,0,0,0,1.89.29,3.13,3.13,0,0,0,.7-.08,1.68,1.68,0,0,0,.61-.27,2.76,2.76,0,0,0,.57-.53,5.58,5.58,0,0,0,.56-.86v1.74h2v-4.2a6.61,6.61,0,0,0-.28-1.75A3.36,3.36,0,0,0,214.09,51.52Zm-.88,2.8a4.54,4.54,0,0,1-.64,2.6,1.93,1.93,0,0,1-1.71.87,3.36,3.36,0,0,1-1-.11,1.74,1.74,0,0,1-.74-.47,2.39,2.39,0,0,1-.49-.91,5.29,5.29,0,0,1-.16-1.42v-.59a5.29,5.29,0,0,1,.16-1.42,2.34,2.34,0,0,1,.49-.9,1.59,1.59,0,0,1,.74-.48,3,3,0,0,1,1-.11,2.64,2.64,0,0,1,.95.12,1.83,1.83,0,0,1,.76.48,2.52,2.52,0,0,1,.48.91,5,5,0,0,1,.16,1.4Z"/><path class="cls-1" d="M219.49,57.1a2.64,2.64,0,0,1-.63-.9,3.38,3.38,0,0,1-.24-1.36v-8.7h-1.93v8.18a4.23,4.23,0,0,0,1.2,3.2,4.8,4.8,0,0,0,3.37,1.24v-1a3,3,0,0,1-.92-.17A2.2,2.2,0,0,1,219.49,57.1Z"/><path class="cls-1" d="M229.15,51.67a3.81,3.81,0,0,0-1.28-.93,4.49,4.49,0,0,0-1.89-.36,5,5,0,0,0-2,.36,3.69,3.69,0,0,0-1.34.93,3.75,3.75,0,0,0-.78,1.34,5.19,5.19,0,0,0-.27,1.58,5.53,5.53,0,0,0,.29,1.6,3.88,3.88,0,0,0,.77,1.34,3.72,3.72,0,0,0,1.34.92,5.32,5.32,0,0,0,2,.34,4.92,4.92,0,0,0,1.9-.34,3.56,3.56,0,0,0,1.28-.9,3.73,3.73,0,0,0,.76-1.33,6.25,6.25,0,0,0,.27-1.63,5.52,5.52,0,0,0-.28-1.58A3.86,3.86,0,0,0,229.15,51.67Zm-.9,3.21a5.29,5.29,0,0,1-.16,1.42,2.25,2.25,0,0,1-.48.91,1.84,1.84,0,0,1-.75.47,3.29,3.29,0,0,1-1,.11,2.94,2.94,0,0,1-1-.12,1.86,1.86,0,0,1-.75-.48,2.18,2.18,0,0,1-.48-.91,4.65,4.65,0,0,1-.17-1.4v-.59a4.65,4.65,0,0,1,.17-1.4,2.25,2.25,0,0,1,.48-.91,1.86,1.86,0,0,1,.75-.48,2.69,2.69,0,0,1,1-.12,3,3,0,0,1,1,.11,1.67,1.67,0,0,1,.75.48,2.2,2.2,0,0,1,.48.9,5.29,5.29,0,0,1,.16,1.42Z"/><path class="cls-1" d="M239.05,51.63a3.35,3.35,0,0,0-1.29-.89,5.44,5.44,0,0,0-1.92-.31,4,4,0,0,0-3.13,1.19,4.63,4.63,0,0,0-1.08,3.24v3.91h1.93V54.34a5.26,5.26,0,0,1,.17-1.42,2.46,2.46,0,0,1,.49-.91,1.74,1.74,0,0,1,.74-.47,3,3,0,0,1,1-.11,2.28,2.28,0,0,1,.93.13,1.44,1.44,0,0,1,.67.47,2.28,2.28,0,0,1,.41.9,6.26,6.26,0,0,1,.13,1.41v4.43H240V54.86a6.91,6.91,0,0,0-.23-1.84A3.47,3.47,0,0,0,239.05,51.63Z"/></svg>