<?xml version="1.0" encoding="utf-8"?>
<!-- Generator: Adobe Illustrator 24.0.1, SVG Export Plug-In . SVG Version: 6.00 Build 0)  -->
<svg version="1.1" id="圖層_1" xmlns="http://www.w3.org/2000/svg" xmlns:xlink="http://www.w3.org/1999/xlink" x="0px" y="0px"
	 viewBox="0 0 605 393.9" style="enable-background:new 0 0 605 393.9;" xml:space="preserve">
<style type="text/css">
	.st0{fill:url(#Oval_2_);}
	.st1{fill:#E4ECFF;}
	.st2{fill:#2F3043;}
	.st3{fill:#DC70B9;}
	.st4{fill:#6177EE;}
</style>
<title>grap02</title>
<g id="Design">
	<g id="_x30_3_x5F_service" transform="translate(-932.000000, -1786.000000)">
		<g id="grap02" transform="translate(932.000000, 1786.000000)">
			
				<linearGradient id="Oval_2_" gradientUnits="userSpaceOnUse" x1="124.7733" y1="-252.7548" x2="125.2164" y2="-252.5453" gradientTransform="matrix(116 0 0 116 -14086 29543.998)">
				<stop  offset="0" style="stop-color:#FFB7DC"/>
				<stop  offset="1" style="stop-color:#85AEFF"/>
			</linearGradient>
			<circle id="Oval" class="st0" cx="421.5" cy="240.4" r="29.8"/>
			<circle id="Oval_1_" class="st1" cx="574.8" cy="443.1" r="213.5"/>
			<path id="Combined-Shape" class="st2" d="M426.1,317c0,11-9,20-20,20s-20-9-20-20l0,0H426.1z"/>
			<path id="Star" class="st3" d="M557.4,205.9l-2.4,1.2c-0.8,0.4-1.7,0.1-2.2-0.7c-0.2-0.3-0.2-0.7-0.2-1l0.5-2.7
				c0.1-0.5-0.1-1.1-0.5-1.4l-2-1.9c-0.6-0.6-0.7-1.6-0.1-2.3c0.3-0.3,0.6-0.4,0.9-0.5l2.7-0.4c0.5-0.1,1-0.4,1.2-0.9l1.2-2.4
				c0.4-0.8,1.4-1.1,2.2-0.7c0.3,0.2,0.6,0.4,0.7,0.7l1.2,2.4c0.3,0.5,0.7,0.8,1.2,0.9l2.7,0.4c0.9,0.2,1.5,0.9,1.4,1.8
				c-0.1,0.4-0.2,0.7-0.5,0.9l-2,1.9c-0.4,0.4-0.6,0.9-0.5,1.4l0.5,2.7c0.2,0.9-0.5,1.7-1.3,1.8c-0.4,0.1-0.7,0-1-0.2l-2.4-1.2
				C558.4,205.6,557.9,205.6,557.4,205.9z"/>
			<path id="Polygon" class="st4" d="M566.1,346.6l8.1,5.9c1.1,0.8,1.5,2.2,1.1,3.4l-3.1,9.5c-0.4,1.3-1.6,2.1-2.9,2.1h-10
				c-1.3,0-2.5-0.9-2.9-2.1l-3.1-9.5c-0.4-1.3,0.1-2.7,1.1-3.4l8.1-5.9C563.6,345.7,565,345.7,566.1,346.6z"/>
		</g>
	</g>
</g>
</svg>
