<?xml version="1.0" encoding="utf-8"?>
<!-- Generator: Adobe Illustrator 24.0.1, SVG Export Plug-In . SVG Version: 6.00 Build 0)  -->
<svg version="1.1" id="圖層_1" xmlns="http://www.w3.org/2000/svg" xmlns:xlink="http://www.w3.org/1999/xlink" x="0px" y="0px"
	 viewBox="0 0 605 393.9" style="enable-background:new 0 0 605 393.9;" xml:space="preserve">
<style type="text/css">
	.st0{fill:url(#Oval_2_);}
	.st1{fill:#E4ECFF;}
	.st2{fill:#2F3043;}
	.st3{fill:#DC70B9;}
	.st4{fill:#6177EE;}
</style>
<title>grap02</title>
<g id="Design">
	<g id="_x30_3_x5F_service" transform="translate(-932.000000, -1786.000000)">
		<g id="grap02" transform="translate(932.000000, 1786.000000)">
			
				<linearGradient id="Oval_2_" gradientUnits="userSpaceOnUse" x1="116.9166" y1="873.9332" x2="117.7788" y2="873.5257" gradientTransform="matrix(116 0 0 -116 -13511 101443.2109)">
				<stop  offset="0" style="stop-color:#FFB7DC"/>
				<stop  offset="1" style="stop-color:#85AEFF"/>
			</linearGradient>
			<circle id="Oval" class="st0" cx="117" cy="98" r="58"/>
			<circle id="Oval_1_" class="st1" cx="415.5" cy="492.5" r="415.5"/>
			<path id="Combined-Shape" class="st2" d="M126,247c0,21.5-17.5,39-39,39s-39-17.5-39-39l0,0H126z"/>
			<path id="Star" class="st3" d="M381.5,30.8l-4.6,2.4c-1.5,0.8-3.4,0.2-4.3-1.3c-0.3-0.6-0.4-1.3-0.3-2l0.9-5.2
				c0.2-1-0.2-2.1-0.9-2.8l-3.8-3.7c-1.2-1.2-1.3-3.2-0.1-4.5c0.5-0.5,1.1-0.8,1.8-0.9l5.2-0.8c1-0.1,1.9-0.8,2.4-1.7l2.3-4.7
				c0.8-1.6,2.7-2.2,4.2-1.4c0.6,0.3,1.1,0.8,1.4,1.4l2.3,4.7c0.5,0.9,1.3,1.6,2.4,1.7l5.2,0.8c1.7,0.3,2.9,1.8,2.7,3.6
				c-0.1,0.7-0.4,1.3-0.9,1.8l-3.8,3.7c-0.7,0.7-1.1,1.8-0.9,2.8l0.9,5.2c0.3,1.7-0.9,3.3-2.6,3.6c-0.7,0.1-1.4,0-2-0.3l-4.6-2.4
				C383.5,30.3,382.5,30.3,381.5,30.8z"/>
			<path id="Polygon" class="st4" d="M398.5,304.6l15.8,11.5c2.1,1.5,3,4.2,2.2,6.7l-6,18.5c-0.8,2.5-3.1,4.1-5.7,4.1h-19.5
				c-2.6,0-4.9-1.7-5.7-4.1l-6-18.5c-0.8-2.5,0.1-5.2,2.2-6.7l15.8-11.5C393.6,303,396.4,303,398.5,304.6z"/>
		</g>
	</g>
</g>
</svg>
