<?xml version="1.0" encoding="UTF-8"?>
<svg width="1066px" height="878px" viewBox="0 0 1066 878" version="1.1" xmlns="http://www.w3.org/2000/svg" xmlns:xlink="http://www.w3.org/1999/xlink">
    <title>grap01</title>
    <defs>
        <linearGradient x1="0%" y1="37.5%" x2="100%" y2="62.5%" id="linearGradient-1">
            <stop stop-color="#FFB7DC" offset="0%"></stop>
            <stop stop-color="#85AEFF" offset="100%"></stop>
        </linearGradient>
    </defs>
    <g id="Design" stroke="none" stroke-width="1" fill="none" fill-rule="evenodd">
        <g id="02_about" transform="translate(-706.000000, -795.000000)" fill-rule="nonzero">
            <g id="grap01" transform="translate(706.000000, 795.000000)">
                <circle id="Oval" fill="#F5B7D9" cx="176" cy="94" r="72"></circle>
                <circle id="Oval" fill="#E4ECFF" cx="650.5" cy="415.5" r="415.5"></circle>
                <path d="M164,143 C164,188.287349 127.287349,225 82,225 C36.7126505,225 0,188.287349 0,143 L0,143 Z" id="Combined-Shape" fill="url(#linearGradient-1)"></path>
                <path d="M388.526712,556.562306 L400.494419,565.257354 C402.597343,566.785218 403.477292,569.493422 402.674046,571.965558 L398.102789,586.034442 C397.299543,588.506578 394.995807,590.18034 392.39645,590.18034 L377.60355,590.18034 C375.004193,590.18034 372.700457,588.506578 371.897211,586.034442 L367.325954,571.965558 C366.522708,569.493422 367.402657,566.785218 369.505581,565.257354 L381.473288,556.562306 C383.576213,555.034442 386.423787,555.034442 388.526712,556.562306 Z" id="Polygon" fill="#DC70B9"></path>
                <path d="M349.534175,860.77063 L335.489168,868.154527 C333.949308,868.964079 332.044732,868.372048 331.23518,866.832187 C330.912812,866.219007 330.80157,865.516657 330.918677,864.833871 L333.601035,849.194526 C333.776295,848.172684 333.437517,847.130034 332.695106,846.406362 L321.332456,835.330516 C320.086683,834.116187 320.061192,832.12188 321.275521,830.876107 C321.759073,830.380033 322.392672,830.057199 323.078228,829.957581 L338.781024,827.675832 C339.807011,827.526747 340.693942,826.882354 341.152778,825.952652 L348.175281,811.723505 C348.945212,810.163456 350.834033,809.522938 352.394082,810.292868 C353.015302,810.599459 353.518128,811.102285 353.824719,811.723505 L360.847222,825.952652 C361.306058,826.882354 362.192989,827.526747 363.218976,827.675832 L378.921772,829.957581 C380.643388,830.207747 381.836235,831.806192 381.586069,833.527808 C381.486452,834.213365 381.163617,834.846964 380.667544,835.330516 L369.304894,846.406362 C368.562483,847.130034 368.223705,848.172684 368.398965,849.194526 L371.081323,864.833871 C371.37541,866.548531 370.223808,868.176942 368.509148,868.471029 C367.826362,868.588136 367.124012,868.476895 366.510832,868.154527 L352.465825,860.77063 C351.548154,860.288182 350.451846,860.288182 349.534175,860.77063 Z" id="Star" fill="#6177EE"></path>
            </g>
        </g>
    </g>
</svg>