<?xml version="1.0" encoding="UTF-8"?>
<svg width="48px" height="48px" viewBox="0 0 48 48" version="1.1" xmlns="http://www.w3.org/2000/svg" xmlns:xlink="http://www.w3.org/1999/xlink">
    <title>icon02</title>
    <defs>
        <linearGradient x1="0%" y1="0%" x2="100%" y2="100%" id="linearGradient-1">
            <stop stop-color="#FFB7DC" offset="0%"></stop>
            <stop stop-color="#85AEFF" offset="100%"></stop>
        </linearGradient>
        <path d="M27,1.73205081 L41.7846097,10.2679492 C43.6410162,11.339746 44.7846097,13.3205081 44.7846097,15.4641016 L44.7846097,32.5358984 C44.7846097,34.6794919 43.6410162,36.660254 41.7846097,37.7320508 L27,46.2679492 C25.1435935,47.339746 22.8564065,47.339746 21,46.2679492 L6.21539031,37.7320508 C4.35898385,36.660254 3.21539031,34.6794919 3.21539031,32.5358984 L3.21539031,15.4641016 C3.21539031,13.3205081 4.35898385,11.339746 6.21539031,10.2679492 L21,1.73205081 C22.8564065,0.660254038 25.1435935,0.660254038 27,1.73205081 Z" id="path-2"></path>
    </defs>
    <g id="Design" stroke="none" stroke-width="1" fill="none" fill-rule="evenodd">
        <g id="05_store" transform="translate(-135.000000, -1646.000000)" fill-rule="nonzero">
            <g id="Group-10" transform="translate(135.000000, 1510.000000)">
                <g id="icon02" transform="translate(0.000000, 136.000000)">
                    <g id="Polygon">
                        <use fill="#FFB9D1" xlink:href="#path-2"></use>
                        <path stroke="#99AFF9" stroke-width="0.75" d="M21.1875,2.05681033 C22.9278811,1.05200086 25.0721189,1.05200086 26.8125,2.05681033 L26.8125,2.05681033 L41.5971097,10.5927087 C43.3374907,11.5975182 44.4096097,13.4544827 44.4096097,15.4641016 L44.4096097,15.4641016 L44.4096097,32.5358984 C44.4096097,34.5455173 43.3374907,36.4024818 41.5971097,37.4072913 L41.5971097,37.4072913 L26.8125,45.9431897 C25.9423095,46.4455944 24.9711547,46.6967968 24,46.6967968 C23.0288453,46.6967968 22.0576905,46.4455944 21.1875,45.9431897 L21.1875,45.9431897 L6.40289031,37.4072913 C5.53269978,36.9048865 4.82957478,36.1894431 4.34399741,35.3483984 C3.85842004,34.5073537 3.59039031,33.5407079 3.59039031,32.5358984 L3.59039031,32.5358984 L3.59039031,15.4641016 C3.59039031,13.4544827 4.66250925,11.5975182 6.40289031,10.5927087 L6.40289031,10.5927087 Z" stroke-linejoin="square" fill="url(#linearGradient-1)" fill-rule="evenodd"></path>
                    </g>
                    <path d="M24,12.8 C18.69888,12.8 14.4,16.902 14.4,21.9606667 C14.4,27.0986667 18.6,30.6108 24,35.2 C29.4,30.6108 33.6,27.0986667 33.6,21.9606667 C33.6,16.902 29.30112,12.8 24,12.8 Z M24,29.6 C19.75776,29.6 16.32,26.2568 16.32,22.1333333 C16.32,18.0098667 19.75776,14.6666667 24,14.6666667 C28.24224,14.6666667 31.68,18.0098667 31.68,22.1333333 C31.68,26.2568 28.24224,29.6 24,29.6 Z" id="Shape" fill="#FFFFFF"></path>
                </g>
            </g>
        </g>
    </g>
</svg>