<?xml version="1.0" encoding="UTF-8"?>
<svg width="55px" height="55px" viewBox="0 0 55 55" version="1.1" xmlns="http://www.w3.org/2000/svg" xmlns:xlink="http://www.w3.org/1999/xlink">
    <title>icon_q</title>
    <defs>
        <linearGradient x1="0%" y1="0%" x2="100%" y2="100%" id="linearGradient-1">
            <stop stop-color="#FFB7DC" offset="0%"></stop>
            <stop stop-color="#85AEFF" offset="100%"></stop>
        </linearGradient>
    </defs>
    <g id="Symbols" stroke="none" stroke-width="1" fill="none" fill-rule="evenodd">
        <g id="icon_q">
            <circle id="Oval-Copy-2" fill="url(#linearGradient-1)" cx="27.5" cy="27.5" r="27.5"></circle>
            <path d="M36.875,39.828125 L38.4375,37.9375 L35.28125,35.484375 C36.59375,34.171875 37.5260417,32.4739583 38.078125,30.390625 C38.4427083,29.0260417 38.625,27.6041667 38.625,26.125 C38.625,22.9583333 37.8645833,20.359375 36.34375,18.328125 C34.3958333,15.7239583 31.3958333,14.421875 27.34375,14.421875 C23.46875,14.421875 20.5416667,15.8385417 18.5625,18.671875 C17.0208333,20.8802083 16.25,23.5364583 16.25,26.640625 C16.25,30.0572917 17.140625,32.9010417 18.921875,35.171875 C20.9427083,37.5052083 23.734375,38.671875 27.296875,38.671875 C28.4739583,38.671875 29.5598958,38.53125 30.5546875,38.25 C31.5494792,37.96875 32.4739583,37.59375 33.328125,37.125 L33.328125,37.125 L36.875,39.828125 Z M27.671875,35.890625 C24.984375,35.890625 22.9453125,35.0729167 21.5546875,33.4375 C20.1640625,31.8020833 19.46875,29.6041667 19.46875,26.84375 C19.46875,23.5625 20.1927083,21.1328125 21.640625,19.5546875 C23.0885417,17.9765625 25.0520833,17.1875 27.53125,17.1875 C29.9791667,17.1875 31.9088542,18.0104167 33.3203125,19.65625 C34.7317708,21.3020833 35.4375,23.4739583 35.4375,26.171875 C35.4375,27.4010417 35.2682292,28.6875 34.9296875,30.03125 C34.5911458,31.375 33.9479167,32.5885417 33,33.671875 L33,33.671875 L30,31.34375 L28.4375,33.265625 L30.953125,35.234375 C30.5364583,35.4947917 30.046875,35.6692708 29.484375,35.7578125 C28.921875,35.8463542 28.3177083,35.890625 27.671875,35.890625 Z" id="Q" fill="#FFFFFF" fill-rule="nonzero"></path>
        </g>
    </g>
</svg>