<?xml version="1.0" encoding="UTF-8"?>
<svg width="48px" height="48px" viewBox="0 0 48 48" version="1.1" xmlns="http://www.w3.org/2000/svg" xmlns:xlink="http://www.w3.org/1999/xlink">
    <title>icon01</title>
    <defs>
        <linearGradient x1="0%" y1="0%" x2="100%" y2="100%" id="linearGradient-1">
            <stop stop-color="#FFB7DC" offset="0%"></stop>
            <stop stop-color="#85AEFF" offset="100%"></stop>
        </linearGradient>
        <path d="M27,1.73205081 L41.7846097,10.2679492 C43.6410162,11.339746 44.7846097,13.3205081 44.7846097,15.4641016 L44.7846097,32.5358984 C44.7846097,34.6794919 43.6410162,36.660254 41.7846097,37.7320508 L27,46.2679492 C25.1435935,47.339746 22.8564065,47.339746 21,46.2679492 L6.21539031,37.7320508 C4.35898385,36.660254 3.21539031,34.6794919 3.21539031,32.5358984 L3.21539031,15.4641016 C3.21539031,13.3205081 4.35898385,11.339746 6.21539031,10.2679492 L21,1.73205081 C22.8564065,0.660254038 25.1435935,0.660254038 27,1.73205081 Z" id="path-2"></path>
    </defs>
    <g id="Design" stroke="none" stroke-width="1" fill="none" fill-rule="evenodd">
        <g id="05_store" transform="translate(-135.000000, -1578.000000)">
            <g id="Group-10" transform="translate(135.000000, 1510.000000)">
                <g id="icon01" transform="translate(0.000000, 68.000000)">
                    <g id="Polygon-Copy" fill-rule="nonzero">
                        <use fill="#FFB9D1" xlink:href="#path-2"></use>
                        <path stroke="#99AFF9" stroke-width="0.75" d="M21.1875,2.05681033 C22.9278811,1.05200086 25.0721189,1.05200086 26.8125,2.05681033 L26.8125,2.05681033 L41.5971097,10.5927087 C43.3374907,11.5975182 44.4096097,13.4544827 44.4096097,15.4641016 L44.4096097,15.4641016 L44.4096097,32.5358984 C44.4096097,34.5455173 43.3374907,36.4024818 41.5971097,37.4072913 L41.5971097,37.4072913 L26.8125,45.9431897 C25.9423095,46.4455944 24.9711547,46.6967968 24,46.6967968 C23.0288453,46.6967968 22.0576905,46.4455944 21.1875,45.9431897 L21.1875,45.9431897 L6.40289031,37.4072913 C5.53269978,36.9048865 4.82957478,36.1894431 4.34399741,35.3483984 C3.85842004,34.5073537 3.59039031,33.5407079 3.59039031,32.5358984 L3.59039031,32.5358984 L3.59039031,15.4641016 C3.59039031,13.4544827 4.66250925,11.5975182 6.40289031,10.5927087 L6.40289031,10.5927087 Z" stroke-linejoin="square" fill="url(#linearGradient-1)" fill-rule="evenodd"></path>
                    </g>
                    <path d="M22.8475813,26.0822089 L23.5985938,30.4684866 C23.7833938,31.547905 23.2209,32.6070552 22.2404188,33.058333 C22.4480563,34.4091703 23.610625,35.4853723 25.0718313,35.478014 C26.6278,35.4662936 27.89375,34.1617209 27.89375,32.5699554 L27.89375,32.5699554 L27.89375,30.3228193 C27.89375,29.0697985 28.9032375,28.0756831 30.125,28.0756831 C31.3553375,28.0756831 32.35625,29.083766 32.35625,30.3228193 L32.35625,30.3228193 L32.35625,36.1389364 C32.35625,36.5039418 32.062425,36.7998588 31.7,36.7998588 C31.337575,36.7998588 31.04375,36.5039418 31.04375,36.1389364 L31.04375,36.1389364 L31.04375,30.3228193 C31.04375,29.8125872 30.631625,29.3975279 30.125,29.3975279 C29.6217875,29.3975279 29.20625,29.8065067 29.20625,30.3228193 L29.20625,30.3228193 L29.20625,32.5699554 C29.20625,34.8852107 27.3559313,36.7827189 25.0815875,36.7998588 C22.9512688,36.817219 21.2412125,35.2314899 20.941875,33.2542304 C19.9064,33.1174635 19.0838125,32.3238279 18.9047438,31.2872372 L18.9047438,31.2872372 L18.148,26.9054979 C19.7905063,26.6302017 21.2951125,26.358122 22.8475813,26.0822089 L22.8475813,26.0822089 Z M12.8,19.9243068 C12.8,16.4790064 15.9714375,13.8867366 19.3474938,14.4865897 L19.3474938,14.4865897 L29.64375,16.3165958 L29.64375,23.5320178 C21.1712794,25.0378966 19.470659,25.3571309 18.8799759,25.4265842 L18.8276783,25.4323922 C18.8112146,25.4341034 18.7956619,25.4355992 18.7808476,25.4369083 L18.7384469,25.4403038 C18.7316917,25.4407859 18.7250779,25.4412285 18.7185839,25.4416351 L18.6808845,25.4436716 C18.668682,25.4442256 18.6567859,25.4446644 18.6450234,25.4450165 L18.6099638,25.4458413 C18.6041297,25.445945 18.5982858,25.4460341 18.5924106,25.4461123 L18.499227,25.4469109 C18.4857685,25.447027 18.4717526,25.4471708 18.4570062,25.4473709 C15.3885125,25.4935474 12.8,23.0268528 12.8,19.9243068 Z M34.3381688,15.0667474 C34.7626312,14.9257506 35.2,15.2447999 35.2,15.6944034 L35.2,15.6944034 L35.2,24.1542102 C35.2,24.6043864 34.7622375,24.9226867 34.3381688,24.7818661 L34.3381688,24.7818661 L30.95625,23.658254 L30.95625,16.1903596 Z M18.4,17.8534166 C17.266175,17.8534166 16.34375,18.7824091 16.34375,19.9243068 C16.34375,21.0662044 17.266175,21.995197 18.4,21.995197 C19.533825,21.995197 20.45625,21.0662044 20.45625,19.9243068 C20.45625,18.7824091 19.533825,17.8534166 18.4,17.8534166 Z M18.4,19.1752614 C18.8107618,19.1752614 19.14375,19.5106204 19.14375,19.9243068 C19.14375,20.3379931 18.8107618,20.6733522 18.4,20.6733522 C17.9892382,20.6733522 17.65625,20.3379931 17.65625,19.9243068 C17.65625,19.5106204 17.9892382,19.1752614 18.4,19.1752614 Z" id="Combined-Shape" fill="#FFFFFF"></path>
                </g>
            </g>
        </g>
    </g>
</svg>