<?xml version="1.0" encoding="UTF-8"?>
<svg width="128px" height="128px" viewBox="0 0 128 128" version="1.1" xmlns="http://www.w3.org/2000/svg" xmlns:xlink="http://www.w3.org/1999/xlink">
    <title>in_icon01</title>
    <defs>
        <linearGradient x1="0%" y1="0%" x2="100%" y2="100%" id="linearGradient-1">
            <stop stop-color="#FFB7DC" offset="0%"></stop>
            <stop stop-color="#85AEFF" offset="100%"></stop>
        </linearGradient>
        <circle id="path-2" cx="64" cy="64" r="64"></circle>
    </defs>
    <g id="Design" stroke="none" stroke-width="1" fill="none" fill-rule="evenodd">
        <g id="01_homepage" transform="translate(-206.000000, -2336.000000)">
            <g id="features" transform="translate(135.000000, 2042.000000)">
                <g id="in_icon01" transform="translate(71.000000, 294.000000)">
                    <g id="Oval" fill-rule="nonzero">
                        <use fill="#FFB9D1" xlink:href="#path-2"></use>
                        <circle stroke="#99AFF9" stroke-width="1" stroke-linejoin="square" fill="url(#linearGradient-1)" fill-rule="evenodd" cx="64" cy="64" r="63.5"></circle>
                    </g>
                    <path d="M68.6666667,84.5 L68.6666667,92.25 L75.2,92.25 C76.2308978,92.25 77.0666667,93.0895 77.0666667,94.125 C77.0666667,95.1605 76.2308978,96 75.2,96 L75.2,96 L52.8,96 C51.7691022,96 50.9333333,95.1605 50.9333333,94.125 C50.9333333,93.0895 51.7691022,92.25 52.8,92.25 L52.8,92.25 L59.3333333,92.25 L59.3333333,84.5 L68.6666667,84.5 Z M45.3333333,60.75 C46.3642311,60.75 47.2,61.5895 47.2,62.625 C47.2,63.6605 46.3642311,64.5 45.3333333,64.5 L45.3333333,64.5 L43.4666667,64.5 L43.4666667,73.875 C43.4666667,74.219625 43.7457956,74.5 44.0888889,74.5 L44.0888889,74.5 L47.2640889,74.5 C48.0495822,73.727125 49.1246578,73.25 50.3111111,73.25 L50.3111111,73.25 L77.6888889,73.25 C78.8753422,73.25 79.9504178,73.727125 80.7359111,74.5 L80.7359111,74.5 L83.9111111,74.5 C84.2542044,74.5 84.5333333,74.219625 84.5333333,73.875 L84.5333333,73.875 L84.5333333,64.5 L82.6666667,64.5 C81.6357689,64.5 80.8,63.6605 80.8,62.625 C80.8,61.5895 81.6357689,60.75 82.6666667,60.75 L82.6666667,60.75 L90.1333333,60.75 C91.1642311,60.75 92,61.5895 92,62.625 C92,63.6605 91.1642311,64.5 90.1333333,64.5 L90.1333333,64.5 L88.2666667,64.5 L88.2666667,73.875 C88.2666667,76.287375 86.3127644,78.25 83.9111111,78.25 L83.9111111,78.25 L82.0444444,78.25 L82.0444444,78.875 C82.0444444,79.9105 81.2086756,80.75 80.1777778,80.75 L80.1777778,80.75 L72.23984,80.75 L77.7643022,86.299125 C78.4932978,87.031375 78.4932978,88.2185 77.7643022,88.95075 C77.3999289,89.317 76.9221867,89.5 76.4444444,89.5 C75.9667022,89.5 75.48896,89.317 75.1244622,88.95075 L75.1244622,88.95075 L66.96016,80.75 L47.8222222,80.75 C46.7913244,80.75 45.9555556,79.9105 45.9555556,78.875 L45.9555556,78.875 L45.9555556,78.25 L44.0888889,78.25 C41.6872356,78.25 39.7333333,76.287375 39.7333333,73.875 L39.7333333,73.875 L39.7333333,64.5 L37.8666667,64.5 C36.8357689,64.5 36,63.6605 36,62.625 C36,61.5895 36.8357689,60.75 37.8666667,60.75 L37.8666667,60.75 Z M68.9777778,32 C71.3832889,32 73.3333333,33.95875 73.3333333,36.375 L73.3333333,36.375 L73.3333333,39.5 C73.3333333,40.5355 72.4975644,41.375 71.4666667,41.375 L71.4666667,41.375 L65.8666667,41.375 L65.8666667,45.75 L72.7111111,45.75 C75.7989511,45.75 78.3111111,48.273375 78.3111111,51.375 L78.3111111,51.375 L78.3111111,69.5 L49.6888889,69.5 L49.6888889,51.375 C49.6888889,48.273375 52.2010489,45.75 55.2888889,45.75 L55.2888889,45.75 L62.1333333,45.75 L62.1333333,41.375 L56.5333333,41.375 C55.5024356,41.375 54.6666667,40.5355 54.6666667,39.5 L54.6666667,39.5 L54.6666667,36.375 C54.6666667,33.95875 56.6167111,32 59.0222222,32 L59.0222222,32 Z" id="Combined-Shape" fill="#FFFFFF"></path>
                </g>
            </g>
        </g>
    </g>
</svg>