<?xml version="1.0" encoding="UTF-8"?>
<svg width="128px" height="128px" viewBox="0 0 128 128" version="1.1" xmlns="http://www.w3.org/2000/svg" xmlns:xlink="http://www.w3.org/1999/xlink">
    <title>in_icon02</title>
    <defs>
        <linearGradient x1="0%" y1="0%" x2="100%" y2="100%" id="linearGradient-1">
            <stop stop-color="#FFB7DC" offset="0%"></stop>
            <stop stop-color="#85AEFF" offset="100%"></stop>
        </linearGradient>
        <circle id="path-2" cx="64" cy="64" r="64"></circle>
    </defs>
    <g id="Design" stroke="none" stroke-width="1" fill="none" fill-rule="evenodd">
        <g id="01_homepage" transform="translate(-506.000000, -2336.000000)">
            <g id="features" transform="translate(135.000000, 2042.000000)">
                <g id="in_icon02" transform="translate(371.000000, 294.000000)">
                    <g id="Oval" fill-rule="nonzero">
                        <use fill="#FFB9D1" xlink:href="#path-2"></use>
                        <circle stroke="#99AFF9" stroke-width="1" stroke-linejoin="square" fill="url(#linearGradient-1)" fill-rule="evenodd" cx="64" cy="64" r="63.5"></circle>
                    </g>
                    <path d="M35.5319341,84.6652682 C36.4225582,86.2811495 37.5448071,87.7802804 38.8824308,89.1176606 C40.2215545,90.4567908 41.719678,91.5789202 43.3333014,92.4691737 C41.6735531,93.580553 39.5535551,93.7130536 37.7836819,92.8679253 L37.7836819,92.8679253 L35.2008094,95.4508104 C34.4685601,96.1830632 33.2814362,96.1830632 32.549187,95.4508104 C31.8169377,94.7185575 31.8169377,93.5314279 32.549187,92.799175 L32.549187,92.799175 L35.1320594,90.2164149 C34.2866853,88.445908 34.4195601,86.3251497 35.5319341,84.6652682 Z M54.4727906,50.0957582 C54.6401654,52.8938941 55.7897893,55.6437799 57.9230372,57.7770382 L57.9230372,57.7770382 L70.2230252,70.0769612 C72.3562731,72.2102196 75.1060204,73.3597241 77.9041427,73.5272247 L77.9041427,73.5272247 L63.8665314,86.7850265 C57.5622875,92.7389248 47.6655472,92.5975492 41.5340532,86.4660253 C35.4024342,80.3345013 35.2611843,70.4377126 41.2150535,64.133563 L41.2150535,64.133563 Z M60.0955351,67.9044528 C57.9022872,65.7111942 54.3336657,65.7113192 52.1405428,67.9044528 L52.1405428,67.9044528 L46.837298,73.2077235 C44.6440502,75.400982 44.6440502,78.969496 46.837298,81.1627545 C49.0305459,83.3560131 52.5991674,83.3558881 54.7922902,81.1627545 L54.7922902,81.1627545 L60.0955351,75.8594838 C62.2886579,73.6662253 62.2887829,70.0977113 60.0955351,67.9044528 Z M50.8147941,74.5336036 L53.4664165,77.185239 L52.1405428,78.5111192 C51.4095435,79.242122 50.2200447,79.242247 49.4889204,78.5111192 C48.7577961,77.7799913 48.7577961,76.5904867 49.4889204,75.8594838 L49.4889204,75.8594838 L50.8147941,74.5336036 Z M54.7921652,70.5560881 C55.5232895,69.8250853 56.7127884,69.8249603 57.4437877,70.5560881 C58.1749119,71.287216 58.1747869,72.4765956 57.4437877,73.2077235 L57.4437877,73.2077235 L56.1179139,74.5336036 L53.4662915,71.8819683 Z M60.5747846,43.6348579 L84.3650114,67.4252009 C81.1920145,70.5982133 76.0475195,70.5982133 72.8745226,67.4252009 L72.8745226,67.4252009 L60.5747846,55.1254028 C57.4017877,51.9523904 57.4017877,46.8078703 60.5747846,43.6348579 L60.5747846,43.6348579 Z M71.5862738,32.5491896 C72.3185231,31.8169368 73.505647,31.8169368 74.2378962,32.5491896 C74.9701455,33.2814425 74.9701455,34.4685721 74.2378962,35.200825 L74.2378962,35.200825 L71.1442743,38.2944621 L73.7958967,40.9460974 L76.8895187,37.8524604 C77.6217679,37.1202075 78.8088918,37.1202075 79.5411411,37.8524604 C80.2733904,38.5847132 80.2733904,39.7718429 79.5411411,40.5040957 L79.5411411,40.5040957 L76.4475191,43.5977328 L79.0991415,46.2493682 L82.1927635,43.1557311 C82.9250128,42.4234782 84.1121366,42.4234782 84.8443859,43.1557311 C85.5766352,43.8879839 85.5766352,45.0751136 84.8443859,45.8073664 L84.8443859,45.8073664 L81.7507639,48.9010035 L84.4023863,51.5526389 L87.4960083,48.4590018 C88.2282576,47.7267489 89.4153814,47.7267489 90.1476307,48.4590018 C90.87988,49.1912547 90.87988,50.3783843 90.1476307,51.1106372 L90.1476307,51.1106372 L87.0540087,54.2042742 L89.7056311,56.8559096 L92.7992531,53.7622725 C93.5315024,53.0300196 94.7186262,53.0300196 95.4508755,53.7622725 C96.1829998,54.4945254 96.1829998,55.681655 95.4511255,56.4141579 L95.4511255,56.4141579 L87.0542587,64.8110657 L63.189407,40.9460974 Z" id="Combined-Shape" fill="#FFFFFF"></path>
                </g>
            </g>
        </g>
    </g>
</svg>