<?xml version="1.0" encoding="UTF-8"?>
<svg width="128px" height="128px" viewBox="0 0 128 128" version="1.1" xmlns="http://www.w3.org/2000/svg" xmlns:xlink="http://www.w3.org/1999/xlink">
    <title>in_icon03</title>
    <defs>
        <linearGradient x1="0%" y1="0%" x2="100%" y2="100%" id="linearGradient-1">
            <stop stop-color="#FFB7DC" offset="0%"></stop>
            <stop stop-color="#85AEFF" offset="100%"></stop>
        </linearGradient>
        <circle id="path-2" cx="64" cy="64" r="64"></circle>
    </defs>
    <g id="Design" stroke="none" stroke-width="1" fill="none" fill-rule="evenodd">
        <g id="01_homepage" transform="translate(-806.000000, -2336.000000)">
            <g id="features" transform="translate(135.000000, 2042.000000)">
                <g id="in_icon03" transform="translate(671.000000, 294.000000)">
                    <g id="Oval" fill-rule="nonzero">
                        <use fill="#FFB9D1" xlink:href="#path-2"></use>
                        <circle stroke="#99AFF9" stroke-width="1" stroke-linejoin="square" fill="url(#linearGradient-1)" fill-rule="evenodd" cx="64" cy="64" r="63.5"></circle>
                    </g>
                    <path d="M70.1785714,82.8235294 L70.1785714,96 L39.8928571,96 L39.8928571,82.8235294 L39.8928571,82.8235294 L70.1785714,82.8235294 Z M53.1428571,54.7051922 L53.1428571,79.0588235 L39.8928571,79.0588235 L39.8928571,69.6470588 C39.8928571,61.9678118 45.6731381,55.6315608 53.1428571,54.7051922 L53.1428571,54.7051922 Z M56.9285714,54.7051922 C64.3982905,55.6315608 70.1785714,61.9678118 70.1785714,69.6470588 L70.1785714,69.6470588 L70.1785714,79.0588235 L56.9285714,79.0588235 Z M72.0714286,32 L72.0714286,39.5294118 L59.60545,39.5294118 L67.1768786,47.0588235 L72.0714286,47.0588235 L72.0714286,50.8235294 L65.6088357,50.8235294 L58.8214286,44.0737882 L58.8214286,51.2978824 C56.3488524,50.6649098 53.7208095,50.6654118 51.25,51.2978824 L51.25,51.2978824 L51.25,48.1754353 L40.8965762,35.7647059 L38,35.7647059 L38,32 L38,32 L72.0714286,32 Z M91,39.5294118 L91,43.2941176 L87.2142857,43.2941176 L87.2142857,39.5294118 L91,39.5294118 Z M51.25,35.7647059 L45.815481,35.7647059 L51.25,42.2792784 L51.25,35.7647059 Z M83.4285714,35.7647059 L83.4285714,39.5294118 L79.6428571,39.5294118 L79.6428571,35.7647059 L83.4285714,35.7647059 Z M91,32 L91,35.7647059 L87.2142857,35.7647059 L87.2142857,32 L91,32 Z" id="Combined-Shape" fill="#FFFFFF"></path>
                </g>
            </g>
        </g>
    </g>
</svg>