<?xml version="1.0" encoding="UTF-8"?>
<svg width="128px" height="128px" viewBox="0 0 128 128" version="1.1" xmlns="http://www.w3.org/2000/svg" xmlns:xlink="http://www.w3.org/1999/xlink">
    <title>in_icon04</title>
    <defs>
        <linearGradient x1="0%" y1="0%" x2="100%" y2="100%" id="linearGradient-1">
            <stop stop-color="#FFB7DC" offset="0%"></stop>
            <stop stop-color="#85AEFF" offset="100%"></stop>
        </linearGradient>
        <circle id="path-2" cx="64" cy="64" r="64"></circle>
    </defs>
    <g id="Design" stroke="none" stroke-width="1" fill="none" fill-rule="evenodd">
        <g id="01_homepage" transform="translate(-1106.000000, -2336.000000)" fill-rule="nonzero">
            <g id="features" transform="translate(135.000000, 2042.000000)">
                <g id="in_icon04" transform="translate(971.000000, 294.000000)">
                    <g id="Oval-Copy">
                        <use fill="#FFB9D1" xlink:href="#path-2"></use>
                        <circle stroke="#99AFF9" stroke-width="1" stroke-linejoin="square" fill="url(#linearGradient-1)" fill-rule="evenodd" cx="64" cy="64" r="63.5"></circle>
                    </g>
                    <g id="comb" transform="translate(34.000000, 32.000000)" fill="#FFFFFF">
                        <path d="M50.6126434,11.2941176 L50.6126434,7.52941176 L54.3617281,7.52941176 L54.3617281,0 C53.0960371,0 36.8821206,0 35.6163046,0 L35.6163046,7.52941176 L39.3653893,7.52941176 L39.3653893,11.2941176 L35.6163046,11.2941176 L35.6163046,15.0588235 L39.3653893,15.0588235 L39.3653893,18.8235294 L35.6163046,18.8235294 L35.6163046,22.5882353 L39.3653893,22.5882353 L39.3653893,26.3529412 L35.6163046,26.3529412 L35.6163046,30.1176471 L41.2399317,33.8823529 L41.2399317,60.2352941 C41.2399317,62.3144157 42.9185218,64 44.9890164,64 C47.0595109,64 48.738101,62.3144157 48.738101,60.2352941 L48.738101,33.8823529 L54.3617281,30.1176471 L54.3617281,26.3529412 L50.6126434,26.3529412 L50.6126434,22.5882353 L54.3617281,22.5882353 L54.3617281,18.8235294 L50.6126434,18.8235294 L50.6126434,15.0588235 L54.3617281,15.0588235 L54.3617281,11.2941176 L50.6126434,11.2941176 Z" id="XMLID_1585_"></path>
                        <polygon id="XMLID_1636_" points="54.3617281 7.52941176 59.9853551 7.52941176 59.9853551 11.2941176 54.3617281 11.2941176"></polygon>
                        <polygon id="XMLID_1637_" points="54.3617281 15.0588235 59.9853551 15.0588235 59.9853551 18.8235294 54.3617281 18.8235294"></polygon>
                        <polygon id="XMLID_1638_" points="54.3617281 22.5882353 59.9853551 22.5882353 59.9853551 26.3529412 54.3617281 26.3529412"></polygon>
                        <polygon id="XMLID_1653_" points="29.9926776 7.52941176 35.6163046 7.52941176 35.6163046 11.2941176 29.9926776 11.2941176"></polygon>
                        <polygon id="XMLID_1654_" points="29.9926776 15.0588235 35.6163046 15.0588235 35.6163046 18.8235294 29.9926776 18.8235294"></polygon>
                        <polygon id="XMLID_1655_" points="29.9926776 22.5882353 35.6163046 22.5882353 35.6163046 26.3529412 29.9926776 26.3529412"></polygon>
                        <path d="M16.8708811,0 C15.0906907,0 9.90695631,0 8.12301684,0 C3.66747962,0 0,3.64335686 0,8.15686275 L0,55.8431373 C0,60.3530039 3.66410544,64 8.12301684,64 L16.8708811,64 C22.0389944,64 26.2435929,59.7778824 26.2435929,54.5882353 L26.2435929,52.7058824 L13.1217964,52.7058824 L13.1217964,48.9411765 L24.3690505,48.9411765 L24.3690505,45.1764706 L13.1217964,45.1764706 L13.1217964,41.4117647 L24.3690505,41.4117647 L24.3690505,37.6470588 L13.1217964,37.6470588 L13.1217964,33.8823529 L24.3690505,33.8823529 L24.3690505,30.1176471 L13.1217964,30.1176471 L13.1217964,26.3529412 L24.3690505,26.3529412 L24.3690505,22.5882353 L13.1217964,22.5882353 L13.1217964,18.8235294 L24.3690505,18.8235294 L24.3690505,15.0588235 L13.1217964,15.0588235 L13.1217964,11.2941176 L26.2435929,11.2941176 L26.2435929,9.41176471 C26.2435929,4.22224314 22.0389944,0 16.8708811,0 Z" id="XMLID_1656_"></path>
                    </g>
                </g>
            </g>
        </g>
    </g>
</svg>