<?xml version="1.0" encoding="UTF-8"?>
<svg width="1170px" height="416px" viewBox="0 0 1170 416" version="1.1" xmlns="http://www.w3.org/2000/svg" xmlns:xlink="http://www.w3.org/1999/xlink">
    <title>indexBG</title>
    <defs>
        <linearGradient x1="0%" y1="43.6790123%" x2="100%" y2="56.3209877%" id="linearGradient-1">
            <stop stop-color="#FFB7DC" offset="0%"></stop>
            <stop stop-color="#85AEFF" offset="100%"></stop>
        </linearGradient>
        <path d="M20.5110816,-8.28672246e-16 L1149.48892,8.28672246e-16 C1156.62107,-4.81482439e-16 1159.20736,0.742604889 1161.81477,2.13706163 C1164.42217,3.53151837 1166.46848,5.57782696 1167.86294,8.18523437 C1169.2574,10.7926418 1170,13.3789317 1170,20.5110816 L1170,395.488918 C1170,402.621068 1169.2574,405.207358 1167.86294,407.814766 C1166.46848,410.422173 1164.42217,412.468482 1161.81477,413.862938 C1159.20736,415.257395 1156.62107,416 1149.48892,416 L20.5110816,416 C13.3789317,416 10.7926418,415.257395 8.18523437,413.862938 C5.57782696,412.468482 3.53151837,410.422173 2.13706163,407.814766 C0.742604889,405.207358 3.20988293e-16,402.621068 -5.52448164e-16,395.488918 L5.52448164e-16,20.5110816 C-3.20988293e-16,13.3789317 0.742604889,10.7926418 2.13706163,8.18523437 C3.53151837,5.57782696 5.57782696,3.53151837 8.18523437,2.13706163 C10.7926418,0.742604889 13.3789317,4.81482439e-16 20.5110816,-8.28672246e-16 Z" id="path-2"></path>
        <linearGradient x1="0%" y1="37.5%" x2="100%" y2="62.5%" id="linearGradient-4">
            <stop stop-color="#FFB7DC" offset="0%"></stop>
            <stop stop-color="#85AEFF" offset="100%"></stop>
        </linearGradient>
    </defs>
    <g id="Design" stroke="none" stroke-width="1" fill="none" fill-rule="evenodd">
        <g id="01_homepage" transform="translate(-135.000000, -6344.000000)">
            <g id="indexBG" transform="translate(135.000000, 6344.000000)">
                <mask id="mask-3" fill="white">
                    <use xlink:href="#path-2"></use>
                </mask>
                <g id="Mask" fill-rule="nonzero">
                    <use fill="#FFB9D1" xlink:href="#path-2"></use>
                    <use fill="url(#linearGradient-1)" xlink:href="#path-2"></use>
                    <use fill-opacity="0.502660779" fill="#FFFFFF" xlink:href="#path-2"></use>
                </g>
                <circle id="Oval" fill="#E4ECFF" fill-rule="nonzero" mask="url(#mask-3)" cx="759.5" cy="89.5" r="134.5"></circle>
                <circle id="Oval" fill="#F5B7D9" fill-rule="nonzero" mask="url(#mask-3)" cx="1004" cy="412" r="74"></circle>
                <path d="M721,303 C721,329.509668 699.509668,351 673,351 C646.490332,351 625,329.509668 625,303 L625,303 Z" id="Combined-Shape" fill="url(#linearGradient-4)" fill-rule="nonzero" mask="url(#mask-3)"></path>
                <path d="M971.351141,46.7082039 L981.865763,54.3475242 C983.267713,55.3661002 983.854345,57.1715695 983.318848,58.8196601 L979.30262,71.1803399 C978.767123,72.8284305 977.231299,73.9442719 975.498394,73.9442719 L962.501606,73.9442719 C960.768701,73.9442719 959.232877,72.8284305 958.69738,71.1803399 L954.681152,58.8196601 C954.145655,57.1715695 954.732287,55.3661002 956.134237,54.3475242 L966.648859,46.7082039 C968.050809,45.6896279 969.949191,45.6896279 971.351141,46.7082039 Z" id="Polygon" fill="#DC70B9" fill-rule="nonzero" mask="url(#mask-3)"></path>
                <path d="M1125.60398,180.733933 L1118.27357,184.587756 C1116.80704,185.358758 1114.99316,184.794918 1114.22215,183.328385 C1113.91514,182.744403 1113.80919,182.075499 1113.92072,181.425226 L1115.32071,173.262699 C1115.48762,172.289517 1115.16497,171.296516 1114.45792,170.607305 L1108.52749,164.826571 C1107.34104,163.670067 1107.31676,161.770727 1108.47327,160.584276 C1108.93379,160.111826 1109.53722,159.804364 1110.19013,159.70949 L1118.38578,158.518594 C1119.36291,158.376608 1120.2076,157.7629 1120.64459,156.87747 L1124.30979,149.450957 C1125.04306,147.965196 1126.84194,147.355179 1128.3277,148.088446 C1128.91933,148.380437 1129.39822,148.859319 1129.69021,149.450957 L1133.35541,156.87747 C1133.7924,157.7629 1134.63709,158.376608 1135.61422,158.518594 L1143.80987,159.70949 C1145.4495,159.947743 1146.58555,161.470072 1146.34729,163.109706 C1146.25242,163.762618 1145.94496,164.366045 1145.47251,164.826571 L1139.54208,170.607305 C1138.83503,171.296516 1138.51238,172.289517 1138.67929,173.262699 L1140.07928,181.425226 C1140.35936,183.058235 1139.2626,184.609103 1137.62959,184.889186 C1136.97932,185.000717 1136.31041,184.894773 1135.72643,184.587756 L1128.39602,180.733933 C1127.52205,180.274459 1126.47795,180.274459 1125.60398,180.733933 Z" id="Star" fill="#6177EE" fill-rule="nonzero" mask="url(#mask-3)"></path>
            </g>
        </g>
    </g>
</svg>