<?xml version="1.0" encoding="UTF-8"?>
<svg width="16px" height="16px" viewBox="0 0 16 16" version="1.1" xmlns="http://www.w3.org/2000/svg" xmlns:xlink="http://www.w3.org/1999/xlink">
    <title>instagram</title>
    <g id="Symbols" stroke="none" stroke-width="1" fill="none" fill-rule="evenodd">
        <g id="footer" transform="translate(-1273.000000, -112.000000)" fill="#FFFFFF" fill-rule="nonzero">
            <g id="social" transform="translate(1145.000000, 96.000000)">
                <path d="M136,17.4426667 C138.136,17.4426667 138.389333,17.4506667 139.233333,17.4893333 C141.402667,17.588 142.413333,18.616 142.513333,20.768 C142.550667,21.612 142.558667,21.864 142.558667,24 C142.558667,26.136 142.550667,26.3893333 142.513333,27.232 C142.413333,29.3826667 141.404,30.4133333 139.233333,30.512 C138.389333,30.5493333 138.137333,30.5586667 136,30.5586667 C133.864,30.5586667 133.610667,30.5506667 132.768,30.512 C130.594667,30.412 129.588,29.38 129.488,27.232 C129.450667,26.3893333 129.441333,26.136 129.441333,24 C129.441333,21.864 129.450667,21.6106667 129.488,20.768 C129.586667,18.6146667 130.597333,17.5866667 132.768,17.488 C133.610667,17.4493333 133.864,17.4426667 136,17.4426667 Z M136,16 C133.826667,16 133.556,16.0093333 132.701333,16.0493333 C129.794667,16.1826667 128.181333,17.7946667 128.048,20.7013333 C128.009333,21.556 128,21.828 128,24 C128,26.1733333 128.009333,26.4453333 128.048,27.2986667 C128.181333,30.204 129.794667,31.8186667 132.701333,31.952 C133.556,31.9906667 133.826667,32 136,32 C138.173333,32 138.445333,31.9906667 139.3,31.952 C142.201333,31.8186667 143.821333,30.2066667 143.952,27.2986667 C143.990667,26.4453333 144,26.1733333 144,24 C144,21.828 143.990667,21.556 143.952,20.7013333 C143.821333,17.7986667 142.206667,16.1813333 139.3,16.0493333 C138.445333,16.0093333 138.173333,16 136,16 L136,16 Z M136,19.892 C133.732,19.892 131.892,21.7306667 131.892,24 C131.892,26.2693333 133.732,28.108 136,28.108 C138.268,28.108 140.108,26.2693333 140.108,24 C140.108,21.732 138.268,19.892 136,19.892 Z M136,26.6666667 C134.526667,26.6666667 133.333333,25.4733333 133.333333,24 C133.333333,22.528 134.526667,21.3333333 136,21.3333333 C137.472,21.3333333 138.668,22.5266667 138.668,24 C138.668,25.4733333 137.472,26.6666667 136,26.6666667 Z M140.269333,18.7706667 C139.74,18.7706667 139.309333,19.2 139.309333,19.7306667 C139.309333,20.26 139.738667,20.6906667 140.269333,20.6906667 C140.8,20.6906667 141.230667,20.2613333 141.230667,19.7306667 C141.230667,19.2 140.801333,18.7706667 140.269333,18.7706667 Z" id="instagram"></path>
            </g>
        </g>
    </g>
</svg>