<?xml version="1.0" encoding="utf-8"?>
<!-- Generator: Adobe Illustrator 24.0.1, SVG Export Plug-In . SVG Version: 6.00 Build 0)  -->
<svg version="1.1" id="圖層_1" xmlns="http://www.w3.org/2000/svg" xmlns:xlink="http://www.w3.org/1999/xlink" x="0px" y="0px"
	 viewBox="0 0 140.1 20.1" style="enable-background:new 0 0 140.1 20.1;" xml:space="preserve">
<style type="text/css">
	.st0{fill:#FFFFFF;}
</style>
<title>logo</title>
<path class="st0" d="M114.3,7.5h2.6V6.9H114V5.5h0.2c0.7,0,1.4-0.1,2.1-0.3l-0.1-0.6C114.4,4.9,112.7,5,111,5l0.1,0.6
	c0.6,0,1.4,0,2.3-0.1v1.3h-2.8v0.6h2.7c-0.8,1-1.9,1.8-3,2.3l0.4,0.6c1-0.5,2-1.3,2.7-2.2v3.2h0.6V8.2c0.7,0.9,1.6,1.6,2.6,2.2
	l0.5-0.5C116,9.3,115,8.5,114.3,7.5z"/>
<path class="st0" d="M118.3,9.7c0.3-0.5,0.6-1.1,0.8-1.7v3.5h0.6V7.4c0.3,0.4,0.6,0.8,0.8,1.2l0.5-0.4c-0.4-0.6-0.8-1.1-1.3-1.7V6.4
	h1V5.7h-1V4.6h-0.6v1.1h-1.2v0.6h1.2c-0.3,1.1-0.7,2.2-1.3,3.1L118.3,9.7z"/>
<path class="st0" d="M122.9,6.4h1.5V5.7h-1.6V4.6h-0.6v1.1H121v0.6h1c-0.1,0.6-0.3,1.2-0.6,1.8c-0.3,0.7-0.7,1.4-1.2,2l0.6,0.2
	c0.5-0.8,1-1.7,1.3-2.7v3.7h0.6V7.6c0.3,1,0.8,1.9,1.3,2.8l0.6-0.3C123.9,8.9,123.3,7.7,122.9,6.4z"/>
<path class="st0" d="M131.2,5.1l-0.4-0.5c-0.6,0.4-1.2,0.7-1.9,0.8l0.2,0.6C129.9,5.9,130.6,5.6,131.2,5.1z"/>
<path class="st0" d="M129.3,7.1c0.8-0.2,1.6-0.5,2.3-1l-0.4-0.5c-0.6,0.5-1.4,0.8-2.2,0.9L129.3,7.1z"/>
<path class="st0" d="M129,7.6l0.2,0.6c1-0.2,2-0.6,2.8-1.3l-0.4-0.5c-0.6,0.5-1.2,0.8-1.9,1L129,7.6z"/>
<path class="st0" d="M130.9,8.9l0.2-0.6c-0.3-0.1-0.6-0.2-0.9-0.3L130,8.6C130.3,8.7,130.6,8.8,130.9,8.9z"/>
<path class="st0" d="M131.9,11.4v-0.6c-0.8,0.1-1.6,0.1-2.3,0l0,0c0.3-0.2,0.7-0.4,1-0.6l-0.3-0.5c-0.5,0.3-1,0.6-1.5,0.9
	c-0.5-0.2-0.9-0.5-1.2-0.9h4.5V9h-4.1c0-0.1,0.1-0.3,0.2-0.4l-0.4-0.2l0.6-0.1l0.2,0.3l0.5-0.3c-0.1-0.2-0.4-0.5-0.6-0.9h0.5V7h-2.6
	V6.7h2.2V6.3h-2.2V6h2.2V5.6h-2.2V5.3c0,0,0-0.1,0-0.1c0,0,0,0,0,0h2.2V4.7h-2.7c-0.1,0-0.1,0-0.1,0.1V7h-0.6v0.5h0.6
	c-0.1,0.2-0.1,0.3-0.2,0.5h-0.4c0.1,0.2,0.1,0.4,0.2,0.6l2.2-0.2c-0.1,0.2-0.2,0.4-0.2,0.5h-2.1v0.6h1.7c-0.5,0.6-1.1,1.1-1.8,1.4
	l0.4,0.5c0.7-0.4,1.3-0.8,1.8-1.4c0.3,0.3,0.5,0.5,0.8,0.7c-0.5,0.1-0.9,0.2-1.4,0.2l0.1,0.6c0.7-0.1,1.4-0.2,2-0.4
	C129.8,11.5,130.9,11.6,131.9,11.4z M126.2,8c0.1-0.2,0.1-0.3,0.2-0.5h1.5l-0.2,0.1c0.1,0.1,0.1,0.2,0.2,0.2L126.2,8z"/>
<path class="st0" d="M133.6,5.6C133.6,5.6,133.6,5.6,133.6,5.6l5.7-0.1V5h-2.9V4.6h-0.6V5h-2.6c-0.1,0-0.2,0.1-0.2,0.1c0,0,0,0,0,0
	v3.2c0,0.5,0,1-0.1,1.4c-0.1,0.5-0.2,0.9-0.4,1.3l0.6,0.2c0.4-0.9,0.5-1.8,0.5-2.8L133.6,5.6z"/>
<path class="st0" d="M137.8,10.2v0.7c0.4,0.1,0.8,0.1,1.2-0.1c0.1-0.1,0.3-0.2,0.3-0.4c0.2-0.4,0.2-0.9,0-1.4
	c-0.2-0.3-0.4-0.6-0.6-0.9c0,0,0-0.1,0-0.1c0,0,0,0,0,0l0.7-1.8L139,5.9h-1.9c-0.1,0-0.1,0-0.1,0.1c0,0,0,0,0,0v5.5h0.6V6.5
	c0,0,0-0.1,0.1-0.1c0,0,0,0,0,0h1v0.1L138,8.1c0,0.1,0,0.1,0.1,0.2c0.4,0.3,0.6,0.8,0.8,1.2c0,0.4,0,0.6-0.2,0.8
	C138.3,10.3,138,10.3,137.8,10.2z"/>
<path class="st0" d="M135,5.7v0.5h-0.9c-0.1,0-0.2,0.1-0.2,0.1c0,0,0,0,0,0v4.4l-0.5,0.1l0.2,0.6L136,11l0.1,0.4l0.6-0.1
	c-0.1-0.6-0.3-1.1-0.5-1.6l-0.6,0.2c0,0.1,0.1,0.3,0.2,0.6l-1.2,0.2V9.4h1.8c0.1,0,0.2-0.1,0.2-0.2V6.4c0-0.1-0.1-0.2-0.2-0.2h-0.7
	V5.7H135z M136,8.7C136,8.7,136,8.8,136,8.7C135.9,8.8,135.9,8.8,136,8.7l-1.4,0.1V8.1h1.4V8.7z M135.9,6.8c0.1,0,0.1,0,0.1,0.1v0.6
	h-1.4V7c0-0.1,0.1-0.1,0.1-0.1L135.9,6.8z"/>
<polygon class="st0" points="112.1,14.9 111,14.9 111,13.1 110.4,13.1 110.4,16.8 111,16.8 111,15.2 112.1,15.2 112.1,16.8 
	112.7,16.8 112.7,13.1 112.1,13.1 "/>
<path class="st0" d="M114.2,16.5c-0.1,0-0.2-0.1-0.3-0.1c-0.1-0.1-0.1-0.2-0.2-0.3c-0.1-0.1-0.1-0.3-0.1-0.4v-2.6h-0.6v2.4
	c0,0.4,0.1,0.7,0.3,1c0.3,0.2,0.6,0.4,1,0.4h1v-0.2h-1C114.3,16.6,114.3,16.6,114.2,16.5z"/>
<polygon class="st0" points="119.2,14.9 118.1,14.9 118.1,13.1 117.5,13.1 117.5,16.8 118.1,16.8 118.1,15.2 119.2,15.2 119.2,16.8 
	119.8,16.8 119.8,13.1 119.2,13.1 "/>
<path class="st0" d="M122.3,14.7c-0.1-0.1-0.2-0.2-0.4-0.2c-0.2-0.1-0.4-0.1-0.6-0.1c-0.2,0-0.4,0-0.5,0.1c-0.1,0.1-0.3,0.1-0.4,0.2
	c-0.1,0.1-0.2,0.2-0.2,0.4c-0.1,0.2-0.1,0.3-0.1,0.5c0,0.2,0,0.4,0.1,0.5c0,0.1,0.1,0.3,0.2,0.4c0.1,0.1,0.2,0.2,0.4,0.2
	c0.2,0.1,0.4,0.1,0.5,0.1c0.1,0,0.1,0,0.2,0c0.1,0,0.1,0,0.2-0.1c0.1,0,0.1-0.1,0.2-0.1c0.1-0.1,0.1-0.2,0.2-0.3v0.5h0.6v-1.2
	c0-0.2,0-0.3-0.1-0.5C122.5,14.9,122.4,14.8,122.3,14.7z M122.1,15.5c0,0.3,0,0.5-0.2,0.8c-0.1,0.2-0.3,0.3-0.5,0.3
	c-0.1,0-0.2,0-0.3,0c-0.1,0-0.2-0.1-0.2-0.1c-0.1-0.1-0.1-0.2-0.1-0.3c0-0.1-0.1-0.3-0.1-0.4v-0.2c0-0.1,0-0.3,0.1-0.4
	c0-0.1,0.1-0.2,0.1-0.3c0.1-0.1,0.1-0.1,0.2-0.1c0.2-0.1,0.4-0.1,0.5,0c0.1,0,0.2,0.1,0.2,0.1c0.1,0.1,0.1,0.2,0.1,0.3
	C122,15.2,122,15.4,122.1,15.5L122.1,15.5z"/>
<path class="st0" d="M123.4,13.1c-0.1,0-0.2,0-0.2,0.1c-0.1,0.1-0.1,0.2-0.1,0.3c0,0.1,0,0.2,0.1,0.3c0.1,0.1,0.2,0.1,0.2,0.1h0.1
	l0.1-0.1c0,0,0.1-0.1,0.1-0.1c0,0,0-0.1,0-0.1c0-0.1,0-0.2-0.1-0.3C123.6,13.2,123.5,13.1,123.4,13.1z"/>
<rect x="123.1" y="14.3" class="st0" width="0.6" height="2.5"/>
<path class="st0" d="M125.6,14.3c-0.4,0-0.7,0.1-1,0.4c-0.3,0.3-0.4,0.6-0.4,1v1.2h0.6v-1.4c0-0.1,0-0.3,0.1-0.4
	c0-0.1,0.1-0.2,0.2-0.3c0.1-0.1,0.2-0.1,0.3-0.1c0.1,0,0.2,0,0.3,0h0.1h0.1v-0.3L125.6,14.3L125.6,14.3z"/>
<path class="st0" d="M130.1,15.3c-0.1-0.1-0.1-0.2-0.2-0.2c-0.1-0.1-0.2-0.1-0.3-0.2l-0.7-0.3l-0.2-0.1c-0.1,0-0.1-0.1-0.2-0.1
	c-0.1,0-0.1-0.1-0.1-0.2c0,0-0.1-0.1-0.1-0.2c0-0.1,0-0.2,0-0.2c0-0.1,0.1-0.1,0.2-0.2c0.1,0,0.1-0.1,0.2-0.1h0.3l0.4,0.1
	c0.1,0,0.2,0.1,0.3,0.1l0.2,0.1c0.1,0,0.2,0.1,0.2,0.1c0-0.2,0-0.3,0.1-0.4c-0.2-0.1-0.4-0.1-0.6-0.2c-0.2,0-0.5,0-0.7-0.1
	c-0.3,0-0.6,0.1-0.8,0.2c-0.2,0.2-0.3,0.4-0.3,0.7c0,0.2,0.1,0.4,0.2,0.5c0.2,0.2,0.3,0.3,0.6,0.4l0.8,0.3c0.1,0,0.2,0.1,0.2,0.1
	c0.1,0.1,0.1,0.1,0.1,0.2c0,0.1,0.1,0.1,0.1,0.2c0,0.1,0,0.1,0,0.2c0,0.1,0,0.2,0,0.3c0,0.1-0.1,0.1-0.1,0.2c-0.1,0-0.1,0.1-0.2,0.1
	c-0.1,0-0.2,0-0.3,0h-0.3l-0.3-0.1c-0.1,0-0.2-0.1-0.3-0.1c-0.1-0.1-0.2-0.1-0.3-0.2v0.2v0.2c0.2,0.1,0.4,0.1,0.6,0.2
	c0.2,0,0.4,0.1,0.6,0.1c0.2,0,0.3,0,0.5-0.1c0.1,0,0.3-0.1,0.4-0.2c0.1-0.1,0.2-0.2,0.2-0.3c0.1-0.1,0.1-0.3,0.1-0.4
	c0-0.1,0-0.2,0-0.3C130.2,15.5,130.2,15.4,130.1,15.3z"/>
<path class="st0" d="M132.7,14.7c-0.1-0.1-0.2-0.2-0.4-0.2c-0.2-0.1-0.4-0.1-0.6-0.1c-0.2,0-0.4,0-0.6,0.1c-0.1,0.1-0.3,0.1-0.4,0.2
	c-0.1,0.1-0.2,0.2-0.2,0.4c0,0.2-0.1,0.3-0.1,0.5c0,0.2,0,0.4,0.1,0.5c0,0.1,0.1,0.3,0.2,0.4c0.1,0.1,0.2,0.2,0.4,0.2
	c0.2,0.1,0.4,0.1,0.6,0.1c0.1,0,0.1,0,0.2,0c0.1,0,0.1,0,0.2-0.1c0.1,0,0.1-0.1,0.2-0.1c0.1-0.1,0.1-0.2,0.2-0.3v0.5h0.5v-1.2
	c0-0.2,0-0.4-0.1-0.5C132.9,14.9,132.8,14.8,132.7,14.7z M132.5,15.5c0,0.3,0,0.5-0.2,0.8c-0.1,0.2-0.3,0.3-0.5,0.3
	c-0.1,0-0.2,0-0.3,0c-0.1,0-0.2-0.1-0.2-0.1c-0.1-0.1-0.1-0.2-0.1-0.3c0-0.1-0.1-0.3-0.1-0.4v-0.2c0-0.1,0-0.3,0.1-0.4
	c0-0.1,0.1-0.2,0.1-0.3c0.1-0.1,0.1-0.1,0.2-0.1c0.1,0,0.2,0,0.3,0c0.1,0,0.2,0,0.3,0c0.1,0,0.2,0.1,0.2,0.1
	c0.1,0.1,0.1,0.2,0.1,0.3C132.5,15.2,132.5,15.4,132.5,15.5L132.5,15.5z"/>
<path class="st0" d="M134.3,16.3c-0.1-0.1-0.1-0.2-0.2-0.3c0-0.1-0.1-0.3-0.1-0.4v-2.6h-0.6v2.4c0,0.3,0.1,0.7,0.3,0.9
	c0.3,0.3,0.6,0.4,1,0.4v-0.3c-0.1,0-0.2,0-0.3,0C134.4,16.4,134.4,16.4,134.3,16.3z"/>
<path class="st0" d="M137.1,14.7c-0.1-0.1-0.2-0.2-0.4-0.3c-0.2-0.1-0.4-0.1-0.5-0.1c-0.2,0-0.4,0-0.6,0.1c-0.1,0.1-0.3,0.2-0.4,0.3
	c-0.1,0.1-0.2,0.2-0.2,0.4c0,0.2-0.1,0.3-0.1,0.5c0,0.2,0,0.3,0.1,0.5c0,0.1,0.1,0.3,0.2,0.4c0.1,0.1,0.2,0.2,0.4,0.3
	c0.2,0.1,0.4,0.1,0.6,0.1c0.2,0,0.4,0,0.5-0.1c0.1-0.1,0.3-0.1,0.4-0.3c0.1-0.1,0.2-0.3,0.2-0.4c0-0.2,0.1-0.3,0.1-0.5
	c0-0.2,0-0.3-0.1-0.5C137.2,15,137.1,14.8,137.1,14.7z M136.8,15.7c0,0.1,0,0.3,0,0.4c0,0.1-0.1,0.2-0.1,0.3
	c-0.1,0.1-0.1,0.1-0.2,0.1c-0.1,0-0.2,0-0.3,0c-0.1,0-0.2,0-0.3,0c-0.1,0-0.2-0.1-0.2-0.1c-0.1-0.1-0.1-0.2-0.1-0.3
	c0-0.1-0.1-0.3-0.1-0.4v-0.2c0-0.1,0-0.3,0.1-0.4c0-0.1,0.1-0.2,0.1-0.3c0.1-0.1,0.1-0.1,0.2-0.1c0.1,0,0.2,0,0.3,0
	c0.1,0,0.2,0,0.3,0c0.1,0,0.2,0.1,0.2,0.1c0.1,0.1,0.1,0.2,0.1,0.3c0,0.1,0,0.3,0,0.4V15.7z"/>
<path class="st0" d="M140.1,15.1c0-0.2-0.1-0.3-0.2-0.4c-0.1-0.1-0.2-0.2-0.4-0.3c-0.2-0.1-0.4-0.1-0.6-0.1c-0.3,0-0.7,0.1-0.9,0.4
	c-0.2,0.3-0.3,0.6-0.3,1v1.2h0.6v-1.3c0-0.1,0-0.3,0.1-0.4c0-0.1,0.1-0.2,0.1-0.3c0.1-0.1,0.1-0.1,0.2-0.1c0.1,0,0.2,0,0.3,0
	c0.1,0,0.2,0,0.3,0c0.1,0,0.1,0.1,0.2,0.1c0.1,0.1,0.1,0.2,0.1,0.3c0,0.1,0,0.3,0,0.4v1.3h0.6v-1.2
	C140.1,15.5,140.1,15.3,140.1,15.1z"/>
<path class="st0" d="M109.9,1.5c-0.1,0.1-0.2,0.1-0.4,0.2c-0.3,0.2-0.6,0.3-0.9,0.5c-0.1,0.1-0.2,0.1-0.3,0.2
	c-0.2,0.1-0.4,0.3-0.7,0.4c-0.1,0-0.3,0.1-0.4,0.2c-0.1,0.1-0.2,0.1-0.3,0.2c-0.1,0.1-0.2,0.2-0.4,0.2L106,3.7
	c-0.1,0-0.1,0.1-0.1,0.1c-0.1,0.1-0.2,0.1-0.3,0.1c-0.1,0.1-0.2,0.1-0.4,0.2h-0.1c-0.2,0.1-0.3,0.2-0.5,0.3
	c-0.2,0.1-0.4,0.2-0.6,0.3L103.7,5l0,0l-0.7,0.4l-0.3,0.2l-0.4,0.3l-0.4,0.2l-0.3,0.2l0,0l0.1-0.4c0,0,0,0,0-0.1c0,0,0-0.1,0.1-0.1
	c0-0.2,0.1-0.4,0.1-0.6s0.1-0.2,0.1-0.3s0-0.2,0.1-0.3s0-0.2,0-0.2s0.1-0.4,0.2-0.5s0.1-0.3,0.1-0.5s0.1-0.4,0.2-0.6
	s0.1-0.1,0.1-0.2c0-0.1,0-0.2,0-0.2l0.2-0.5c0-0.1,0.1-0.3,0.1-0.4c0-0.1,0-0.2,0-0.2s0-0.1-0.1-0.1s-0.2,0-0.3-0.1
	c-0.1,0-0.2-0.1-0.3-0.1l-0.5-0.1l-0.3-0.1c-0.1,0-0.2-0.1-0.4-0.1l-0.4,0l-0.6-0.1l-0.3-0.1l-0.3-0.1L98.8,0c-0.1,0-0.2,0-0.2,0.1
	c0,0.2,0,0.4,0,0.6c0,0,0,0.1,0,0.1c0,0.1,0,0.1-0.1,0.2s-0.1,0.3-0.1,0.5s0,0.2,0,0.3s0,0.1,0.1,0.1L99,2L99.2,2
	c0.1,0,0.2,0.1,0.2,0.1s0.1,0.1,0.1,0.2s-0.1,0.2-0.1,0.3s0,0.4-0.1,0.6c0,0,0,0.1,0,0.1c0,0.2-0.1,0.4-0.1,0.6l-0.4-0.1h-0.3
	l-0.4-0.1c0,0.2-0.1,0.4-0.1,0.6s0,0.5-0.1,0.7c0,0.1,0,0.2-0.1,0.3c0,0.1,0,0.2-0.1,0.3S98,5.7,98,5.7c0.1,0,0.1,0,0.2,0.1
	c0.1,0,0.2,0.1,0.3,0.1c0.2,0,0.3,0.1,0.5,0.1l-0.2,0.9c0,0.2,0,0.3-0.1,0.5s0,0.2-0.2,0.2H98l-0.3-0.1c0,0,0,0.1,0,0.2
	S97.6,7.8,97.6,8c-0.1,0.3-0.1,0.7-0.2,1c0,0.1-0.1,0.1-0.1,0.1L97,9.2l-0.3,0.2l-0.5,0.3c-0.1,0.1-0.3,0.2-0.5,0.2
	c-0.1,0-0.2,0-0.4,0l-0.5,0.1c-0.3,0.1-0.7,0-1-0.1c-0.2,0-0.3-0.1-0.5-0.1c-0.2-0.1-0.3-0.1-0.5-0.2c-0.3-0.1-0.5-0.3-0.7-0.5
	C92,9,91.8,8.8,91.6,8.8c-0.3-0.1-0.6-0.2-0.8-0.2c-0.2,0-0.4,0-0.6,0l0,0l-0.4,0.1c-0.2,0.1-0.4,0.1-0.6,0.2
	C89,9,88.9,9.1,88.7,9.2c0,0-0.1,0-0.1,0.1l-0.4,0.4L88,9.8l-0.3,0.3l-0.3,0.4c-0.1,0.1-0.1,0.2-0.1,0.3c0,0.2-0.1,0.4-0.1,0.6
	c0,0,0,0.1,0,0.1c0,0,0,0.1,0,0.1c0,0,0,0.1,0,0.1c0,0,0,0.1,0,0.1c0,0.2,0.1,0.4,0.1,0.6c0,0.1,0.1,0.2,0.1,0.3
	c0.1,0.1,0.2,0.2,0.3,0.3c0.1,0.1,0.3,0.3,0.4,0.4c0.1,0.1,0.3,0.1,0.4,0.2c0.2,0.1,0.4,0.1,0.6,0.1c0.2,0,0.3,0,0.5,0
	c-0.1,0-0.3,0.1-0.4,0.2c-0.2,0.1-0.3,0.2-0.4,0.3c-0.2,0.2-0.3,0.3-0.4,0.5c-0.1,0.1-0.2,0.3-0.2,0.4c0,0.1-0.1,0.2-0.1,0.3
	c0,0.1,0,0.2-0.1,0.4s0,0.1-0.1,0.2s0,0.3,0,0.5s0,0.4-0.1,0.5c0,0.2-0.1,0.4-0.2,0.5c-0.1,0.1-0.2,0.2-0.3,0.3s-0.2,0.1-0.3,0.2
	s-0.1,0-0.2,0.1c-0.2,0.2-0.4,0.3-0.7,0.3c-0.2,0-0.3,0.1-0.4,0.3c0,0.1,0,0.1,0,0.2c0,0.1,0,0.3,0.1,0.4s0.1,0,0.1,0.1
	c0.1,0.2,0.2,0.3,0.3,0.5c0,0.1,0.1,0.1,0.2,0.2c0,0,0.1,0,0.1,0c0-0.1,0.1-0.1,0.1-0.2c0.1-0.1,0.1-0.2,0.1-0.2s0.2-0.2,0.2-0.3
	l0.2-0.3c0.1-0.1,0.1-0.2,0.2-0.3c0.1-0.1,0.2-0.1,0.3-0.2c0.1-0.1,0.3-0.2,0.4-0.2s0,0.1,0,0.1l0.4,0.3c0.1,0.1,0.2,0.2,0.3,0.2
	c0.1,0.1,0.3,0.1,0.4,0.2c0.2,0.1,0.5,0.1,0.7,0.2c0.3,0,0.6,0,0.8-0.1l0,0c0.1,0,0.2-0.1,0.4-0.1c0.2-0.1,0.4-0.2,0.5-0.3l0.2-0.1
	c0.1-0.1,0.2-0.2,0.3-0.3c0.1-0.1,0.2-0.2,0.2-0.4c0-0.1-0.1-0.3,0-0.4s0-0.3,0-0.5s0-0.2,0-0.4s0.1-0.3,0.1-0.5
	c0.1-0.2,0.1-0.3,0.2-0.5c0-0.1,0.1-0.1,0.1-0.2c0-0.1,0.1-0.2,0.2-0.3c0.1-0.2,0.3-0.4,0.5-0.6c0.1-0.1,0.2-0.2,0.4-0.2
	c0,0,0,0,0-0.1l0,0c0.2,0,0.4,0,0.6,0.1c0.2,0.1,0.5,0,0.6-0.3c0,0,0,0,0,0c0-0.1,0.1-0.2,0.1-0.3s0.1-0.3,0.1-0.4
	c0-0.3,0.2-0.5,0.4-0.7c0.1-0.1,0.2-0.2,0.4-0.3c0.1-0.1,0.3-0.2,0.4-0.2c0.2-0.1,0.4-0.1,0.6-0.2c0.2-0.1,0.3-0.2,0.4-0.3
	c0.1-0.1,0.2-0.1,0.2-0.2l0,0c0,0.1-0.1,0.2-0.1,0.3c0,0.2-0.1,0.5-0.1,0.7s-0.1,0.4-0.1,0.7l-0.1,0.7c0,0.2,0,0.4-0.1,0.6
	c0,0.1,0,0.3,0,0.4c0,0.1-0.1,0.3-0.1,0.4s-0.1,0.5-0.1,0.7c0,0.2-0.1,0.4-0.1,0.5v0.1c0,0.1-0.1,0.3-0.1,0.5c0,0.1-0.1,0.3-0.1,0.5
	c0,0.1,0,0.3,0,0.4s0.1,0.1,0.2,0.1c0.2-0.1,0.4-0.1,0.6-0.1c0.1,0,0.3,0,0.4,0s0.3,0,0.4,0s0.3,0,0.4,0s0.4,0,0.7,0.1
	c0.1,0,0.1,0,0.2,0s0.3,0,0.4,0l0.9,0.1c0.1,0,0.1,0,0.2,0c0.3,0,0.6,0.1,0.9,0.1s0.7,0,1,0c0.1,0,0.2,0,0.3,0
	c0.1,0,0.2-0.1,0.4-0.1c0.2,0,0.3,0,0.4-0.1c0.1,0,0.2-0.1,0.4-0.1c0.1-0.1,0.2-0.1,0.3-0.2c0.1-0.1,0.2-0.2,0.3-0.3
	c0.1-0.1,0.2-0.2,0.2-0.2c0.1-0.1,0.1-0.3,0.2-0.4c0.1-0.2,0.1-0.4,0.2-0.6c0-0.2,0-0.3,0-0.5c0-0.2,0-0.4,0-0.6s0-0.2,0-0.3
	c0-0.2,0-0.3-0.1-0.5c0-0.1,0-0.2,0-0.3s-0.1-0.4-0.1-0.6s-0.1-0.2-0.2-0.2l-0.2,0.1c-0.1,0.1-0.2,0.1-0.3,0.2
	c-0.1,0.1-0.1,0.1-0.1,0.2c0,0.1,0.1,0.2,0.1,0.4c0,0.2,0,0.4,0,0.7c0,0.2,0,0.4-0.1,0.7c0,0.3-0.2,0.5-0.4,0.7
	c-0.2,0.2-0.4,0.3-0.6,0.3c-0.2,0-0.4,0.1-0.6,0.1c-0.2,0-0.4,0-0.6-0.1l-0.8-0.1l-0.4-0.1c-0.2-0.1-0.4-0.1-0.6-0.1
	c-0.3-0.1-0.7-0.2-1-0.2h-0.2l-0.5-0.1c0-0.1,0-0.2,0.1-0.3c0-0.1,0.1-0.2,0.1-0.3s0.1-0.5,0.2-0.7l0.2-0.7c0-0.2,0.1-0.3,0.1-0.5
	s0.1-0.5,0.2-0.8s0.1-0.4,0.2-0.5c0-0.2,0.1-0.5,0.2-0.7c0.1-0.3,0.2-0.5,0.2-0.8c0-0.1,0-0.2,0.1-0.3c0.1-0.2,0.1-0.4,0.2-0.6
	c0-0.1,0-0.1,0.1-0.2c0.1-0.1,0.3-0.2,0.4-0.4l0.4-0.3l0.4-0.4c0.1-0.1,0.2-0.2,0.3-0.3l0.3-0.3c0.1-0.1,0.2-0.2,0.4-0.3
	s0.1-0.1,0.2-0.2l0.6-0.4l0.2-0.2c0.1-0.1,0.1-0.1,0.2-0.2l0.4-0.3l0.4-0.3l0.4-0.3c0.1-0.1,0.2-0.2,0.3-0.3L106,5l0.3-0.3l0.5-0.4
	l0.7-0.6c0.1-0.1,0.3-0.2,0.4-0.3l0.3-0.3l0.3-0.2l0.3-0.2c0.1-0.1,0.2-0.2,0.3-0.3l0.3-0.2l0.4-0.3c0.1-0.1,0.2-0.1,0.2-0.3
	C110,1.5,109.9,1.5,109.9,1.5z M89.5,12.9c-0.2,0-0.5,0-0.7-0.1c-0.1,0-0.2-0.1-0.3-0.1l-0.5-0.3c-0.1,0-0.1-0.1-0.2-0.2
	c-0.1-0.1-0.1-0.2-0.2-0.3c-0.1-0.1-0.1-0.2-0.1-0.3c0-0.2,0-0.4,0.1-0.5c0.1-0.1,0.1-0.3,0.2-0.4v-0.1l0.1-0.1l0,0l0.1-0.1
	c0.1-0.1,0.1-0.2,0.2-0.3c0.1-0.1,0.2-0.2,0.3-0.3c0.1-0.1,0.2-0.2,0.4-0.2c0,0,0.1-0.1,0.1-0.1c0.2-0.1,0.5-0.2,0.8-0.3
	c0.4-0.1,0.8,0,1.1,0.2c0.2,0.1,0.4,0.2,0.5,0.4c0.2,0.2,0.3,0.5,0.2,0.8c0,0.1,0,0.2-0.1,0.3c-0.1,0.2-0.2,0.4-0.3,0.6
	s-0.2,0.2-0.3,0.4c-0.1,0.1-0.1,0.2-0.2,0.3c-0.1,0.2-0.3,0.3-0.5,0.4c-0.1,0-0.2,0.1-0.3,0.1c-0.1,0-0.2,0.1-0.2,0.1
	C89.8,12.8,89.6,12.9,89.5,12.9z M92.2,16.4c0,0.1,0,0.2,0,0.3c0,0.1-0.1,0.1-0.1,0.2c0,0.1,0,0.2-0.1,0.3c-0.1,0.1-0.1,0.3-0.2,0.4
	s0,0.1-0.1,0.1c-0.1,0.2-0.3,0.4-0.5,0.5c-0.1,0.1-0.3,0.2-0.4,0.2c-0.2,0.1-0.5,0.1-0.8,0.1c-0.2-0.1-0.4-0.1-0.6-0.2
	c-0.1-0.1-0.2-0.1-0.3-0.2L89,17.9c-0.1-0.1-0.2-0.2-0.2-0.2c-0.1-0.1-0.1-0.2-0.1-0.3c0-0.1-0.1-0.2-0.1-0.2c0-0.1,0-0.2-0.1-0.2
	s0-0.1,0-0.2v-0.6c0-0.1,0-0.1,0-0.2l0,0c0-0.1,0-0.2,0.1-0.2s0.1-0.3,0.2-0.5c0-0.1,0.1-0.1,0.2-0.2l0.2-0.3c0,0,0.1,0,0.1-0.1
	c0.1-0.1,0.2-0.2,0.4-0.3c0.1,0,0.2-0.1,0.3-0.1l0.5-0.1c0.3,0,0.5,0,0.8,0.1c0.1,0.1,0.3,0.1,0.4,0.2c0.1,0.1,0.2,0.1,0.3,0.2
	c0.1,0.2,0.2,0.3,0.2,0.5c0.1,0.2,0.1,0.5,0.1,0.8C92.3,16.2,92.3,16.3,92.2,16.4z M95.6,11v0.2c0,0.2,0,0.4,0,0.6
	c0,0.2-0.1,0.4-0.2,0.6c-0.1,0.2-0.3,0.5-0.5,0.6c-0.2,0.2-0.3,0.3-0.5,0.4c-0.2,0.1-0.4,0.3-0.6,0.4c-0.1,0-0.2,0.1-0.3,0.1
	c-0.1,0.1-0.2,0.1-0.4,0.1c-0.2,0-0.4,0-0.5,0c-0.1,0-0.2,0-0.3,0c-0.2-0.1-0.3-0.1-0.5-0.2l-0.3-0.1l-0.3-0.1
	c-0.1,0-0.2-0.1-0.3-0.1s-0.2-0.1-0.3,0h0.1c0.1-0.1,0.3-0.1,0.4-0.2c0.1-0.1,0.1-0.2,0.1-0.2c0.1-0.2,0.2-0.4,0.3-0.5
	c0.1-0.1,0.2-0.3,0.3-0.4c0.1-0.1,0.3-0.2,0.4-0.4s0.2-0.2,0.3-0.3s0.2-0.2,0.4-0.3c0.1,0,0.1-0.1,0.2-0.1l0.7-0.4
	c0.2-0.1,0.5-0.2,0.7-0.2c0.3,0,0.7,0,1,0c0.1,0,0.3,0,0.4,0.1C95.7,10.7,95.6,10.9,95.6,11z M98.9,10.1c-0.1,0-0.2,0-0.2,0
	c-0.2-0.1-0.3-0.2-0.3-0.4c0-0.1-0.1-0.3-0.1-0.4c0-0.2,0.1-0.4,0.2-0.6c0.2-0.1,0.4-0.1,0.5-0.1c0.2,0.1,0.4,0.4,0.4,0.6v0.1
	C99.4,9.7,99.2,10,98.9,10.1L98.9,10.1z"/>
<path class="st0" d="M98.7,9c-0.1,0.1-0.2,0.2-0.2,0.4c0,0.1,0,0.2,0.1,0.2c0.1,0.1,0.1,0.2,0.3,0.2s0.2-0.1,0.2-0.2
	c0.1-0.1,0.1-0.3,0-0.5c0-0.1-0.2-0.2-0.3-0.2C98.7,8.9,98.7,9,98.7,9z"/>
<path class="st0" d="M0.8,15.6L1,15.5C0.9,15.6,0.9,15.6,0.8,15.6z"/>
<path class="st0" d="M0.6,15.8c0.1-0.1,0.1-0.1,0.2-0.2L0.6,15.8z"/>
<path class="st0" d="M4.6,10.6C6,10.4,7.3,9.8,8.3,8.8C8.9,8.4,9.2,7.7,9.2,7c0-0.5-0.4-1-0.9-1.1C7.9,5.7,7.4,6,7.2,6.4
	c0,0.1,0,0.2,0,0.2C7.4,6.2,7.7,5.9,8,6c0.1,0,0.2,0.1,0.3,0.1c1,0.4,0.8,1.5,0,2.4c-0.4,0.4-0.9,0.8-1.4,1C6.5,9.7,6,9.9,5.6,10
	c-0.5,0.1-1.1,0.2-1.6,0.2v0.2C4.2,10.5,4.4,10.6,4.6,10.6z"/>
<path class="st0" d="M27.9,7.9c2.2-0.9,2.7-2.1,2.4-3c0.8-0.3,1.4-0.7,1.4-1.2S31.5,3,30.9,2.6c0.3-0.1,0.6-0.3,0.9-0.6
	c1-1.9-0.9-2.2-3.6-2.1c-1.6,0-3.2,0.3-4.7,1l0,0l0,0c-0.1,0.1,0.1,0,0.4,0L25,0.8c0.6-0.1,1.4-0.2,2.2-0.3h0.2
	c0.5,0,0.9-0.1,1.3-0.1H29c2.8,0,2.3,1.1,2.3,1.1c-0.4,0.9-2.4,0.6-3.8,0.6h-0.1c-0.6-0.1-1.2-0.2-1.9-0.4c-2.8-0.7-5.7-1.3-8.6-1.6
	c-2.1-0.2-4.1,0.1-6,1l0,0C10.4,0.9,10,0.8,9.5,0.8C9.1,0.7,8.7,0.7,8.3,0.7C7,0.8,5.8,1.3,4.8,2C1.4,4,0.1,7.5,1.6,9.5
	c0.5,0.6,1.3,1,2.2,1v-0.1c0,0,0-0.1,0-0.1c-0.5,0-1-0.2-1.5-0.4C0.7,8.8,1.1,5.7,3.1,3.7C4.8,2.1,6.3,1.1,8.3,1c0.3,0,0.7,0,1,0
	h0.1L9.7,1c0.3,0,0.6,0.1,0.8,0.2h-0.1c-0.3,0.2-0.6,0.3-0.9,0.5L9.5,1.8C9.2,2.1,8.9,2.3,8.6,2.5C8.8,2.4,9,2.3,9.3,2.1
	c0.5-0.3,1.1-0.5,1.6-0.7c0.4,0.3,0.8,0.7,1.1,1.2l-0.3,0.1h-0.1C10.4,3,9.3,3.4,8.3,4.1L8,4.3c-0.9,0.6-3.9,3.5-4.2,6.1H4
	C4,10.1,4,9.9,4.1,9.6c0.9-2.1,2.4-4,4.2-5.3C8.5,4.2,8.6,4.1,8.8,4c0.9-0.5,1.8-0.8,2.8-1c0.2-0.1,0.4-0.1,0.6-0.1c0,0,0-0.1,0-0.1
	c0,0,0,0,0.1,0.1l0,0c0.2,0.4,0.3,0.7,0.4,1.1c-0.2,0-0.4,0.1-0.7,0.2l-0.2,0.1c-0.1,0-0.3,0.1-0.4,0.1L11,4.5
	c-0.4,0.2-0.8,0.4-1.1,0.8c0.8-0.5,1.8-0.8,2.7-0.8c0.1,0.8,0.1,1.6-0.1,2.4c-0.3,1.4-0.9,2.8-1.8,3.9C10.3,11.4,9.7,12,9,12.5
	c-0.2,0.2-0.5,0.3-0.7,0.4c-3,1.6-4.5-0.2-4.4-2.4H3.8c-0.1,1.1,0.4,2.9,1.9,3.1c0.9,0.2,1.8,0.1,2.7-0.2c2.1-0.9,3.6-2.6,4.3-4.8
	c0.5-1.3,0.7-2.8,0.4-4.2c1.9,0.2,3.7,0.7,5.3,1.7c-0.6,0.5-1.2,1.1-1.7,1.8c-0.2,0.3-0.5,0.7-0.8,1c-0.9,1.3-1.9,3-3.3,5
	c-0.6,0.9-1.4,1.9-2.2,2.9c-0.6,0.8-1.3,1.4-2.1,1.9c-1.7,1.1-3.8,1.4-5.7,0.8c-2.9-0.9-2.8-2.9-2.2-3.6l0.1-0.1
	c-1.3,1-0.4,3.1,1.2,3.8c2.1,0.7,4.4,0.7,6.5,0c1.4-0.4,2.6-1.1,3.7-2c0.2-0.2,0.4-0.3,0.6-0.5c2.2-2.2,2.9-4.8,4-7.1l0.1-0.1
	c0.5-1.3,1.3-2.4,2.1-3.5C21.1,7.6,25.7,8.8,27.9,7.9z M29.7,4.6c-0.8,0.1-1.6,0.1-2.4,0c-0.8-0.1-1.6-0.3-2.4-0.4
	c1-0.2,1.9-0.3,2.9-0.3C28.6,3.9,29.2,4.1,29.7,4.6z M24.9,5.4H25c0.8,0.1,1.6,0.2,2.4,0.2c0.9,0,1.8-0.2,2.6-0.5
	c0,0.4-0.2,0.8-0.8,1.3c-0.4,0.3-0.9,0.5-1.3,0.5h-0.4c-0.3,0-0.7,0-1,0c-1.8-0.1-3.5-0.5-5.2-1.1c-0.4-0.2-0.8-0.3-1.2-0.5l0.3-0.2
	c0.3-0.2,0.5-0.3,0.8-0.5c0.9,0.3,1.8,0.6,2.7,0.7L24.9,5.4z M30.9,4.3c-0.2,0.1-0.5,0.2-0.8,0.3c-0.4-0.7-1.1-1.1-1.9-1.1
	c-1.1,0-2.1,0.1-3.1,0.5L25,4l-0.3,0.1l-0.8-0.2c-0.3-0.1-0.6-0.1-0.9-0.2c0.3-0.1,0.6-0.2,0.9-0.3L25,3h0.2
	c1.7,0.3,3.5,0.2,5.2-0.1C31.5,3.2,31.6,3.9,30.9,4.3L30.9,4.3z M11.2,1.4c1.4-0.4,2.9-0.6,4.3-0.6C17.7,1,19.7,1.4,21.8,2l1.6,0.5
	l1.1,0.4l0.1,0C24.4,3,24.2,3,23.9,3.1c-0.4,0.1-0.9,0.3-1.3,0.5c-0.7-0.2-1.5-0.4-2.2-0.6l-1.1-0.3c-0.8-0.2-1.7-0.4-2.6-0.5
	c-1.2-0.1-2.5,0-3.7,0.2l-0.3,0.1l0,0l-0.3,0.1C12.1,2.1,11.7,1.7,11.2,1.4z M12.8,3.5c-0.1-0.2-0.1-0.4-0.2-0.5l0,0l0,0l-0.1-0.2
	h0.1h0.3c1.3-0.1,2.5,0,3.7,0.4c1,0.2,1.8,0.6,2.5,0.8l1.2,0.4c0.1,0.1,0.3,0.1,0.4,0.1l-0.4,0.2c-0.2,0.2-0.5,0.3-0.7,0.5
	c-1.7-0.8-3.6-1.2-5.5-1.3c-0.4,0-0.8,0-1.2,0.1C13,3.8,12.9,3.7,12.8,3.5z"/>
<path class="st0" d="M20.7,16.2h1.4v-0.7h-1.5v-0.7h-0.7v0.7h-1.7v0.7h1.5c-0.4,0.8-1,1.5-1.6,2.1l0.6,0.5c0.5-0.5,0.9-1,1.3-1.6
	v2.5h0.7V17c0.4,0.5,0.8,0.9,1.1,1.3l0.5-0.5C21.7,17.3,21.2,16.7,20.7,16.2z"/>
<path class="st0" d="M22.4,13l-0.6-0.2c-0.2,0.7-0.5,1.4-0.9,2l0.6,0.3C21.8,14.4,22.1,13.7,22.4,13z"/>
<path class="st0" d="M21.8,19l0.4,0.7c1.6-0.6,2.9-1.7,3.9-3l0.1-0.1l-0.6-0.5C24.7,17.5,23.3,18.5,21.8,19z"/>
<path class="st0" d="M22.9,16.4c1.1-0.4,2.2-1.1,3-1.9L25.3,14c-0.8,0.8-1.8,1.4-2.8,1.8L22.9,16.4z"/>
<path class="st0" d="M18.7,14.9l0.6-0.2c-0.1-0.6-0.3-1.1-0.6-1.7l-0.6,0.2C18.3,13.8,18.5,14.3,18.7,14.9z"/>
<path class="st0" d="M19.9,14.4h0.7c0-0.5-0.1-1-0.2-1.5l-0.7,0.1C19.8,13.4,19.9,13.9,19.9,14.4z"/>
<path class="st0" d="M22.1,11.6c-1.3,0.2-2.6,0.4-3.9,0.4l0.1,0.7c1.3,0,2.6-0.1,3.9-0.4L22.1,11.6z"/>
<path class="st0" d="M25.1,11.6c-0.7,0.7-1.6,1.3-2.6,1.7l0.4,0.6c1-0.4,2-1,2.8-1.8L25.1,11.6z"/>
<path class="st0" d="M34.5,12.8l-0.5-0.5c-0.3,0.4-0.6,0.8-1,1.2l-0.5-0.4c0.3-0.3,0.6-0.6,0.9-0.9l-0.5-0.5c-0.2,0.2-0.5,0.6-0.9,1
	c-0.2-0.2-0.4-0.4-0.6-0.6c0-0.1-0.1-0.1-0.2-0.1h-2.7v0.7h1.7c-0.4,0.3-0.7,0.6-1.1,0.8c-0.4-0.3-0.8-0.6-1.2-0.8l-0.4,0.6
	c0.2,0.1,0.5,0.4,0.9,0.6c-0.5,0.2-0.9,0.4-1.4,0.6l0.4,0.7c1.4-0.5,2.7-1.3,3.8-2.4c0.9,1.1,2.2,1.9,3.6,2.3l0.4-0.7
	c-0.5-0.1-0.9-0.2-1.3-0.4C33.8,13.5,34.1,13.2,34.5,12.8z"/>
<rect x="29.3" y="14" class="st0" width="3.2" height="0.7"/>
<path class="st0" d="M32.9,17.5h0.9c0.1,0,0.2-0.1,0.2-0.2v-2c0-0.1-0.1-0.2-0.2-0.2H28c-0.1,0-0.2,0.1-0.2,0.2v2
	c0,0.1,0,0.2,0.1,0.2c0,0,0,0,0,0h0.7l0.4,1.3h-2v0.7h7.3v-0.7h-2L32.9,17.5z M28.6,16.9L28.6,16.9v-1l0,0h4.7l0,0v0.9v0H28.6z
	 M31.7,18.9h-1.8l-0.4-1.3h2.6L31.7,18.9z"/>
<path class="st0" d="M37.3,14.4c-0.4-0.3-0.9-0.6-1.4-0.8l-0.4,0.7c0.5,0.2,1,0.5,1.4,0.8L37.3,14.4z"/>
<path class="st0" d="M37.5,12.6c-0.4-0.3-0.9-0.6-1.4-0.8l-0.4,0.6c0.5,0.2,1,0.5,1.4,0.8L37.5,12.6z"/>
<path class="st0" d="M38.3,18.7c-0.2-0.1-0.4-0.2-0.5-0.4c-0.1-0.1-0.3-0.3-0.3-0.5v-2c0-0.1-0.1-0.2-0.2-0.2h-1.5v0.7h0.8
	c0.1,0,0.1,0,0.1,0.1V18c0,0.2-0.1,0.4-0.2,0.5c-0.3,0.3-0.6,0.4-0.9,0.5l0.4,0.7c0.3-0.1,0.5-0.3,0.7-0.5c0.2-0.2,0.4-0.4,0.5-0.6
	c0.4,0.6,1.3,0.9,2.8,0.9c1.1,0,2.3,0,3.5,0l0.2-0.8C41.8,19,40,18.9,38.3,18.7z"/>
<path class="st0" d="M38.3,15.7v2.5c0,0.1,0,0.1,0.1,0.1H43c0.1,0,0.1,0,0.1-0.1v-2.5c0-0.1,0-0.1-0.1-0.1h-4.6
	C38.3,15.6,38.3,15.6,38.3,15.7z M39,16.3L39,16.3h3.4l0,0v1.2l0,0H39l0,0L39,16.3z"/>
<path class="st0" d="M37.9,14.1c0.3-0.3,0.5-0.6,0.8-0.9h1.7v1h-2.4v0.7h5.6v-0.7H41v-1h2.3v-0.7H41v-0.8h-0.7v0.8H39
	c0.1-0.2,0.1-0.4,0.2-0.7l-0.7-0.2c-0.1,0.4-0.2,0.8-0.4,1.1c-0.2,0.3-0.4,0.6-0.7,0.8L37.9,14.1z"/>
<rect x="49.6" y="12.2" class="st0" width="0.7" height="3.1"/>
<polygon class="st0" points="48.7,17.9 51.6,17.9 51.6,17.2 48.7,17.2 48.7,16.6 48,16.6 48,17.2 45.2,17.2 45.2,17.9 48,17.9 
	48,18.8 44.5,18.8 44.5,19.5 52.3,19.5 52.3,18.8 48.7,18.8 "/>
<path class="st0" d="M44.3,16.3l0.6,0.5c0.7-0.5,1.2-1.3,1.3-2.1h1.2v1.8h0.8v-1.8h1.1V14h-1.1v-1.4h1v-0.7h-4.5v0.7h0.9v1
	c0,0.1,0,0.2,0,0.3h-1.1v0.7h1C45.3,15.3,44.9,15.9,44.3,16.3z M46.3,13.7v-1h1V14h-1C46.3,13.9,46.3,13.8,46.3,13.7z"/>
<path class="st0" d="M49.8,16.7c0.6,0.2,1.3,0.2,1.9,0c0.2-0.2,0.4-0.4,0.4-0.7v-4.3h-0.8v4c0,0.1,0,0.2-0.1,0.2
	c-0.1,0.1-0.2,0.1-0.3,0.1c-0.2,0-0.3,0-0.5,0c-0.2,0-0.4-0.1-0.7-0.1L49.8,16.7z"/>
<polygon class="st0" points="55.8,17.5 54.5,17.5 54.5,15.4 53.9,15.4 53.9,19.7 54.5,19.7 54.5,17.8 55.8,17.8 55.8,19.7 
	56.5,19.7 56.5,15.4 55.8,15.4 "/>
<path class="st0" d="M59.5,17.2C59.3,17.1,59.2,17,59,17c-0.2-0.1-0.4-0.1-0.7-0.1c-0.2,0-0.4,0-0.6,0.1c-0.2,0.1-0.3,0.2-0.4,0.3
	c-0.1,0.1-0.2,0.3-0.2,0.5c-0.1,0.2-0.1,0.4-0.1,0.6c0,0.2,0,0.4,0.1,0.6c0,0.2,0.1,0.3,0.2,0.4c0.1,0.1,0.3,0.2,0.4,0.3
	c0.2,0.1,0.4,0.1,0.6,0.1c0.1,0,0.2,0,0.2,0c0.1,0,0.1,0,0.2-0.1c0.1,0,0.1-0.1,0.2-0.2c0.1-0.1,0.1-0.2,0.2-0.3v0.6h0.7v-1.5
	c0-0.2,0-0.4-0.1-0.6C59.7,17.5,59.6,17.4,59.5,17.2z M59.2,18.2c0,0.3-0.1,0.6-0.2,0.9c-0.1,0.2-0.3,0.3-0.6,0.3
	c-0.1,0-0.2,0-0.3,0c-0.1,0-0.2-0.1-0.2-0.1c-0.1-0.1-0.1-0.2-0.2-0.3c0-0.2-0.1-0.3-0.1-0.5v-0.2c0-0.2,0-0.3,0.1-0.5
	c0-0.1,0.1-0.2,0.2-0.3c0.1-0.1,0.2-0.1,0.2-0.2c0.2-0.1,0.4-0.1,0.6,0c0.1,0,0.2,0.1,0.2,0.2c0.1,0.1,0.1,0.2,0.2,0.3
	C59.2,17.9,59.2,18,59.2,18.2L59.2,18.2z"/>
<rect x="60.4" y="16.8" class="st0" width="0.7" height="2.8"/>
<path class="st0" d="M60.7,15.4c-0.1,0-0.2,0-0.3,0.1c-0.1,0.1-0.1,0.2-0.1,0.3c0,0.1,0,0.2,0.1,0.3c0.1,0.1,0.2,0.1,0.3,0.1h0.2
	l0.1-0.1l0.1-0.1v-0.1c0-0.1,0-0.2-0.1-0.3C60.9,15.5,60.8,15.5,60.7,15.4z"/>
<path class="st0" d="M63.3,16.9c-0.4,0-0.9,0.1-1.2,0.4c-0.3,0.3-0.5,0.7-0.4,1.1v1.3h0.7v-1.6c0-0.2,0-0.3,0.1-0.5
	c0-0.1,0.1-0.2,0.2-0.3c0.1-0.1,0.2-0.1,0.3-0.2c0.1,0,0.2,0,0.3,0h0.1h0.1v-0.3L63.3,16.9L63.3,16.9z"/>
<path class="st0" d="M68.6,18c-0.1-0.1-0.1-0.2-0.2-0.3c-0.1-0.1-0.2-0.2-0.3-0.2l-0.8-0.4L66.8,17c-0.1,0-0.2-0.1-0.2-0.2
	c-0.1-0.1-0.1-0.1-0.2-0.2l-0.1-0.2c0-0.1,0-0.2,0.1-0.3c0-0.1,0.1-0.1,0.2-0.2c0.1-0.1,0.2-0.1,0.3-0.1c0.1,0,0.2,0,0.3-0.1
	l0.5,0.1c0.1,0,0.2,0.1,0.3,0.1c0.1,0,0.2,0.1,0.3,0.1c0.1,0,0.2,0.1,0.3,0.1c0-0.2,0-0.3,0.1-0.5c-0.3-0.1-0.5-0.2-0.8-0.2
	c-0.3,0-0.5-0.1-0.8-0.1c-0.4,0-0.7,0.1-1,0.3c-0.2,0.2-0.4,0.5-0.3,0.8c0,0.2,0.1,0.4,0.2,0.6c0.2,0.2,0.4,0.4,0.7,0.4l0.9,0.3
	c0.1,0,0.2,0.1,0.2,0.1c0.1,0.1,0.1,0.1,0.2,0.2c0,0.1,0.1,0.2,0.1,0.2c0.1,0.2,0.1,0.3,0,0.5c0,0.1-0.1,0.2-0.2,0.2
	c-0.1,0.1-0.2,0.1-0.3,0.1c-0.1,0-0.2,0-0.3,0c-0.1,0-0.3,0-0.4,0c-0.1,0-0.2,0-0.3-0.1c-0.1,0-0.2-0.1-0.3-0.1
	c-0.1-0.1-0.2-0.1-0.3-0.2c0,0.1,0,0.2,0,0.3c0,0.1,0,0.2,0,0.2c0.2,0.1,0.5,0.1,0.8,0.2c0.3,0.1,0.5,0.1,0.8,0.1
	c0.2,0,0.4,0,0.5-0.1c0.2,0,0.3-0.1,0.4-0.2c0.1-0.1,0.2-0.2,0.3-0.3c0.1-0.1,0.1-0.3,0.1-0.5c0-0.1,0-0.2,0-0.3
	C68.7,18.2,68.6,18.1,68.6,18z"/>
<path class="st0" d="M71.7,17.2c-0.1-0.1-0.3-0.2-0.5-0.2c-0.2-0.1-0.4-0.1-0.7-0.1c-0.2,0-0.4,0-0.6,0.1c-0.2,0.1-0.3,0.2-0.4,0.3
	c-0.1,0.1-0.2,0.3-0.2,0.5c-0.1,0.2-0.1,0.4-0.1,0.6c0,0.2,0,0.4,0.1,0.6c0,0.2,0.1,0.3,0.2,0.4c0.1,0.1,0.3,0.2,0.4,0.3
	c0.2,0.1,0.4,0.1,0.6,0.1c0.1,0,0.2,0,0.2,0c0.1,0,0.1,0,0.2-0.1c0.1,0,0.1-0.1,0.2-0.2c0.1-0.1,0.1-0.2,0.2-0.3v0.6H72v-1.5
	c0-0.2,0-0.4-0.1-0.6C71.9,17.5,71.8,17.4,71.7,17.2z M71.4,18.2c0,0.3-0.1,0.6-0.2,0.9c-0.1,0.2-0.3,0.3-0.6,0.3
	c-0.1,0-0.2,0-0.3,0c-0.1,0-0.2-0.1-0.2-0.1c-0.1-0.1-0.1-0.2-0.2-0.3c0-0.2,0-0.3,0-0.5v-0.2c0-0.2,0-0.3,0-0.5
	c0-0.1,0.1-0.2,0.2-0.3c0.1-0.1,0.2-0.1,0.2-0.2c0.1,0,0.2,0,0.3,0c0.1,0,0.2,0,0.3,0c0.1,0,0.2,0.1,0.2,0.2
	c0.1,0.1,0.1,0.2,0.2,0.3C71.3,17.9,71.4,18,71.4,18.2L71.4,18.2z"/>
<path class="st0" d="M73.5,19.1c-0.1-0.1-0.2-0.2-0.2-0.3c-0.1-0.1-0.1-0.3-0.1-0.5v-2.9h-0.7v2.7c0,0.4,0.1,0.8,0.4,1.1
	c0.3,0.3,0.7,0.4,1.1,0.4v-0.3c-0.1,0-0.2,0-0.3-0.1C73.6,19.2,73.5,19.2,73.5,19.1z"/>
<path class="st0" d="M76.7,17.3c-0.1-0.1-0.3-0.2-0.4-0.3c-0.2-0.1-0.4-0.1-0.6-0.1c-0.2,0-0.4,0.1-0.6,0.1
	c-0.2,0.1-0.3,0.2-0.4,0.3c-0.1,0.1-0.2,0.3-0.3,0.5c-0.1,0.2-0.1,0.4-0.1,0.5c0,0.2,0,0.4,0.1,0.5c0.1,0.2,0.1,0.3,0.3,0.4
	c0.1,0.1,0.3,0.2,0.4,0.3c0.2,0.1,0.4,0.1,0.7,0.1c0.2,0,0.4,0,0.6-0.1c0.2-0.1,0.3-0.2,0.4-0.3c0.1-0.1,0.2-0.3,0.3-0.4
	c0.1-0.2,0.1-0.4,0.1-0.5c0-0.2,0-0.4-0.1-0.5C76.9,17.6,76.8,17.4,76.7,17.3z M76.4,18.4c0,0.2,0,0.3-0.1,0.5
	c0,0.1-0.1,0.2-0.2,0.3c-0.1,0.1-0.2,0.1-0.2,0.1c-0.2,0.1-0.4,0.1-0.6,0c-0.1,0-0.2-0.1-0.2-0.2c-0.1-0.1-0.1-0.2-0.2-0.3
	c0-0.2-0.1-0.3-0.1-0.5v-0.2c0-0.2,0-0.3,0.1-0.5c0-0.1,0.1-0.2,0.2-0.3c0.1-0.1,0.2-0.1,0.2-0.2c0.2-0.1,0.4-0.1,0.6,0
	c0.1,0,0.2,0.1,0.2,0.2c0.1,0.1,0.1,0.2,0.2,0.3c0,0.2,0.1,0.3,0.1,0.5V18.4z"/>
<path class="st0" d="M80,17.3c-0.1-0.1-0.3-0.2-0.4-0.3c-0.2-0.1-0.4-0.1-0.6-0.1c-0.4,0-0.8,0.1-1.1,0.4c-0.3,0.3-0.4,0.7-0.4,1.1
	v1.3h0.7v-1.5c0-0.2,0-0.3,0-0.5c0-0.1,0.1-0.2,0.2-0.3c0.1-0.1,0.2-0.1,0.2-0.2c0.1,0,0.2,0,0.3,0c0.1,0,0.2,0,0.3,0
	c0.1,0,0.2,0.1,0.2,0.2c0.1,0.1,0.1,0.2,0.1,0.3c0,0.2,0,0.3,0,0.5v1.5h0.7v-1.3c0-0.2,0-0.4-0.1-0.6C80.1,17.6,80.1,17.4,80,17.3z"
	/>
</svg>
