<svg id="圖層_1" data-name="圖層 1" xmlns="http://www.w3.org/2000/svg" viewBox="0 0 140.15 20.15"><defs><style>.cls-1{fill:#231815;}</style></defs><title>logo</title><path class="cls-1" d="M114.27,7.53h2.57V6.9H114V5.53h.18a16,16,0,0,0,2.05-.27l-.1-.62A29.68,29.68,0,0,1,111,5l.07.64c.63,0,1.4,0,2.31-.08V6.9h-2.85v.63h2.68a9.63,9.63,0,0,1-3,2.33l.45.55a9.55,9.55,0,0,0,2.72-2.16v3.18H114V8.18a11.06,11.06,0,0,0,2.61,2.22l.51-.5A8.38,8.38,0,0,1,114.27,7.53Z"/><path class="cls-1" d="M118.26,9.66A14.82,14.82,0,0,0,119.05,8v3.47h.64V7.37c.31.42.57.81.8,1.17l.5-.39c-.41-.57-.84-1.13-1.3-1.66V6.37h1V5.74h-1V4.59h-.64V5.74h-1.23v.63H119a9.15,9.15,0,0,1-1.34,3.1Z"/><path class="cls-1" d="M122.87,6.37h1.47V5.74h-1.57V4.59h-.63V5.74H121v.63h1a12,12,0,0,1-.59,1.83,11.66,11.66,0,0,1-1.17,2l.63.21a11.23,11.23,0,0,0,1.26-2.65v3.68h.63V7.6a18.17,18.17,0,0,0,1.28,2.78l.55-.32A21,21,0,0,1,122.87,6.37Z"/><path class="cls-1" d="M131.16,5.13l-.36-.5a4.49,4.49,0,0,1-1.9.83l.23.58A5.34,5.34,0,0,0,131.16,5.13Z"/><path class="cls-1" d="M129.27,7.08a5.68,5.68,0,0,0,2.31-1l-.35-.49a5.18,5.18,0,0,1-2.19.94Z"/><path class="cls-1" d="M129,7.61l.17.59A5.78,5.78,0,0,0,132,6.94l-.38-.47a4.72,4.72,0,0,1-1.94,1Z"/><path class="cls-1" d="M130.93,8.89l.2-.55a4.76,4.76,0,0,0-.94-.3L130,8.6A4.6,4.6,0,0,1,130.93,8.89Z"/><path class="cls-1" d="M131.9,11.44l0-.63a6.74,6.74,0,0,1-2.33,0l0,0a8.45,8.45,0,0,0,1-.63l-.34-.5a7.67,7.67,0,0,1-1.53.87,3.52,3.52,0,0,1-1.18-.94H132V9h-4.07a2.78,2.78,0,0,1,.16-.4l-.41-.16.62-.05.22.32.48-.29c-.14-.22-.35-.51-.65-.89h.54V7h-2.56v-.3h2.18v-.4h-2.18V6h2.18v-.4h-2.18V5.33a.05.05,0,0,1,.06-.06h2.21V4.75h-2.72c-.08,0-.13,0-.12.13V7h-.6V7.5h.6c-.06.18-.13.35-.2.52l-.44,0c.06.2.11.39.15.56l2.22-.18q-.14.29-.24.54h-2.06v.57h1.74a5.47,5.47,0,0,1-1.81,1.39l.42.49A6.38,6.38,0,0,0,127.29,10a5.37,5.37,0,0,0,.85.68,8.22,8.22,0,0,1-1.43.19l.14.62a9,9,0,0,0,2-.43A5.74,5.74,0,0,0,131.9,11.44ZM126.19,8c.06-.18.12-.34.17-.48h1.48l-.15.11a2.06,2.06,0,0,0,.21.25Z"/><path class="cls-1" d="M133.63,5.63s0-.07.07-.07h5.59V5h-2.86V4.56h-.63V5h-2.62a.15.15,0,0,0-.16.16V8.38a11,11,0,0,1-.09,1.43,5.93,5.93,0,0,1-.4,1.32l.58.21a6.84,6.84,0,0,0,.52-2.77Z"/><path class="cls-1" d="M137.75,10.17l0,.67a1.69,1.69,0,0,0,1.23-.07.76.76,0,0,0,.31-.4A1.72,1.72,0,0,0,139.27,9a3.43,3.43,0,0,0-.61-.85.07.07,0,0,1,0-.1l.71-1.84L139,5.88h-1.9A.1.1,0,0,0,137,6v5.49h.6V6.54a.07.07,0,0,1,.08-.08h1l0,.06L138,8.08a.25.25,0,0,0,.08.2,3.09,3.09,0,0,1,.79,1.24c0,.39,0,.64-.22.75A1.47,1.47,0,0,1,137.75,10.17Z"/><path class="cls-1" d="M135,5.75v.51h-.85a.15.15,0,0,0-.16.17v4.35l-.53.11.17.58L136,11l.11.41.55-.13a12.47,12.47,0,0,0-.52-1.62l-.55.16c0,.1.11.3.22.61l-1.19.25V9.37h1.77c.12,0,.18-.06.18-.19V6.43c0-.11-.06-.16-.18-.17h-.69V5.75ZM136,8.7a.08.08,0,0,1-.09.09H134.6V8.12H136Zm-.14-1.86c.09,0,.14,0,.14.13v.57H134.6V7c0-.09.05-.13.14-.13Z"/><polygon class="cls-1" points="112.11 14.94 111 14.94 111 13.08 110.44 13.08 110.44 16.83 111 16.83 111 15.16 112.11 15.16 112.11 16.83 112.67 16.83 112.67 13.08 112.11 13.08 112.11 14.94"/><path class="cls-1" d="M114.17,16.54a.72.72,0,0,1-.27-.15.73.73,0,0,1-.19-.26,1,1,0,0,1-.08-.42V13.09h-.55v2.44a1.29,1.29,0,0,0,.35,1,1.45,1.45,0,0,0,1,.35h1v-.25h-1A1.54,1.54,0,0,1,114.17,16.54Z"/><polygon class="cls-1" points="119.19 14.94 118.08 14.94 118.08 13.08 117.53 13.08 117.53 16.83 118.08 16.83 118.08 15.16 119.19 15.16 119.19 16.83 119.75 16.83 119.75 13.08 119.19 13.08 119.19 14.94"/><path class="cls-1" d="M122.32,14.67a1.09,1.09,0,0,0-.39-.25,1.82,1.82,0,0,0-.57-.08,1.71,1.71,0,0,0-.54.08,1.05,1.05,0,0,0-.36.25,1.07,1.07,0,0,0-.22.39,1.72,1.72,0,0,0-.08.52,1.62,1.62,0,0,0,.08.52,1.07,1.07,0,0,0,.22.39.93.93,0,0,0,.36.25,1.46,1.46,0,0,0,.54.08.75.75,0,0,0,.21,0,.38.38,0,0,0,.17-.08.75.75,0,0,0,.16-.15,1.28,1.28,0,0,0,.16-.26v.5h.56V15.58a2.7,2.7,0,0,0-.08-.52A1.24,1.24,0,0,0,122.32,14.67Zm-.26.83a1.37,1.37,0,0,1-.18.77.55.55,0,0,1-.49.26,1.12,1.12,0,0,1-.27,0,.48.48,0,0,1-.22-.15.59.59,0,0,1-.14-.26,1.73,1.73,0,0,1-.05-.42v-.18a1.73,1.73,0,0,1,.05-.42.69.69,0,0,1,.14-.27.45.45,0,0,1,.22-.13.93.93,0,0,1,.54,0,.46.46,0,0,1,.22.14.69.69,0,0,1,.14.27,1.62,1.62,0,0,1,0,.41Z"/><path class="cls-1" d="M123.39,13.09a.33.33,0,0,0-.25.11.36.36,0,0,0-.11.26.37.37,0,0,0,.11.27.33.33,0,0,0,.25.11l.13,0,.12-.08a.83.83,0,0,0,.08-.12.4.4,0,0,0,0-.15.35.35,0,0,0-.1-.26A.36.36,0,0,0,123.39,13.09Z"/><rect class="cls-1" x="123.13" y="14.32" width="0.56" height="2.5"/><path class="cls-1" d="M125.58,14.33a1.46,1.46,0,0,0-1,.35,1.27,1.27,0,0,0-.37,1v1.18h.56V15.44a1,1,0,0,1,.07-.41.79.79,0,0,1,.2-.27.7.7,0,0,1,.27-.14,1,1,0,0,1,.3,0h.12l.12,0v-.26h-.22Z"/><path class="cls-1" d="M130.08,15.3a1.16,1.16,0,0,0-.2-.25.89.89,0,0,0-.3-.18l-.71-.31-.25-.13a1.13,1.13,0,0,1-.21-.15.7.7,0,0,1-.14-.17.27.27,0,0,1-.06-.17.41.41,0,0,1,0-.23.55.55,0,0,1,.16-.18.8.8,0,0,1,.23-.1l.27,0,.41.08a2.13,2.13,0,0,1,.3.09l.23.1a1,1,0,0,1,.22.13c0-.16,0-.31.07-.44a3.86,3.86,0,0,0-.65-.19,4.86,4.86,0,0,0-.69-.05,1.45,1.45,0,0,0-.82.25.83.83,0,0,0-.29.71.78.78,0,0,0,.18.53,1.31,1.31,0,0,0,.57.39l.76.28a.69.69,0,0,1,.22.14.8.8,0,0,1,.13.19.77.77,0,0,1,.08.19,1.28,1.28,0,0,1,0,.17.59.59,0,0,1,0,.28.39.39,0,0,1-.14.17.79.79,0,0,1-.23.09,1.12,1.12,0,0,1-.27,0l-.33,0-.3-.07a1.53,1.53,0,0,1-.27-.11,1.51,1.51,0,0,1-.26-.18l0,.24,0,.2c.21.07.43.13.64.18a3.59,3.59,0,0,0,.65.07,1.39,1.39,0,0,0,.46-.07,1,1,0,0,0,.36-.19.93.93,0,0,0,.25-.31,1.08,1.08,0,0,0,.11-.41,1.24,1.24,0,0,0,0-.27A1,1,0,0,0,130.08,15.3Z"/><path class="cls-1" d="M132.74,14.67a1.09,1.09,0,0,0-.39-.25,1.79,1.79,0,0,0-.56-.08,1.73,1.73,0,0,0-.55.08,1.05,1.05,0,0,0-.36.25,1.07,1.07,0,0,0-.22.39,2.1,2.1,0,0,0-.08.52,2,2,0,0,0,.08.52,1.07,1.07,0,0,0,.22.39.93.93,0,0,0,.36.25,1.49,1.49,0,0,0,.55.08.58.58,0,0,0,.19,0,.37.37,0,0,0,.18-.08.75.75,0,0,0,.16-.15,1.28,1.28,0,0,0,.16-.26v.5H133V15.58a2.1,2.1,0,0,0-.08-.52A1.24,1.24,0,0,0,132.74,14.67Zm-.26.83a1.37,1.37,0,0,1-.18.77.55.55,0,0,1-.49.26,1.27,1.27,0,0,1-.28,0,.51.51,0,0,1-.21-.15.59.59,0,0,1-.14-.26,1.73,1.73,0,0,1-.05-.42v-.18a1.73,1.73,0,0,1,.05-.42.69.69,0,0,1,.14-.27.46.46,0,0,1,.21-.13.86.86,0,0,1,.28,0,.77.77,0,0,1,.27,0,.46.46,0,0,1,.22.14.68.68,0,0,1,.13.27,1.24,1.24,0,0,1,0,.41Z"/><path class="cls-1" d="M134.28,16.32a.75.75,0,0,1-.18-.26,1.15,1.15,0,0,1-.07-.4V13.08h-.55V15.5a1.29,1.29,0,0,0,.34.95,1.4,1.4,0,0,0,1,.37v-.3a.86.86,0,0,1-.27-.05A.61.61,0,0,1,134.28,16.32Z"/><path class="cls-1" d="M137.05,14.72a1,1,0,0,0-.37-.28,1.27,1.27,0,0,0-.54-.1,1.42,1.42,0,0,0-.57.1.92.92,0,0,0-.38.28,1.09,1.09,0,0,0-.23.39,1.84,1.84,0,0,0-.07.47,1.51,1.51,0,0,0,.08.48,1.07,1.07,0,0,0,.22.39.94.94,0,0,0,.38.27,1.42,1.42,0,0,0,.57.1,1.27,1.27,0,0,0,.54-.1,1,1,0,0,0,.37-.26,1.11,1.11,0,0,0,.22-.4,2.41,2.41,0,0,0,.08-.48,2.43,2.43,0,0,0-.08-.47A1.24,1.24,0,0,0,137.05,14.72Zm-.26.95a1.34,1.34,0,0,1,0,.42.7.7,0,0,1-.13.26.54.54,0,0,1-.22.15,1.2,1.2,0,0,1-.28,0,.8.8,0,0,1-.27,0,.49.49,0,0,1-.21-.14.63.63,0,0,1-.14-.27,1.58,1.58,0,0,1-.05-.41v-.18a1.58,1.58,0,0,1,.05-.41.69.69,0,0,1,.14-.27.49.49,0,0,1,.21-.14.8.8,0,0,1,.27,0,.82.82,0,0,1,.28,0,.5.5,0,0,1,.22.13.85.85,0,0,1,.13.27,1.34,1.34,0,0,1,0,.42Z"/><path class="cls-1" d="M140.09,15.12a1.06,1.06,0,0,0-.21-.41.94.94,0,0,0-.37-.27,1.47,1.47,0,0,0-.55-.09,1.12,1.12,0,0,0-.89.35,1.4,1.4,0,0,0-.31,1v1.16h.55V15.51a1.61,1.61,0,0,1,.05-.42.69.69,0,0,1,.14-.27.49.49,0,0,1,.21-.14.64.64,0,0,1,.28,0,.74.74,0,0,1,.26,0,.48.48,0,0,1,.2.15.7.7,0,0,1,.11.26,1.66,1.66,0,0,1,0,.42v1.31h.55V15.66A2.23,2.23,0,0,0,140.09,15.12Z"/><path class="cls-1" d="M109.87,1.54c-.12.06-.24.14-.36.21-.31.17-.63.35-.93.54a2.27,2.27,0,0,1-.34.19c-.24.1-.43.28-.67.37a.86.86,0,0,0-.36.21c-.09.13-.25.11-.35.22a1.32,1.32,0,0,1-.37.21l-.47.26a.67.67,0,0,0-.14.11c-.08.06-.18.06-.27.14a2.18,2.18,0,0,1-.37.2l-.08,0a4.57,4.57,0,0,1-.47.29,6.38,6.38,0,0,0-.57.32l-.4.22h0l-.65.38-.31.19-.4.26-.42.22-.32.18,0,0,.11-.4s0,0,0-.08a.45.45,0,0,0,.06-.12c0-.2.08-.41.13-.61s.06-.22.09-.34,0-.18.07-.27,0-.17,0-.25.11-.36.16-.54.06-.31.1-.47.11-.39.16-.59.08-.13.08-.19a.6.6,0,0,1,0-.23l.15-.54a3.39,3.39,0,0,1,.11-.43c0-.09,0-.16,0-.23s0-.05-.07-.06-.22,0-.33-.09a.79.79,0,0,0-.32-.07l-.5-.12-.31-.05c-.13,0-.25-.1-.39-.14L100.53.4,99.89.27,99.61.2l-.3-.1L98.81,0c-.07,0-.16,0-.18.06a5.29,5.29,0,0,0,0,.56.34.34,0,0,0,0,.1c0,.08,0,.15-.06.22s-.05.34-.07.51,0,.21,0,.32,0,.07.08.08l.4.11.23.06c.08,0,.15.11.22.1s.12.08.11.15-.07.2-.08.3,0,.4-.06.59c0,0,0,.06,0,.08,0,.19-.07.38-.1.59l-.42-.09-.28,0-.36-.06c0,.22-.09.41-.12.61s0,.47-.08.7a3.4,3.4,0,0,1-.07.34c0,.09,0,.18-.05.27s.05.06.08.07a.84.84,0,0,0,.17.05,1,1,0,0,0,.32.09c.17,0,.29.09.46.13l-.15.91c0,.16,0,.33-.07.5s0,.16-.2.15l-.54,0-.28-.06s0,.12,0,.19-.07.22-.1.34c-.06.34-.11.67-.16,1a.18.18,0,0,1-.11.14L97,9.22l-.27.17-.52.28a1,1,0,0,1-.5.19,2.2,2.2,0,0,0-.36,0l-.46.09a2.39,2.39,0,0,1-1-.06,2.67,2.67,0,0,1-.48-.15,2.38,2.38,0,0,0-.51-.18,3.32,3.32,0,0,1-.74-.47,1.92,1.92,0,0,0-.53-.32c-.28-.08-.56-.18-.84-.23a2.61,2.61,0,0,0-.56,0h0l-.45.12a4.62,4.62,0,0,0-.62.23,3.74,3.74,0,0,0-.42.27s-.1,0-.13.07l-.45.42-.17.18-.32.33-.26.36a1.15,1.15,0,0,0-.14.27c0,.18-.08.37-.13.56a.24.24,0,0,1,0,.08s0,.07,0,.1a.4.4,0,0,0,0,.11s0,.08,0,.13a1.41,1.41,0,0,0,.14.57c0,.08.07.18.12.26a3.31,3.31,0,0,0,.26.27,3.31,3.31,0,0,0,.44.39,1.27,1.27,0,0,0,.43.18,4.75,4.75,0,0,0,.63.14,4,4,0,0,0,.49,0,3.25,3.25,0,0,0-.43.18c-.15.09-.29.22-.43.32a2.64,2.64,0,0,0-.43.52,1.52,1.52,0,0,0-.24.41.94.94,0,0,0-.06.29c0,.12,0,.24-.07.36s0,.12-.05.19,0,.32,0,.47,0,.36-.06.54a1.21,1.21,0,0,1-.19.52c-.07.12-.19.18-.27.28s-.19.14-.28.23-.12,0-.17.06a1.45,1.45,0,0,1-.65.31.58.58,0,0,0-.36.27.35.35,0,0,0,0,.18c0,.13,0,.27.08.39s.09,0,.1.08a2.12,2.12,0,0,0,.29.48.74.74,0,0,0,.16.19.16.16,0,0,0,.12,0,1.09,1.09,0,0,0,.13-.17c.05-.08.08-.16.13-.24s.15-.2.22-.31l.22-.3a2.75,2.75,0,0,1,.22-.26,2,2,0,0,0,.27-.22c.12-.15.3-.16.44-.24s0,.06,0,.07l.37.28a3,3,0,0,0,.27.23,2.23,2.23,0,0,0,.45.18,3.3,3.3,0,0,0,.72.18,2,2,0,0,0,.84-.08h0a2.54,2.54,0,0,0,.37-.1,5.2,5.2,0,0,0,.53-.26l.19-.1c.11-.1.21-.19.31-.3a.52.52,0,0,0,.18-.35c0-.13-.07-.27,0-.39s0-.34,0-.5,0-.25,0-.37.09-.3.14-.45.11-.33.17-.49a1.51,1.51,0,0,1,.09-.18,1.11,1.11,0,0,1,.17-.3,2.78,2.78,0,0,1,.51-.57.57.57,0,0,1,.36-.18s0,0,0-.05v0c.2,0,.42,0,.62.08a.45.45,0,0,0,.59-.31c0-.1.05-.2.08-.31s.08-.29.11-.43a1.43,1.43,0,0,1,.36-.74,2.54,2.54,0,0,1,.36-.29,2.32,2.32,0,0,1,.41-.22c.19-.08.39-.11.57-.18a2.47,2.47,0,0,0,.44-.27,2.15,2.15,0,0,0,.24-.18l0,0c0,.09-.06.18-.08.27,0,.24-.06.49-.1.74s-.08.44-.12.66l-.12.68c0,.19,0,.38-.08.57a3,3,0,0,1,0,.43c0,.15-.07.3-.09.44s-.09.5-.13.75-.05.35-.07.52v.11c0,.15-.09.3-.12.45a3.5,3.5,0,0,0-.07.45c0,.14,0,.28,0,.42s.1.11.17.09a1.65,1.65,0,0,1,.58-.14c.13,0,.26,0,.39,0s.3,0,.45,0,.27,0,.41,0,.43,0,.65.06c.06,0,.11,0,.17,0s.28,0,.41,0l.88.08c.07,0,.14,0,.2,0,.3,0,.6.08.9.1s.69,0,1,0a.7.7,0,0,0,.29,0,1.19,1.19,0,0,1,.36-.09c.15,0,.3-.05.44-.09a3,3,0,0,0,.36-.13,1.52,1.52,0,0,0,.34-.22,3.06,3.06,0,0,0,.32-.3,1.23,1.23,0,0,0,.22-.24,2.62,2.62,0,0,0,.15-.39c.06-.21.12-.42.16-.63a3,3,0,0,0,0-.52c0-.2,0-.4,0-.6s0-.19,0-.29a1.85,1.85,0,0,0-.08-.46c0-.1,0-.2,0-.3s-.09-.43-.14-.64-.13-.2-.2-.16l-.22.13a2.23,2.23,0,0,1-.33.2c-.1.05-.14.09-.11.21a2,2,0,0,1,.08.35,5.12,5.12,0,0,1,0,.67,5.37,5.37,0,0,1-.09.67,1.16,1.16,0,0,1-.42.71,1.32,1.32,0,0,1-.57.33,2.61,2.61,0,0,1-.55.08,4.09,4.09,0,0,1-.6-.07l-.76-.12-.38-.08c-.19-.06-.37-.09-.55-.15a9.05,9.05,0,0,0-1-.24l-.19,0-.5-.08a2.61,2.61,0,0,1,.06-.32c0-.1.08-.18.1-.28s.11-.46.16-.69l.18-.74c0-.16.1-.31.14-.47s.1-.52.17-.78.12-.35.17-.53a5.43,5.43,0,0,1,.16-.67,4.14,4.14,0,0,0,.19-.79c0-.1,0-.2.06-.3a2.34,2.34,0,0,0,.16-.59.37.37,0,0,1,.08-.19c.14-.13.3-.25.45-.37l.39-.33.42-.35c.12-.09.24-.17.35-.27l.3-.29c.12-.11.25-.2.37-.3s.12-.12.19-.18l.55-.44.23-.18a2.08,2.08,0,0,1,.21-.21l.43-.35.43-.35.36-.29c.1-.08.19-.18.29-.27L106,5l.32-.27.52-.42.7-.61c.14-.12.29-.22.42-.34l.34-.31.28-.22.31-.23c.11-.09.2-.2.31-.29l.27-.23.4-.34c.07-.07.22-.1.15-.28A1,1,0,0,0,109.87,1.54ZM89.51,12.88a1.6,1.6,0,0,1-.69-.05,1,1,0,0,1-.27-.14l-.46-.26a.91.91,0,0,1-.17-.17,2.64,2.64,0,0,1-.21-.29.84.84,0,0,1-.08-.34,2,2,0,0,1,.08-.54,1.69,1.69,0,0,1,.22-.39l0-.08.11-.14h0l.06-.13a.78.78,0,0,1,.25-.32c.1-.08.19-.2.29-.28A2.44,2.44,0,0,1,89,9.53s.09-.08.13-.1a2.08,2.08,0,0,1,.79-.28,1.75,1.75,0,0,1,1.1.16,1.91,1.91,0,0,1,.54.39.89.89,0,0,1,.21.82,1.2,1.2,0,0,1-.06.33c-.1.21-.22.42-.34.63s-.21.25-.31.38a1.61,1.61,0,0,1-.21.3,4.69,4.69,0,0,1-.47.42,1.09,1.09,0,0,1-.27.11,2.29,2.29,0,0,1-.23.1A2.34,2.34,0,0,1,89.51,12.88Zm2.73,3.53c0,.09,0,.19,0,.29a1.11,1.11,0,0,0-.07.16.89.89,0,0,1-.09.29c-.08.11-.08.27-.22.36s0,.1-.07.15a2.2,2.2,0,0,1-.51.5,1.76,1.76,0,0,1-.42.24,1.58,1.58,0,0,1-.75.07,3.16,3.16,0,0,1-.61-.22,1.31,1.31,0,0,1-.27-.21L89,17.88a2.83,2.83,0,0,1-.25-.24,2.29,2.29,0,0,1-.14-.27,2.53,2.53,0,0,1-.12-.23c0-.08,0-.16-.05-.24s0-.12,0-.18v-.56c0-.06,0-.11,0-.17h0c0-.08,0-.16.07-.23s.12-.32.19-.47a1.49,1.49,0,0,1,.15-.2l.24-.32s.08,0,.12-.07a2.45,2.45,0,0,1,.37-.26.73.73,0,0,1,.3-.06l.54-.05a2.22,2.22,0,0,1,.77.08,1.83,1.83,0,0,1,.38.23,1,1,0,0,1,.3.24,3.38,3.38,0,0,1,.24.51,2.5,2.5,0,0,1,.14.77A1.1,1.1,0,0,1,92.24,16.41ZM95.61,11l0,.22a4.73,4.73,0,0,0,0,.65,1,1,0,0,1-.19.55,3.51,3.51,0,0,1-.5.65,5.18,5.18,0,0,1-.51.44c-.2.15-.4.27-.61.4a2.23,2.23,0,0,1-.31.12,1.66,1.66,0,0,1-.38.11,3.13,3.13,0,0,1-.53,0,.75.75,0,0,1-.3,0,4.19,4.19,0,0,1-.49-.2l-.32-.13-.33-.11c-.12,0-.24-.12-.34-.1s-.17-.08-.26,0l.07,0a2.25,2.25,0,0,0,.38-.19c.06-.05.08-.16.12-.24a2.32,2.32,0,0,1,.29-.54,4.46,4.46,0,0,1,.34-.42c.12-.13.27-.23.4-.35s.16-.18.26-.26.25-.18.38-.27a1.27,1.27,0,0,1,.19-.13l.68-.39a2.46,2.46,0,0,1,.7-.21,3.52,3.52,0,0,1,1,0,1.45,1.45,0,0,1,.41.1C95.65,10.74,95.63,10.88,95.61,11Zm3.3-.88a.42.42,0,0,1-.25,0,.6.6,0,0,1-.35-.38,2,2,0,0,1-.07-.42.71.71,0,0,1,.22-.58A.54.54,0,0,1,99,8.67a.72.72,0,0,1,.38.62v.12A.77.77,0,0,1,98.91,10.15Z"/><path class="cls-1" d="M98.65,9a.44.44,0,0,0-.18.36,1.49,1.49,0,0,0,.07.25c.07.11.14.23.3.2s.19-.12.24-.24a.55.55,0,0,0,0-.47A.25.25,0,0,0,98.65,9Z"/><path class="cls-1" d="M.8,15.63l.19-.1A1.14,1.14,0,0,0,.8,15.63Z"/><path class="cls-1" d="M.62,15.79a1.37,1.37,0,0,1,.18-.16Z"/><path class="cls-1" d="M4.59,10.56A6.93,6.93,0,0,0,8.32,8.8,2.5,2.5,0,0,0,9.21,7a1.19,1.19,0,0,0-.89-1.11.86.86,0,0,0-1.15.75c.22-.4.55-.73.88-.64a1.71,1.71,0,0,1,.27.09c1,.43.78,1.49,0,2.38a4,4,0,0,1-1.4,1,7.83,7.83,0,0,1-1.36.58,6.36,6.36,0,0,1-1.62.24l0,.21A3.89,3.89,0,0,0,4.59,10.56Z"/><path class="cls-1" d="M27.94,7.91c2.21-.9,2.69-2.06,2.39-3,.8-.27,1.4-.73,1.4-1.19s-.25-.75-.85-1.08a1.92,1.92,0,0,0,.88-.57c1-1.89-.94-2.18-3.6-2.08a10.6,10.6,0,0,0-4.7,1s0,0,0,0h0c-.06.05.1,0,.4,0L25,.83c.64-.12,1.43-.25,2.22-.34l.19,0c.45,0,.9-.08,1.33-.09H29c2.79,0,2.28,1.07,2.28,1.07-.43.85-2.39.6-3.84.6h-.13C26.76,2,26.1,1.85,25.4,1.7A60.47,60.47,0,0,0,16.8.1a11.41,11.41,0,0,0-6,1h0A4.57,4.57,0,0,0,9.54.76,5.37,5.37,0,0,0,8.32.7,8,8,0,0,0,4.76,2C1.37,4,.08,7.54,1.57,9.55a2.77,2.77,0,0,0,2.19,1v-.09a.5.5,0,0,0,0-.12,2.94,2.94,0,0,1-1.46-.44C.66,8.8,1.15,5.67,3.14,3.73,4.8,2.11,6.35,1.1,8.32,1a6.57,6.57,0,0,1,1,0h.06l.36.05a3,3,0,0,1,.81.22l-.08,0q-.5.27-.87.51l-.09.06a8.61,8.61,0,0,0-.93.7c.23-.16.46-.28.69-.42a10,10,0,0,1,1.62-.72A4.43,4.43,0,0,1,12,2.59l-.34.09-.12,0A10.65,10.65,0,0,0,8.32,4.06L8,4.28c-.9.55-3.87,3.45-4.19,6.08h.16a4.51,4.51,0,0,1,.12-.72A12.32,12.32,0,0,1,8.32,4.35a5.4,5.4,0,0,1,.49-.3A9.92,9.92,0,0,1,11.58,3a4.08,4.08,0,0,1,.57-.11.36.36,0,0,0,0-.09s0,0,.05.08h0A4.88,4.88,0,0,1,12.59,4a5.38,5.38,0,0,0-.66.15l-.22.07a3.54,3.54,0,0,0-.39.14l-.3.14a3.63,3.63,0,0,0-1.08.77,4.94,4.94,0,0,1,2.74-.82,7.2,7.2,0,0,1-.06,2.4,9,9,0,0,1-1.8,3.89A7.42,7.42,0,0,1,9,12.51c-.24.16-.48.3-.71.43-3,1.6-4.51-.24-4.41-2.37H3.76c-.07,1.13.4,2.86,1.85,3.13a5.21,5.21,0,0,0,2.71-.2,7.66,7.66,0,0,0,4.3-4.8,8.53,8.53,0,0,0,.44-4.22,12.78,12.78,0,0,1,5.31,1.65,15.2,15.2,0,0,0-1.73,1.76c-.25.32-.51.66-.75,1-.9,1.32-1.9,3-3.27,5-.63.91-1.35,1.88-2.17,2.91a8.39,8.39,0,0,1-2.13,1.92,6.9,6.9,0,0,1-5.68.83C-.29,18.67-.13,16.65.48,15.93l.14-.14c-1.27,1-.45,3.13,1.24,3.8a10,10,0,0,0,6.46,0,10.51,10.51,0,0,0,3.74-2,6.77,6.77,0,0,0,.56-.51c2.23-2.2,2.88-4.8,4-7.13l.06-.1a14.16,14.16,0,0,1,2.14-3.48C21.07,7.59,25.72,8.82,27.94,7.91ZM29.73,4.6a9.93,9.93,0,0,1-2.37,0c-.82-.1-1.64-.28-2.4-.43a10.56,10.56,0,0,1,2.91-.3A2.75,2.75,0,0,1,29.73,4.6Zm-4.84.83H25a13.91,13.91,0,0,0,2.41.19,6.69,6.69,0,0,0,2.57-.51c0,.38-.21.82-.84,1.32a2.83,2.83,0,0,1-1.34.5l-.39,0c-.34,0-.67,0-1,0a19.42,19.42,0,0,1-5.2-1.13A12.12,12.12,0,0,0,20,5.32l.34-.24c.26-.17.53-.35.82-.51a13.29,13.29,0,0,0,2.71.72Zm6-1.15a2.16,2.16,0,0,1-.77.26,2.35,2.35,0,0,0-1.93-1.07,9.42,9.42,0,0,0-3.14.45L25,4l-.32.09L23.9,3.9c-.29-.07-.59-.13-.88-.21.28-.12.58-.23.88-.34L25,3l.16,0a14.15,14.15,0,0,0,5.16-.14C31.48,3.23,31.61,3.88,30.92,4.28ZM11.2,1.36A13,13,0,0,1,15.54.79,37.72,37.72,0,0,1,21.78,2l1.65.48,1.08.38.14.05c-.25.07-.49.14-.75.23-.42.14-.85.3-1.31.48-.71-.17-1.45-.36-2.22-.58l-1.15-.34a12,12,0,0,0-2.58-.45,15.64,15.64,0,0,0-3.73.2l-.28.06h0l-.29.06A3.25,3.25,0,0,0,11.2,1.36Zm1.63,2.18A2.87,2.87,0,0,0,12.62,3l0,0h0l-.1-.19h.12l.31,0a10.66,10.66,0,0,1,3.71.4c.95.25,1.79.57,2.49.78l1.24.38a4.14,4.14,0,0,0,.43.13l-.43.25c-.24.15-.49.31-.72.48A16.38,16.38,0,0,0,14.19,3.9,6.85,6.85,0,0,0,13,4,2.58,2.58,0,0,0,12.83,3.54Z"/><path class="cls-1" d="M20.72,16.25h1.37v-.67H20.56v-.67h-.71v.67H18.18v.67h1.46A6.7,6.7,0,0,1,18,18.33l.62.46a6.83,6.83,0,0,0,1.26-1.61v2.5h.71V17c.43.47.8.91,1.12,1.31l.55-.5C21.74,17.27,21.24,16.75,20.72,16.25Z"/><path class="cls-1" d="M22.35,13l-.64-.25a10.44,10.44,0,0,1-.85,2l.61.29A9.81,9.81,0,0,0,22.35,13Z"/><path class="cls-1" d="M21.81,19l.38.68a9.42,9.42,0,0,0,3.93-3l.08-.09-.58-.46A8,8,0,0,1,21.81,19Z"/><path class="cls-1" d="M22.89,16.42a7.87,7.87,0,0,0,3-1.92L25.32,14a7.36,7.36,0,0,1-2.83,1.8Z"/><path class="cls-1" d="M18.69,14.91l.65-.23A7.73,7.73,0,0,0,18.72,13l-.63.25A12.1,12.1,0,0,1,18.69,14.91Z"/><path class="cls-1" d="M19.9,14.41h.66a14.65,14.65,0,0,0-.16-1.52l-.67.06A12.5,12.5,0,0,1,19.9,14.41Z"/><path class="cls-1" d="M22.13,11.58a21.44,21.44,0,0,1-3.89.38l.12.7a18.52,18.52,0,0,0,3.9-.38Z"/><path class="cls-1" d="M25.11,11.6a6.93,6.93,0,0,1-2.62,1.67l.4.65a7.42,7.42,0,0,0,2.75-1.79Z"/><path class="cls-1" d="M34.47,12.77l-.53-.47a10.84,10.84,0,0,1-1,1.17l-.54-.39a12.46,12.46,0,0,0,.89-.95l-.49-.49q-.27.33-.93,1c-.21-.21-.41-.42-.61-.65a.27.27,0,0,0-.2-.15H28.38v.69h1.69a7.82,7.82,0,0,1-1.13.81c-.44-.34-.84-.62-1.19-.84l-.42.57c.21.13.53.35.94.63a11.66,11.66,0,0,1-1.42.57l.39.66A10.36,10.36,0,0,0,31,12.58a7.57,7.57,0,0,0,3.57,2.3l.36-.66a5.59,5.59,0,0,1-1.33-.43C33.83,13.55,34.11,13.21,34.47,12.77Z"/><rect class="cls-1" x="29.31" y="13.97" width="3.23" height="0.68"/><path class="cls-1" d="M32.89,17.55h.88c.13,0,.19-.06.19-.18v-2c0-.13-.06-.18-.19-.18H28c-.12,0-.18.05-.18.18v2a.16.16,0,0,0,.18.18h.72l.43,1.31h-2v.68h7.34v-.68H32.46Zm-4.32-.67,0-.05v-.95l0,0h4.65l0,0v.95l0,.05Zm3.15,2h-1.8l-.43-1.31h2.65Z"/><path class="cls-1" d="M37.33,14.38a6.93,6.93,0,0,0-1.43-.84l-.36.66a7.65,7.65,0,0,1,1.38.82Z"/><path class="cls-1" d="M37.54,12.6a7.2,7.2,0,0,0-1.43-.84l-.37.65a8.48,8.48,0,0,1,1.39.83Z"/><path class="cls-1" d="M38.26,18.72a1.45,1.45,0,0,1-.55-.38,1.08,1.08,0,0,1-.31-.49V15.8c0-.13-.06-.19-.18-.19h-1.5v.75h.84c.06,0,.09,0,.1.1V18a1.46,1.46,0,0,1-.22.54,2.21,2.21,0,0,1-.9.55l.36.68a2.58,2.58,0,0,0,.74-.45,1.77,1.77,0,0,0,.48-.59c.4.6,1.34.9,2.8.91,1.1,0,2.27,0,3.5,0l.18-.84A23.7,23.7,0,0,1,38.26,18.72Z"/><path class="cls-1" d="M38.29,15.66v2.46c0,.07,0,.1.1.1H43c.07,0,.1,0,.1-.1V15.66c0-.07,0-.1-.1-.1H38.39C38.32,15.56,38.29,15.59,38.29,15.66Zm.7.63,0,0H42.4l0,0v1.19l0,0H39l0,0Z"/><path class="cls-1" d="M37.89,14.08a5.11,5.11,0,0,0,.75-.89h1.65v1H37.87v.71H43.5v-.71H41v-1H43.3v-.72H41v-.82h-.74v.82H39c.07-.21.14-.43.2-.67l-.72-.16a4.56,4.56,0,0,1-.43,1.1,4.6,4.6,0,0,1-.71.83Z"/><rect class="cls-1" x="49.64" y="12.2" width="0.74" height="3.13"/><polygon class="cls-1" points="48.71 17.95 51.59 17.95 51.59 17.24 48.71 17.24 48.71 16.62 47.96 16.62 47.96 17.24 45.24 17.24 45.24 17.95 47.96 17.95 47.96 18.76 44.49 18.76 44.49 19.51 52.27 19.51 52.27 18.76 48.71 18.76 48.71 17.95"/><path class="cls-1" d="M44.29,16.3l.61.53a3.27,3.27,0,0,0,1.32-2.14h1.16v1.8h.75v-1.8h1.09V14H48.13V12.64h1v-.71H44.66v.71h.94v1c0,.1,0,.2,0,.3H44.45v.71h1A2.72,2.72,0,0,1,44.29,16.3Zm2.05-2.62v-1h1V14H46.33C46.33,13.88,46.34,13.78,46.34,13.68Z"/><path class="cls-1" d="M49.82,16.69a2.67,2.67,0,0,0,1.89,0,.88.88,0,0,0,.39-.75V11.69h-.75v4a.33.33,0,0,1-.07.25.48.48,0,0,1-.31.14,2.53,2.53,0,0,1-.46,0c-.15,0-.38-.07-.71-.15Z"/><polygon class="cls-1" points="55.82 17.54 54.52 17.54 54.52 15.44 53.87 15.44 53.87 19.68 54.52 19.68 54.52 17.8 55.82 17.8 55.82 19.68 56.47 19.68 56.47 15.44 55.82 15.44 55.82 17.54"/><path class="cls-1" d="M59.47,17.24A1.12,1.12,0,0,0,59,17a1.83,1.83,0,0,0-.66-.1,1.67,1.67,0,0,0-.63.1,1.19,1.19,0,0,0-.43.28,1.1,1.1,0,0,0-.25.45,2,2,0,0,0-.1.58,2.14,2.14,0,0,0,.1.59,1.12,1.12,0,0,0,.25.44,1.19,1.19,0,0,0,.43.28,1.89,1.89,0,0,0,.63.1,1,1,0,0,0,.24,0,.72.72,0,0,0,.2-.09.79.79,0,0,0,.19-.18,2.09,2.09,0,0,0,.19-.29v.59h.66V18.27a2,2,0,0,0-.1-.58A1.11,1.11,0,0,0,59.47,17.24Zm-.29.94a1.43,1.43,0,0,1-.22.87.63.63,0,0,1-.57.29.83.83,0,0,1-.32,0,.58.58,0,0,1-.25-.15.7.7,0,0,1-.16-.31,1.63,1.63,0,0,1-.06-.47v-.2a1.53,1.53,0,0,1,.06-.47.7.7,0,0,1,.16-.31.6.6,0,0,1,.25-.16,1.16,1.16,0,0,1,.64,0,.51.51,0,0,1,.25.16.71.71,0,0,1,.16.3,1.58,1.58,0,0,1,.06.47Z"/><rect class="cls-1" x="60.42" y="16.84" width="0.65" height="2.83"/><path class="cls-1" d="M60.73,15.45a.38.38,0,0,0-.3.13.41.41,0,0,0-.12.3.4.4,0,0,0,.12.29.38.38,0,0,0,.3.13l.15,0,.14-.09.1-.14,0-.15a.41.41,0,0,0-.12-.3A.38.38,0,0,0,60.73,15.45Z"/><path class="cls-1" d="M63.29,16.86a1.75,1.75,0,0,0-1.23.39,1.41,1.41,0,0,0-.43,1.09v1.34h.65V18.11a1.09,1.09,0,0,1,.09-.47.84.84,0,0,1,.22-.3,1,1,0,0,1,.32-.16,1,1,0,0,1,.35,0h.14l.14,0v-.3h-.25Z"/><path class="cls-1" d="M68.55,18a1.23,1.23,0,0,0-.24-.28,1.4,1.4,0,0,0-.34-.21l-.84-.35L66.84,17a1.13,1.13,0,0,1-.24-.17,1.37,1.37,0,0,1-.17-.19l-.07-.19a.54.54,0,0,1,.06-.27.72.72,0,0,1,.19-.2.68.68,0,0,1,.26-.11,1.8,1.8,0,0,1,.32-.06l.48.09A2.47,2.47,0,0,1,68,16a1.69,1.69,0,0,1,.27.11,1.74,1.74,0,0,1,.26.15c0-.18,0-.35.08-.49a5,5,0,0,0-.77-.22,4.79,4.79,0,0,0-.79-.06,1.83,1.83,0,0,0-1,.28,1,1,0,0,0-.34.8,1,1,0,0,0,.21.61,1.54,1.54,0,0,0,.67.44l.89.32a.66.66,0,0,1,.25.15,1,1,0,0,1,.16.21,1.09,1.09,0,0,1,.09.23.73.73,0,0,1,0,.5.48.48,0,0,1-.17.2.67.67,0,0,1-.26.1,1.66,1.66,0,0,1-.32,0,2.34,2.34,0,0,1-.38,0,1.81,1.81,0,0,1-.35-.07,1.75,1.75,0,0,1-.32-.12,1.61,1.61,0,0,1-.3-.21,2.51,2.51,0,0,0,0,.27c0,.08,0,.16,0,.23.25.08.5.14.75.2a3.94,3.94,0,0,0,.77.08,1.49,1.49,0,0,0,.52-.08,1.17,1.17,0,0,0,.43-.22,1.22,1.22,0,0,0,.3-.34,1.16,1.16,0,0,0,.12-.46,1.73,1.73,0,0,0,0-.32A1.37,1.37,0,0,0,68.55,18Z"/><path class="cls-1" d="M71.65,17.24A1.28,1.28,0,0,0,71.2,17a1.83,1.83,0,0,0-.66-.1,1.67,1.67,0,0,0-.63.1,1.19,1.19,0,0,0-.43.28,1.1,1.1,0,0,0-.25.45,2,2,0,0,0-.1.58,2.14,2.14,0,0,0,.1.59,1.12,1.12,0,0,0,.25.44,1.19,1.19,0,0,0,.43.28,1.89,1.89,0,0,0,.63.1.85.85,0,0,0,.23,0,.67.67,0,0,0,.21-.09.79.79,0,0,0,.19-.18,2.09,2.09,0,0,0,.19-.29v.59H72V18.27a2,2,0,0,0-.1-.58A1.11,1.11,0,0,0,71.65,17.24Zm-.29.94a1.51,1.51,0,0,1-.22.87.65.65,0,0,1-.57.29.8.8,0,0,1-.32,0,.53.53,0,0,1-.25-.15.83.83,0,0,1-.17-.31,2.12,2.12,0,0,1,0-.47v-.2a2,2,0,0,1,0-.47.83.83,0,0,1,.17-.31.54.54,0,0,1,.25-.16,1,1,0,0,1,.32,0,1.13,1.13,0,0,1,.32,0,.51.51,0,0,1,.25.16.71.71,0,0,1,.16.3,1.58,1.58,0,0,1,.06.47Z"/><path class="cls-1" d="M73.46,19.11a.81.81,0,0,1-.21-.3,1,1,0,0,1-.08-.46V15.44h-.65v2.74a1.42,1.42,0,0,0,.4,1.07,1.67,1.67,0,0,0,1.13.42v-.34a.89.89,0,0,1-.31-.06A.66.66,0,0,1,73.46,19.11Z"/><path class="cls-1" d="M76.69,17.29a1.25,1.25,0,0,0-.43-.31,1.48,1.48,0,0,0-.63-.12A1.71,1.71,0,0,0,75,17a1.34,1.34,0,0,0-.45.31,1.43,1.43,0,0,0-.26.45,2.35,2.35,0,0,0-.09.53,1.91,1.91,0,0,0,.1.54,1.31,1.31,0,0,0,.26.44,1.13,1.13,0,0,0,.45.31,1.62,1.62,0,0,0,.66.12,1.48,1.48,0,0,0,.63-.12,1,1,0,0,0,.43-.3,1.22,1.22,0,0,0,.26-.44,2.53,2.53,0,0,0,.09-.55,1.91,1.91,0,0,0-.1-.53A1.24,1.24,0,0,0,76.69,17.29Zm-.3,1.08a1.63,1.63,0,0,1-.06.47.7.7,0,0,1-.16.31.58.58,0,0,1-.25.15,1.3,1.3,0,0,1-.64,0,.6.6,0,0,1-.25-.16.78.78,0,0,1-.16-.3,1.63,1.63,0,0,1-.06-.47v-.2a1.58,1.58,0,0,1,.06-.47.71.71,0,0,1,.16-.3.51.51,0,0,1,.25-.16,1.16,1.16,0,0,1,.64,0,.6.6,0,0,1,.25.16.7.7,0,0,1,.16.31,1.53,1.53,0,0,1,.06.47Z"/><path class="cls-1" d="M80,17.28a1,1,0,0,0-.43-.3,1.76,1.76,0,0,0-.64-.1,1.33,1.33,0,0,0-1.05.4,1.53,1.53,0,0,0-.36,1.08v1.31h.65V18.19a2.14,2.14,0,0,1,0-.48.68.68,0,0,1,.17-.3.47.47,0,0,1,.25-.16,1,1,0,0,1,.32,0,1,1,0,0,1,.31,0,.6.6,0,0,1,.22.16.81.81,0,0,1,.14.31,2.05,2.05,0,0,1,0,.47v1.48h.65V18.36a2.4,2.4,0,0,0-.07-.62A1.36,1.36,0,0,0,80,17.28Z"/></svg>