<?xml version="1.0" encoding="UTF-8"?>
<svg width="329px" height="310px" viewBox="0 0 329 310" version="1.1" xmlns="http://www.w3.org/2000/svg" xmlns:xlink="http://www.w3.org/1999/xlink">
    <title>m_bookingBg</title>
    <defs>
        <path d="M20.5110816,-8.28672246e-16 L308.488918,8.28672246e-16 C315.621068,-4.81482439e-16 318.207358,0.742604889 320.814766,2.13706163 C323.422173,3.53151837 325.468482,5.57782696 326.862938,8.18523437 C328.257395,10.7926418 329,13.3789317 329,20.5110816 L329,289.488918 C329,296.621068 328.257395,299.207358 326.862938,301.814766 C325.468482,304.422173 323.422173,306.468482 320.814766,307.862938 C318.207358,309.257395 315.621068,310 308.488918,310 L20.5110816,310 C13.3789317,310 10.7926418,309.257395 8.18523437,307.862938 C5.57782696,306.468482 3.53151837,304.422173 2.13706163,301.814766 C0.742604889,299.207358 3.20988293e-16,296.621068 -5.52448164e-16,289.488918 L5.52448164e-16,20.5110816 C-3.20988293e-16,13.3789317 0.742604889,10.7926418 2.13706163,8.18523437 C3.53151837,5.57782696 5.57782696,3.53151837 8.18523437,2.13706163 C10.7926418,0.742604889 13.3789317,4.81482439e-16 20.5110816,-8.28672246e-16 Z" id="path-1"></path>
        <linearGradient x1="50%" y1="0%" x2="50%" y2="100%" id="linearGradient-3">
            <stop stop-color="#2F3043" offset="0%"></stop>
            <stop stop-color="#464761" offset="100%"></stop>
        </linearGradient>
        <circle id="path-4" cx="136.5" cy="76.5" r="134.5"></circle>
        <linearGradient x1="0%" y1="0%" x2="100%" y2="100%" id="linearGradient-5">
            <stop stop-color="#FFB7DC" offset="0%"></stop>
            <stop stop-color="#85AEFF" offset="100%"></stop>
        </linearGradient>
    </defs>
    <g id="Design" stroke="none" stroke-width="1" fill="none" fill-rule="evenodd">
        <g id="02_375px_about" transform="translate(-23.000000, -2468.000000)">
            <g id="m_bookingBg" transform="translate(23.000000, 2468.000000)">
                <mask id="mask-2" fill="white">
                    <use xlink:href="#path-1"></use>
                </mask>
                <use id="Mask" fill="#2F3043" fill-rule="nonzero" xlink:href="#path-1"></use>
                <g id="Oval" fill-rule="nonzero" mask="url(#mask-2)">
                    <use fill="#464761" xlink:href="#path-4"></use>
                    <use fill="url(#linearGradient-3)" xlink:href="#path-4"></use>
                </g>
                <circle id="Oval" fill="url(#linearGradient-5)" fill-rule="nonzero" mask="url(#mask-2)" cx="50" cy="310" r="74"></circle>
                <path d="M376,184 C376,210.509668 354.509668,232 328,232 C301.490332,232 280,210.509668 280,184 L280,184 Z" id="Combined-Shape" fill="#464761" fill-rule="nonzero" mask="url(#mask-2)"></path>
                <path d="M327.069318,94.4892886 L322.18238,97.0585037 C321.204691,97.5725053 319.995437,97.1966123 319.481435,96.2189231 C319.276757,95.8296021 319.206128,95.383666 319.280481,94.9501507 L320.213803,89.5084659 C320.325079,88.8596777 320.109982,88.1976773 319.63861,87.738203 L315.684995,83.8843804 C314.894027,83.113378 314.877843,81.8471515 315.648845,81.0561843 C315.955863,80.741217 316.358147,80.5362427 316.793421,80.4729937 L322.257184,79.6790625 C322.908604,79.5844056 323.471735,79.1752669 323.763059,78.5849799 L326.206528,73.6339715 C326.695372,72.6434642 327.894624,72.2367862 328.885131,72.7256308 C329.279557,72.9202912 329.598812,73.2395463 329.793472,73.6339715 L332.236941,78.5849799 C332.528265,79.1752669 333.091396,79.5844056 333.742816,79.6790625 L339.206579,80.4729937 C340.299668,80.6318289 341.057031,81.6467146 340.898196,82.7398043 C340.834947,83.1750784 340.629973,83.5773632 340.315005,83.8843804 L336.36139,87.738203 C335.890018,88.1976773 335.674921,88.8596777 335.786197,89.5084659 L336.719519,94.9501507 C336.906241,96.0388236 336.175065,97.0727355 335.086392,97.2594575 C334.652877,97.3338112 334.206941,97.2631818 333.81762,97.0585037 L328.930682,94.4892886 C328.348034,94.1829724 327.651966,94.1829724 327.069318,94.4892886 Z" id="Star" fill="#DC70B9" fill-rule="nonzero" mask="url(#mask-2)"></path>
            </g>
        </g>
    </g>
</svg>