<?xml version="1.0" encoding="utf-8"?>
<!-- Generator: Adobe Illustrator 24.0.1, SVG Export Plug-In . SVG Version: 6.00 Build 0)  -->
<svg version="1.1" id="圖層_1" xmlns="http://www.w3.org/2000/svg" xmlns:xlink="http://www.w3.org/1999/xlink" x="0px" y="0px"
	 viewBox="0 0 374.5 603.9" style="enable-background:new 0 0 374.5 603.9;" xml:space="preserve">
<style type="text/css">
	.st0{filter:url(#Adobe_OpacityMaskFilter);}
	.st1{fill-rule:evenodd;clip-rule:evenodd;fill:#FFFFFF;}
	.st2{mask:url(#mask-2_1_);fill:#E4ECFF;}
	.st3{filter:url(#Adobe_OpacityMaskFilter_1_);}
	.st4{mask:url(#mask-2_2_);fill:#DC70B9;}
	.st5{filter:url(#Adobe_OpacityMaskFilter_2_);}
	.st6{mask:url(#mask-2_3_);fill:#6177EE;}
	.st7{filter:url(#Adobe_OpacityMaskFilter_3_);}
	.st8{mask:url(#mask-2_4_);fill:url(#Oval_2_);}
	.st9{filter:url(#Adobe_OpacityMaskFilter_4_);}
	.st10{mask:url(#mask-2_5_);fill:#2F3043;}
</style>
<title>m_menu_bg</title>
<g id="Design">
	<g id="_x30_1-2_x5F_375px_x5F_menu" transform="translate(70.000000, -64.000000)">
		<g id="m_menu_bg" transform="translate(-69.339889, 64.000000)">
			<g id="矩形">
			</g>
			<defs>
				<filter id="Adobe_OpacityMaskFilter" filterUnits="userSpaceOnUse" x="78.8" y="421.5" width="524" height="523.5">
					<feColorMatrix  type="matrix" values="1 0 0 0 0  0 1 0 0 0  0 0 1 0 0  0 0 0 1 0"/>
				</filter>
			</defs>
			<mask maskUnits="userSpaceOnUse" x="78.8" y="421.5" width="524" height="523.5" id="mask-2_1_">
				<g class="st0">
					<rect id="path-1_1_" x="-0.5" y="0" class="st1" width="375" height="603"/>
				</g>
			</mask>
			<ellipse id="Oval" class="st2" cx="340.8" cy="683.3" rx="262" ry="261.7"/>
			<defs>
				<filter id="Adobe_OpacityMaskFilter_1_" filterUnits="userSpaceOnUse" x="310.6" y="375.5" width="19.4" height="18.7">
					<feColorMatrix  type="matrix" values="1 0 0 0 0  0 1 0 0 0  0 0 1 0 0  0 0 0 1 0"/>
				</filter>
			</defs>
			<mask maskUnits="userSpaceOnUse" x="310.6" y="375.5" width="19.4" height="18.7" id="mask-2_2_">
				<g class="st3">
					<rect id="path-1_2_" x="-0.5" y="0" class="st1" width="375" height="603"/>
				</g>
			</mask>
			<path id="Star" class="st4" d="M319.4,392.4l-2.9,1.5c-1,0.5-2.2,0.1-2.7-0.8c-0.2-0.4-0.3-0.8-0.2-1.3l0.6-3.3
				c0.1-0.6-0.1-1.3-0.6-1.8l-2.4-2.3c-0.8-0.8-0.8-2,0-2.8c0.3-0.3,0.7-0.5,1.1-0.6l3.3-0.5c0.6-0.1,1.2-0.5,1.5-1.1l1.5-3
				c0.5-1,1.7-1.4,2.7-0.9c0.4,0.2,0.7,0.5,0.9,0.9l1.5,3c0.3,0.6,0.8,1,1.5,1.1l3.3,0.5c1.1,0.2,1.8,1.2,1.7,2.2
				c-0.1,0.4-0.3,0.8-0.6,1.1l-2.4,2.3c-0.5,0.5-0.7,1.1-0.6,1.8l0.6,3.3c0.2,1.1-0.5,2.1-1.6,2.3c-0.4,0.1-0.9,0-1.3-0.2l-2.9-1.5
				C320.7,392.1,320,392.1,319.4,392.4z"/>
			<defs>
				<filter id="Adobe_OpacityMaskFilter_2_" filterUnits="userSpaceOnUse" x="299.2" y="554.1" width="27.5" height="26.5">
					<feColorMatrix  type="matrix" values="1 0 0 0 0  0 1 0 0 0  0 0 1 0 0  0 0 0 1 0"/>
				</filter>
			</defs>
			<mask maskUnits="userSpaceOnUse" x="299.2" y="554.1" width="27.5" height="26.5" id="mask-2_3_">
				<g class="st5">
					<rect id="path-1_3_" x="-0.5" y="0" class="st1" width="375" height="603"/>
				</g>
			</mask>
			<path id="Polygon" class="st6" d="M315.1,554.9l9.9,7.2c1.3,1,1.9,2.7,1.4,4.2l-3.8,11.7c-0.5,1.6-2,2.6-3.6,2.6h-12.3
				c-1.6,0-3.1-1.1-3.6-2.6l-3.8-11.7c-0.5-1.6,0-3.3,1.4-4.2l9.9-7.2C312,553.9,313.8,553.9,315.1,554.9z"/>
			<defs>
				<filter id="Adobe_OpacityMaskFilter_3_" filterUnits="userSpaceOnUse" x="-53.2" y="236" width="105" height="105">
					<feColorMatrix  type="matrix" values="1 0 0 0 0  0 1 0 0 0  0 0 1 0 0  0 0 0 1 0"/>
				</filter>
			</defs>
			<mask maskUnits="userSpaceOnUse" x="-53.2" y="236" width="105" height="105" id="mask-2_4_">
				<g class="st7">
					<rect id="path-1_4_" x="-0.5" y="0" class="st1" width="375" height="603"/>
				</g>
			</mask>
			
				<linearGradient id="Oval_2_" gradientUnits="userSpaceOnUse" x1="-31.7579" y1="892.9593" x2="-30.8958" y2="892.5518" gradientTransform="matrix(96.653 41.0268 41.0268 -96.653 -33610.1367 87849.5391)">
				<stop  offset="0" style="stop-color:#FFB7DC"/>
				<stop  offset="1" style="stop-color:#85AEFF"/>
			</linearGradient>
			<circle id="Oval_1_" class="st8" cx="-0.7" cy="288.5" r="52.5"/>
			<defs>
				<filter id="Adobe_OpacityMaskFilter_4_" filterUnits="userSpaceOnUse" x="110.8" y="520" width="49.2" height="24.6">
					<feColorMatrix  type="matrix" values="1 0 0 0 0  0 1 0 0 0  0 0 1 0 0  0 0 0 1 0"/>
				</filter>
			</defs>
			<mask maskUnits="userSpaceOnUse" x="110.8" y="520" width="49.2" height="24.6" id="mask-2_5_">
				<g class="st9">
					<rect id="path-1_5_" x="-0.5" y="0" class="st1" width="375" height="603"/>
				</g>
			</mask>
			<path id="Combined-Shape" class="st10" d="M160,520c0,13.6-11,24.6-24.6,24.6s-24.6-11-24.6-24.6l0,0H160z"/>
		</g>
	</g>
</g>
</svg>
