<?xml version="1.0" encoding="UTF-8"?>
<svg width="48px" height="48px" viewBox="0 0 48 48" version="1.1" xmlns="http://www.w3.org/2000/svg" xmlns:xlink="http://www.w3.org/1999/xlink">
    <title>menu</title>
    <g id="Design" stroke="none" stroke-width="1" fill="none" fill-rule="evenodd">
        <g id="02_375px_about" transform="translate(-304.000000, -16.000000)" fill-rule="nonzero">
            <g id="menu" transform="translate(304.000000, 16.000000)">
                <path d="M20.0736306,0.5 L27.9263694,0.5 C34.397998,0.5 37.0232752,1.21116973 39.5789662,2.57796823 C42.0979505,3.9251358 44.0748642,5.90204946 45.4220318,8.4210338 C46.7888303,10.9767248 47.5,13.602002 47.5,20.0736306 L47.5,20.0736306 L47.5,27.9263694 C47.5,34.397998 46.7888303,37.0232752 45.4220318,39.5789662 C44.0748642,42.0979505 42.0979505,44.0748642 39.5789662,45.4220318 C37.0232752,46.7888303 34.397998,47.5 27.9263694,47.5 L27.9263694,47.5 L20.0736306,47.5 C13.602002,47.5 10.9767248,46.7888303 8.4210338,45.4220318 C5.90204946,44.0748642 3.9251358,42.0979505 2.57796823,39.5789662 C1.21116973,37.0232752 0.5,34.397998 0.5,27.9263694 L0.5,27.9263694 L0.5,20.0736306 C0.5,13.602002 1.21116973,10.9767248 2.57796823,8.4210338 C3.9251358,5.90204946 5.90204946,3.9251358 8.4210338,2.57796823 C10.9767248,1.21116973 13.602002,0.5 20.0736306,0.5 L20.0736306,0.5 Z" id="Rectangle" stroke-opacity="0.163468071" stroke="#2F3043"></path>
                <path d="M35,30 L35,32 L13,32 L13,30 L35,30 Z M35,23 L35,25 L13,25 L13,23 L35,23 Z M35,16 L35,18 L13,18 L13,16 L35,16 Z" id="Combined-Shape" fill="#2F3043"></path>
            </g>
        </g>
    </g>
</svg>