<?xml version="1.0" encoding="UTF-8"?>
<svg width="160px" height="160px" viewBox="0 0 160 160" version="1.1" xmlns="http://www.w3.org/2000/svg" xmlns:xlink="http://www.w3.org/1999/xlink">
    <title>reicon04</title>
    <defs>
        <linearGradient x1="27.8741213%" y1="14.1847462%" x2="74.7220425%" y2="83.8060199%" id="linearGradient-1">
            <stop stop-color="#FFB7DC" offset="0%"></stop>
            <stop stop-color="#85AEFF" offset="100%"></stop>
        </linearGradient>
    </defs>
    <g id="Design" stroke="none" stroke-width="1" fill="none" fill-rule="evenodd">
        <g id="07_recruit" transform="translate(-716.000000, -2065.000000)">
            <g id="4" transform="translate(196.000000, 1656.000000)">
                <g id="reicon04" transform="translate(520.000000, 409.000000)">
                    <path d="M70.5,6.6395281 C76.3786205,3.24550499 83.6213795,3.24550499 89.5,6.6395281 L89.5,6.6395281 L138.782032,35.0925227 C141.721343,36.7895343 144.096343,39.2061434 145.736515,42.0470054 C147.376687,44.8878674 148.282032,48.1529823 148.282032,51.5470054 L148.282032,51.5470054 L148.282032,108.452995 C148.282032,111.847018 147.376687,115.112133 145.736515,117.952995 C144.096343,120.793857 141.721343,123.210466 138.782032,124.907477 L138.782032,124.907477 L89.5,153.360472 C83.6213795,156.754495 76.3786205,156.754495 70.5,153.360472 L70.5,153.360472 L21.2179677,124.907477 C15.3393472,121.513454 11.7179677,115.241041 11.7179677,108.452995 L11.7179677,108.452995 L11.7179677,51.5470054 C11.7179677,48.1529823 12.6233126,44.8878674 14.263485,42.0470054 C15.9036575,39.2061434 18.2786575,36.7895343 21.2179677,35.0925227 L21.2179677,35.0925227 Z" id="Polygon" stroke="#4F506A" stroke-width="2" fill="url(#linearGradient-1)" fill-rule="nonzero"></path>
                    <path d="M89.7138695,105.902093 C84.1792541,111.367668 75.817366,111.36427 70.2861305,105.902093 L70.2861305,105.902093 Z M93.1701632,94.8849129 C95.1012821,94.8849129 96.6666667,96.4590804 96.6666667,98.4010341 L96.6666667,98.4010341 L96.6666667,98.8698502 C96.6666667,100.811687 95.1011655,102.385971 93.1701632,102.385971 L93.1701632,102.385971 L66.8298368,102.385971 C64.8987179,102.385971 63.3333333,100.811804 63.3333333,98.8698502 L63.3333333,98.8698502 L63.3333333,98.4010341 C63.3333333,96.4590804 64.8987179,94.8849129 66.8298368,94.8849129 L66.8298368,94.8849129 Z M88.8321678,68.631091 C75.5631049,81.9746021 70.080496,87.5038869 67.7998631,89.7863539 L67.5675531,90.0186879 C67.4573156,90.128851 67.3557975,90.2301642 67.262294,90.3233296 L67.0857643,90.4990051 C66.2821683,91.2976072 66.1835846,91.3785993 66.1533352,91.3762887 C66.1453755,91.3737145 66.1431694,91.3721756 66.1405199,91.3709156 L66.1344207,91.3689756 L66.1305361,91.3686745 L66.1305361,84.2450131 L81.6573427,68.631091 Z M93.8392224,68.6245127 C93.8539476,68.6203071 93.8553263,68.6312083 93.8694639,68.6312083 L93.8694639,68.6312083 L93.8694639,75.7548697 L78.3426573,91.3687917 L71.1678322,91.3687917 C83.963,78.5018347 89.5179573,72.9009119 91.9433221,70.4707111 L92.3192767,70.0943339 C93.5192748,68.8942101 93.7631423,68.6640518 93.8285769,68.629057 Z M93.8694639,80.7288919 L93.8694639,91.3687917 L83.2890443,91.3687917 L93.8694639,80.7288919 Z M76.7109557,68.6312083 L66.1305361,79.2709909 L66.1305361,68.6312083 L76.7109557,68.6312083 Z M93.1701632,57.6140286 C95.1011655,57.6140286 96.6666667,59.1881961 96.6666667,61.1301498 L96.6666667,61.5989659 C96.6666667,63.5409196 95.1012821,65.1150871 93.1701632,65.1150871 L66.8298368,65.1150871 L66.8298368,65.1150871 C64.8987179,65.1150871 63.3333333,63.5409196 63.3333333,61.5989659 L63.3333333,61.1301498 C63.3333333,59.1881961 64.8987179,57.6140286 66.8298368,57.6140286 L93.1701632,57.6140286 L93.1701632,57.6140286 Z M89.7138695,54.0979075 L70.2861305,54.0979075 C75.817366,48.6357304 84.1792541,48.6323315 89.7138695,54.0979075 Z" id="Combined-Shape" fill="#FFFFFF"></path>
                </g>
            </g>
        </g>
    </g>
</svg>