<?xml version="1.0" encoding="UTF-8"?>
<svg width="160px" height="160px" viewBox="0 0 160 160" version="1.1" xmlns="http://www.w3.org/2000/svg" xmlns:xlink="http://www.w3.org/1999/xlink">
    <title>reicon03</title>
    <defs>
        <linearGradient x1="30.5070525%" y1="13.2511751%" x2="73.2323897%" y2="85.1981149%" id="linearGradient-1">
            <stop stop-color="#FFB7DC" offset="0%"></stop>
            <stop stop-color="#85AEFF" offset="100%"></stop>
        </linearGradient>
    </defs>
    <g id="Design" stroke="none" stroke-width="1" fill="none" fill-rule="evenodd">
        <g id="07_recruit" transform="translate(-196.000000, -2065.000000)">
            <g id="4" transform="translate(196.000000, 1656.000000)">
                <g id="reicon03" transform="translate(0.000000, 409.000000)">
                    <path d="M70.5,6.6395281 C76.3786205,3.24550499 83.6213795,3.24550499 89.5,6.6395281 L89.5,6.6395281 L138.782032,35.0925227 C141.721343,36.7895343 144.096343,39.2061434 145.736515,42.0470054 C147.376687,44.8878674 148.282032,48.1529823 148.282032,51.5470054 L148.282032,51.5470054 L148.282032,108.452995 C148.282032,111.847018 147.376687,115.112133 145.736515,117.952995 C144.096343,120.793857 141.721343,123.210466 138.782032,124.907477 L138.782032,124.907477 L89.5,153.360472 C83.6213795,156.754495 76.3786205,156.754495 70.5,153.360472 L70.5,153.360472 L21.2179677,124.907477 C15.3393472,121.513454 11.7179677,115.241041 11.7179677,108.452995 L11.7179677,108.452995 L11.7179677,51.5470054 C11.7179677,48.1529823 12.6233126,44.8878674 14.263485,42.0470054 C15.9036575,39.2061434 18.2786575,36.7895343 21.2179677,35.0925227 L21.2179677,35.0925227 Z" id="Polygon" stroke="#4F506A" stroke-width="2" fill="url(#linearGradient-1)" fill-rule="nonzero"></path>
                    <path d="M76.9131641,84.6249644 L78.9248047,96.3739223 C79.4198047,99.2652218 77.913125,102.102231 75.2868359,103.311011 C75.8430078,106.929325 78.9570312,109.812009 82.8709766,109.792299 C87.03875,109.760906 90.4296875,106.266514 90.4296875,102.002857 L90.4296875,102.002857 L90.4296875,95.9837421 C90.4296875,92.6274365 93.1336719,89.9646273 96.40625,89.9646273 C99.7017969,89.9646273 102.382812,92.6648494 102.382812,95.9837421 L102.382812,95.9837421 L102.382812,111.562627 C102.382812,112.54032 101.595781,113.332955 100.625,113.332955 C99.6542188,113.332955 98.8671875,112.54032 98.8671875,111.562627 L98.8671875,111.562627 L98.8671875,95.9837421 C98.8671875,94.6170489 97.7632813,93.505283 96.40625,93.505283 C95.0583594,93.505283 93.9453125,94.6007619 93.9453125,95.9837421 L93.9453125,95.9837421 L93.9453125,102.002857 C93.9453125,108.204433 88.9891016,113.287045 82.8971094,113.332955 C77.1908984,113.379456 72.6103906,109.131967 71.8085938,103.835736 C69.035,103.469396 66.8316406,101.343587 66.3519922,98.5670045 L66.3519922,98.5670045 L64.325,86.8302028 C68.7245703,86.0928023 72.7547656,85.3640173 76.9131641,84.6249644 L76.9131641,84.6249644 Z M50,68.1305836 C50,58.9021005 58.4949219,51.9585206 67.5379297,53.5652701 L67.5379297,53.5652701 L95.1171875,58.467072 L95.1171875,77.7940953 C70.401875,82.186942 67.2003157,82.8098919 65.922943,82.9043847 L65.8326264,82.9104028 C65.7743258,82.9138488 65.7194669,82.9162254 65.6657758,82.9179089 L65.5459825,82.920686 C65.4927643,82.9215415 65.4390085,82.921986 65.3824414,82.922396 L65.295198,82.9230319 C65.2502378,82.9233838 65.2030566,82.9238221 65.1526953,82.9245055 C56.9335156,83.0481924 50,76.4409747 50,68.1305836 Z M107.691523,55.1192639 C108.828477,54.741594 110,55.5961903 110,56.8004853 L110,56.8004853 L110,79.460682 C110,80.6665113 108.827422,81.5191012 107.691523,81.1419033 L107.691523,81.1419033 L98.6328125,78.1322279 L98.6328125,58.1289393 Z M65,62.5835563 C61.9629688,62.5835563 59.4921875,65.0719292 59.4921875,68.1305836 C59.4921875,71.1892381 61.9629688,73.677611 65,73.677611 C68.0370312,73.677611 70.5078125,71.1892381 70.5078125,68.1305836 C70.5078125,65.0719292 68.0370312,62.5835563 65,62.5835563 Z M65,66.1242121 C66.1002548,66.1242121 66.9921875,67.0224952 66.9921875,68.1305836 C66.9921875,69.2386721 66.1002548,70.1369552 65,70.1369552 C63.8997452,70.1369552 63.0078125,69.2386721 63.0078125,68.1305836 C63.0078125,67.0224952 63.8997452,66.1242121 65,66.1242121 Z" id="Combined-Shape" fill="#FFFFFF"></path>
                </g>
            </g>
        </g>
    </g>
</svg>