<?xml version="1.0" encoding="UTF-8"?>
<svg width="160px" height="160px" viewBox="0 0 160 160" version="1.1" xmlns="http://www.w3.org/2000/svg" xmlns:xlink="http://www.w3.org/1999/xlink">
    <title>reicon02</title>
    <defs>
        <linearGradient x1="28.8407392%" y1="13.2222646%" x2="74.7798744%" y2="86.9909074%" id="linearGradient-1">
            <stop stop-color="#FFB7DC" offset="0%"></stop>
            <stop stop-color="#85AEFF" offset="100%"></stop>
        </linearGradient>
    </defs>
    <g id="Design" stroke="none" stroke-width="1" fill="none" fill-rule="evenodd">
        <g id="07_recruit" transform="translate(-716.000000, -1656.000000)">
            <g id="4" transform="translate(196.000000, 1656.000000)">
                <g id="reicon02" transform="translate(520.000000, 0.000000)">
                    <path d="M70.5,6.6395281 C76.3786205,3.24550499 83.6213795,3.24550499 89.5,6.6395281 L89.5,6.6395281 L138.782032,35.0925227 C141.721343,36.7895343 144.096343,39.2061434 145.736515,42.0470054 C147.376687,44.8878674 148.282032,48.1529823 148.282032,51.5470054 L148.282032,51.5470054 L148.282032,108.452995 C148.282032,111.847018 147.376687,115.112133 145.736515,117.952995 C144.096343,120.793857 141.721343,123.210466 138.782032,124.907477 L138.782032,124.907477 L89.5,153.360472 C83.6213795,156.754495 76.3786205,156.754495 70.5,153.360472 L70.5,153.360472 L21.2179677,124.907477 C15.3393472,121.513454 11.7179677,115.241041 11.7179677,108.452995 L11.7179677,108.452995 L11.7179677,51.5470054 C11.7179677,48.1529823 12.6233126,44.8878674 14.263485,42.0470054 C15.9036575,39.2061434 18.2786575,36.7895343 21.2179677,35.0925227 L21.2179677,35.0925227 Z" id="Polygon" stroke="#4F506A" stroke-width="2" fill="url(#linearGradient-1)" fill-rule="nonzero"></path>
                    <path d="M74.1457601,47.3068118 C74.1457601,47.3068118 61.0863563,47.9444638 59.5326336,63.8338032 C59.5326336,63.8338032 59.3783144,68.1221804 56.5802338,69.8688572 C56.5802338,69.8688572 52.2262519,72.7286413 54.4041506,80.354485 C54.4041506,80.354485 55.3376914,85.1227715 51.2941636,87.8244417 C51.2941636,87.8244417 47.8751749,90.8438244 50.0537998,95.1351709 C50.0537998,95.1351709 51.4532032,96.5667332 48.9644873,99.1076913 C48.9644873,99.1076913 46.787678,103.080212 50.5192993,108.48281 C50.5192993,108.48281 50.0537998,104.514372 50.9851619,103.559379 C50.9851619,103.559379 54.248742,107.527816 53.4738778,110.233198 C53.4738778,110.233198 58.759948,107.212702 66.3749682,106.579133 C66.3749682,106.579133 75.546979,104.826517 74.6156169,92.9137811 C74.6156169,92.9137811 66.0656035,86.0807342 66.3749682,80.040484 L67.4635545,71.1437901 C67.4635545,71.1437901 71.0401303,66.6987836 71.3502213,64.9483953 C71.3502213,64.9483953 73.8374847,68.7605748 70.7271346,71.6207301 C70.7271346,71.6207301 76.1693395,70.3487664 74.3040735,62.4029833 C74.3040735,62.4029833 75.5455266,59.5431991 76.3247481,59.7039112 C76.3247481,59.7039112 78.967057,66.6935874 86.7425693,67.1716409 C86.7425693,67.1716409 87.9822068,75.1137125 92.8024144,75.9109631 C92.8024144,75.9109631 92.957823,87.8259263 86.1165777,92.7545537 C86.1165777,92.7545537 84.5628551,106.73836 98.2428039,107.374156 C98.2428039,107.374156 95.7551774,113.728779 101.19593,115 C101.19593,115 100.263842,108.803863 104.77178,108.803863 L106.792454,111.342965 C106.792454,111.342965 111.612662,105.148313 109.435126,100.860678 C109.435126,100.860678 104.927551,98.6348341 106.638135,92.7571518 C106.638135,92.7571518 109.435126,90.5353909 105.548459,87.6718951 C105.548459,87.6718951 104.771417,86.5584165 106.17663,85.2894221 C106.17663,85.2894221 110.993569,81.1561896 102.909782,72.0987836 L102.602595,63.835659 C102.602595,63.835659 100.426149,51.4426424 85.6594296,45.5608773 C85.653983,45.5590215 75.0793009,43.491663 74.1457601,47.3068118 Z" id="Path" fill="#FFFFFF"></path>
                </g>
            </g>
        </g>
    </g>
</svg>