<?xml version="1.0" encoding="UTF-8"?>
<svg width="160px" height="160px" viewBox="0 0 160 160" version="1.1" xmlns="http://www.w3.org/2000/svg" xmlns:xlink="http://www.w3.org/1999/xlink">
    <title>reicon01</title>
    <defs>
        <linearGradient x1="26.5171112%" y1="13.1341943%" x2="78.1656534%" y2="85.1789053%" id="linearGradient-1">
            <stop stop-color="#FFB7DC" offset="0%"></stop>
            <stop stop-color="#85AEFF" offset="100%"></stop>
        </linearGradient>
    </defs>
    <g id="Design" stroke="none" stroke-width="1" fill="none" fill-rule="evenodd">
        <g id="07_recruit" transform="translate(-196.000000, -1656.000000)">
            <g id="reicon01" transform="translate(196.000000, 1656.000000)">
                <path d="M70.5,6.6395281 C76.3786205,3.24550499 83.6213795,3.24550499 89.5,6.6395281 L89.5,6.6395281 L138.782032,35.0925227 C141.721343,36.7895343 144.096343,39.2061434 145.736515,42.0470054 C147.376687,44.8878674 148.282032,48.1529823 148.282032,51.5470054 L148.282032,51.5470054 L148.282032,108.452995 C148.282032,111.847018 147.376687,115.112133 145.736515,117.952995 C144.096343,120.793857 141.721343,123.210466 138.782032,124.907477 L138.782032,124.907477 L89.5,153.360472 C83.6213795,156.754495 76.3786205,156.754495 70.5,153.360472 L70.5,153.360472 L21.2179677,124.907477 C15.3393472,121.513454 11.7179677,115.241041 11.7179677,108.452995 L11.7179677,108.452995 L11.7179677,51.5470054 C11.7179677,48.1529823 12.6233126,44.8878674 14.263485,42.0470054 C15.9036575,39.2061434 18.2786575,36.7895343 21.2179677,35.0925227 L21.2179677,35.0925227 Z" id="Polygon" stroke="#4F506A" stroke-width="2" fill="url(#linearGradient-1)" fill-rule="nonzero"></path>
                <path d="M69.8293827,87.0696552 C70.2932099,87.2982759 70.7916667,87.4668966 71.3174074,87.5527586 L71.3174074,87.5527586 L73.7079012,87.9458621 C72.5682716,88.4393103 71.5388272,89.1768966 70.7087654,90.1317241 L70.7087654,90.1317241 L69.7443827,91.2406897 C68.3350617,92.8596552 68.1608642,95.5203448 69.3382716,97.4289655 C70.0759877,98.6248276 70.4946914,99.9986207 70.5492593,101.401379 C70.6048765,102.843448 71.0907407,104.126207 71.952284,105.112069 L71.952284,105.112069 L74.4046914,107.916552 C74.6292593,108.173103 74.7530864,108.502069 74.7530864,108.840345 C74.7530864,109.479655 74.2252469,110 73.5767284,110 C73.2619136,110 72.967037,109.88 72.7445679,109.66069 L72.7445679,109.66069 L71.5325309,108.465862 C70.408642,107.355862 68.6089506,107.256552 67.3475926,108.238276 C66.2478395,109.094828 64.9487037,109.664828 63.5908025,109.885172 C60.8854938,110.319655 58.2232099,109.504483 56.2902469,107.640345 C54.357284,105.776207 53.4695062,103.176552 53.8535802,100.507586 C54.3856173,96.8134483 57.672284,93.8465517 61.6693827,93.4544828 C63.6674074,93.2568966 65.5405556,92.2637931 66.8071605,90.7296552 L66.8071605,90.7296552 Z M54.6185802,50 C55.1096914,50 55.5787654,50.2048276 55.9135185,50.5565517 L55.9135185,50.5565517 L53.4338272,53.0010345 L67.831358,72.2062069 C69.0119136,73.7786207 70.8231481,74.7655172 72.8033333,74.9113793 C72.9733333,74.9237931 73.1433333,74.93 73.312284,74.93 C74.7446914,74.93 76.1298765,74.48 77.2841975,73.6606897 L77.2841975,73.6606897 L87.0717901,84.2424138 C87.2480864,84.4337931 87.345679,84.68 87.345679,84.9386207 L87.345679,84.9386207 L87.345679,86.4613793 C87.345679,87.8662069 87.8357407,89.2441379 88.7256173,90.3386207 L88.7256173,90.3386207 L88.9764198,90.6489655 C90.2640123,92.2358621 92.1780864,93.262069 94.2285802,93.4648276 C98.2141358,93.857931 101.466173,96.8610345 101.962531,100.603793 C102.11679,101.764483 102.033889,102.91069 101.713827,104.010345 C101.260494,105.567241 102.051728,107.18931 103.554444,107.782069 L103.554444,107.782069 L108.207407,109.616207 C108.284012,109.646207 108.333333,109.719655 108.333333,109.801379 C108.333333,109.911034 108.243086,110 108.131852,110 L108.131852,110 L93.6419753,110 C93.1928395,110 92.7384568,109.964828 92.2924691,109.895517 C88.6846914,109.344138 85.8209259,106.463103 85.3287654,102.887931 C85.0527778,100.885172 85.4809259,98.9424138 86.5659877,97.2706897 C87.6825309,95.5513793 87.4548148,92.8441379 86.0559877,91.2344828 L86.0559877,91.2344828 L85.8744444,91.0275862 C83.7935185,88.6348276 80.9119136,87.0313793 77.7595679,86.5141379 L77.7595679,86.5141379 L71.6616049,85.5117241 C70.7171605,85.3575862 69.9059877,84.7968966 69.4358642,83.9724138 L69.4358642,83.9724138 L51.8702469,53.1893103 C51.7369753,52.9565517 51.6666667,52.6917241 51.6666667,52.4237931 C51.6666667,51.9003448 51.9300617,51.4141379 52.3718519,51.1244828 L52.3718519,51.1244828 L53.636358,50.2927586 C53.9291358,50.1013793 54.2680864,50 54.6185802,50 Z M62.1604938,96.5517241 C59.2631481,96.5517241 56.9135802,98.867931 56.9135802,101.724138 C56.9135802,104.580345 59.2631481,106.896552 62.1604938,106.896552 C65.0578395,106.896552 67.4074074,104.580345 67.4074074,101.724138 C67.4074074,98.867931 65.0578395,96.5517241 62.1604938,96.5517241 Z M93.6419753,96.5517241 C90.7446296,96.5517241 88.3950617,98.867931 88.3950617,101.724138 C88.3950617,104.580345 90.7446296,106.896552 93.6419753,106.896552 C96.539321,106.896552 98.8888889,104.580345 98.8888889,101.724138 C98.8888889,98.867931 96.539321,96.5517241 93.6419753,96.5517241 Z M77.9012346,80 C76.7416667,80 75.8024691,80.9258621 75.8024691,82.0689655 C75.8024691,83.212069 76.7416667,84.137931 77.9012346,84.137931 C79.0608025,84.137931 80,83.212069 80,82.0689655 C80,80.9258621 79.0608025,80 77.9012346,80 Z M99.947716,50.5927586 C100.623519,51.5796552 100.987654,52.7424138 100.987654,53.96 C100.987654,55.2313793 100.618272,56.4665517 99.9193827,57.5341379 L99.9193827,57.5341379 L85.5365432,79.5117241 L80.5351852,74.1044828 Z M74.8464815,71.0258621 L75.8612346,72.1224138 C75.0196296,72.6572414 74.0206173,72.9158621 72.9985185,72.8475862 L72.9985185,72.8475862 L74.8464815,71.0258621 Z M72.3437037,68.3196552 L73.4308642,69.4948276 L70.7801235,72.1089655 C70.3278395,71.8234483 69.9175309,71.4717241 69.5817284,71.0424138 L69.5817284,71.0424138 L72.3437037,68.3196552 Z M69.8419753,65.6144828 L70.9291358,66.7896552 L68.3140741,69.3675862 L67.3454938,68.0755172 L69.8419753,65.6144828 Z M67.3402469,62.9093103 L68.4274074,64.0844828 L66.0841358,66.3934483 L65.1155556,65.1013793 L67.3402469,62.9093103 Z M64.8374691,60.2031034 L65.9246296,61.3782759 L63.8541975,63.4193103 L62.8856173,62.1272414 L64.8374691,60.2031034 Z M62.3346914,57.497931 L63.4218519,58.672069 L61.6242593,60.4451724 L60.655679,59.1531034 L62.3346914,57.497931 Z M59.832963,54.7917241 L60.9201235,55.9668966 L59.394321,57.4710345 L58.4257407,56.1789655 L59.832963,54.7917241 Z M57.3301852,52.0865517 L58.4173457,53.2617241 L57.1643827,54.4968966 L56.1958025,53.2058621 L57.3301852,52.0865517 Z" id="Combined-Shape" fill="#FFFFFF"></path>
            </g>
        </g>
    </g>
</svg>