<?xml version="1.0" encoding="UTF-8"?>
<svg width="16px" height="13px" viewBox="0 0 16 13" version="1.1" xmlns="http://www.w3.org/2000/svg" xmlns:xlink="http://www.w3.org/1999/xlink">
    <title>twitter</title>
    <g id="Symbols" stroke="none" stroke-width="1" fill="none" fill-rule="evenodd">
        <g id="footer" transform="translate(-1217.000000, -114.000000)" fill="#FFFFFF" fill-rule="nonzero">
            <g id="social" transform="translate(1145.000000, 96.000000)">
                <path d="M88,19.54 C87.412,19.8013333 86.7786667,19.9773333 86.1146667,20.0573333 C86.7933333,19.6506667 87.312,19.008 87.5586667,18.2413333 C86.924,18.6173333 86.2213333,18.8906667 85.4733333,19.0373333 C84.876,18.3986667 84.0213333,18 83.0786667,18 C80.9586667,18 79.4013333,19.9773333 79.88,22.0306667 C77.1533333,21.8933333 74.7333333,20.5866667 73.1146667,18.6013333 C72.2546667,20.076 72.6693333,22.0066667 74.1306667,22.984 C73.5933333,22.9666667 73.088,22.8186667 72.6453333,22.5733333 C72.6093333,24.0933333 73.7,25.516 75.2786667,25.8333333 C74.8173333,25.9586667 74.3106667,25.988 73.796,25.8893333 C74.2133333,27.1933333 75.428,28.1413333 76.8626667,28.168 C75.48,29.2506667 73.7426667,29.7346667 72,29.5293333 C73.4533333,30.4613333 75.1773333,31.004 77.0306667,31.004 C83.1266667,31.004 86.5693333,25.856 86.3613333,21.2386667 C87.004,20.7773333 87.56,20.1986667 88,19.54 L88,19.54 Z" id="twitter"></path>
            </g>
        </g>
    </g>
</svg>